<ttFont>
    <TTGlyph name=".notdef" xMin="260" yMin="0" xMax="1874" yMax="1614">
      <contour>
        <pt x="260" y="1614" on="1"/>
        <pt x="1874" y="1614" on="1"/>
        <pt x="1874" y="0" on="1"/>
        <pt x="260" y="0" on="1"/>
      </contour>
      <contour>
        <pt x="695" y="287" on="1"/>
        <pt x="1065" y="690" on="1"/>
        <pt x="1449" y="287" on="1"/>
        <pt x="1578" y="416" on="1"/>
        <pt x="1181" y="807" on="1"/>
        <pt x="1578" y="1188" on="1"/>
        <pt x="1442" y="1320" on="1"/>
        <pt x="1068" y="920" on="1"/>
        <pt x="689" y="1321" on="1"/>
        <pt x="559" y="1189" on="1"/>
        <pt x="951" y="804" on="1"/>
        <pt x="560" y="441" on="1"/>
      </contour>
    </TTGlyph>
    <TTGlyph name="A" xMin="23" yMin="0" xMax="1248" yMax="1571">
      <contour>
        <pt x="459" y="1571" on="1"/>
        <pt x="790" y="1571" on="1"/>
        <pt x="1248" y="0" on="1"/>
        <pt x="988" y="0" on="1"/>
        <pt x="884" y="392" on="1"/>
        <pt x="380" y="392" on="1"/>
        <pt x="282" y="0" on="1"/>
        <pt x="23" y="0" on="1"/>
      </contour>
      <contour>
        <pt x="832" y="585" on="1"/>
        <pt x="640" y="1309" on="1"/>
        <pt x="611" y="1309" on="1"/>
        <pt x="429" y="585" on="1"/>
      </contour>
    </TTGlyph>
    <TTGlyph name="AE" xMin="-51" yMin="0" xMax="1556" yMax="1571">
      <contour>
        <pt x="486" y="1571" on="1"/>
        <pt x="1509" y="1571" on="1"/>
        <pt x="1509" y="1373" on="1"/>
        <pt x="977" y="1373" on="1"/>
        <pt x="977" y="939" on="1"/>
        <pt x="1371" y="939" on="1"/>
        <pt x="1371" y="742" on="1"/>
        <pt x="977" y="742" on="1"/>
        <pt x="977" y="202" on="1"/>
        <pt x="1556" y="202" on="1"/>
        <pt x="1556" y="0" on="1"/>
        <pt x="730" y="0" on="1"/>
        <pt x="730" y="392" on="1"/>
        <pt x="334" y="392" on="1"/>
        <pt x="207" y="0" on="1"/>
        <pt x="-51" y="0" on="1"/>
      </contour>
      <contour>
        <pt x="730" y="585" on="1"/>
        <pt x="730" y="1373" on="1"/>
        <pt x="652" y="1373" on="1"/>
        <pt x="396" y="585" on="1"/>
      </contour>
    </TTGlyph>
    <TTGlyph name="Aacute" xMin="23" yMin="0" xMax="1248" yMax="2012">
      <component glyphName="A" x="0" y="0" flags="0x204"/>
      <component glyphName="acute.cap" x="543" y="0" flags="0x4"/>
    </TTGlyph>
    <TTGlyph name="Acircumflex" xMin="23" yMin="0" xMax="1248" yMax="2040">
      <component glyphName="A" x="0" y="0" flags="0x204"/>
      <component glyphName="circumflex.cap" x="579" y="0" flags="0x4"/>
    </TTGlyph>
    <TTGlyph name="Adieresis" xMin="23" yMin="0" xMax="1248" yMax="2011">
      <component glyphName="A" x="0" y="0" flags="0x204"/>
      <component glyphName="dieresis.cap" x="579" y="0" flags="0x4"/>
    </TTGlyph>
    <TTGlyph name="Agrave" xMin="23" yMin="0" xMax="1248" yMax="2012">
      <component glyphName="A" x="0" y="0" flags="0x204"/>
      <component glyphName="grave.cap" x="605" y="0" flags="0x4"/>
    </TTGlyph>
    <TTGlyph name="Aring" xMin="23" yMin="0" xMax="1248" yMax="2016">
      <contour>
        <pt x="445" y="1520" on="1"/>
        <pt x="394" y="1556" on="0"/>
        <pt x="337" y="1669" on="0"/>
        <pt x="337" y="1740" on="1"/>
        <pt x="337" y="1801" on="0"/>
        <pt x="380" y="1903" on="0"/>
        <pt x="458" y="1976" on="0"/>
        <pt x="565" y="2016" on="0"/>
        <pt x="629" y="2016" on="1"/>
        <pt x="693" y="2016" on="0"/>
        <pt x="800" y="1976" on="0"/>
        <pt x="878" y="1903" on="0"/>
        <pt x="921" y="1801" on="0"/>
        <pt x="921" y="1740" on="1"/>
        <pt x="921" y="1666" on="0"/>
        <pt x="860" y="1551" on="0"/>
        <pt x="806" y="1514" on="1"/>
        <pt x="1248" y="0" on="1"/>
        <pt x="988" y="0" on="1"/>
        <pt x="884" y="392" on="1"/>
        <pt x="380" y="392" on="1"/>
        <pt x="282" y="0" on="1"/>
        <pt x="23" y="0" on="1"/>
      </contour>
      <contour>
        <pt x="629" y="1606" on="1"/>
        <pt x="677" y="1606" on="0"/>
        <pt x="743" y="1672" on="0"/>
        <pt x="743" y="1740" on="1"/>
        <pt x="743" y="1808" on="0"/>
        <pt x="678" y="1873" on="0"/>
        <pt x="629" y="1873" on="1"/>
        <pt x="582" y="1873" on="0"/>
        <pt x="516" y="1807" on="0"/>
        <pt x="516" y="1740" on="1"/>
        <pt x="516" y="1672" on="0"/>
        <pt x="581" y="1606" on="0"/>
      </contour>
      <contour>
        <pt x="832" y="585" on="1"/>
        <pt x="640" y="1309" on="1"/>
        <pt x="611" y="1309" on="1"/>
        <pt x="429" y="585" on="1"/>
      </contour>
    </TTGlyph>
    <TTGlyph name="Atilde" xMin="23" yMin="0" xMax="1248" yMax="2011">
      <component glyphName="A" x="0" y="0" flags="0x204"/>
      <component glyphName="tilde.cap" x="580" y="0" flags="0x4"/>
    </TTGlyph>
    <TTGlyph name="B" xMin="207" yMin="-7" xMax="1231" yMax="1577">
      <contour>
        <pt x="207" y="1571" on="1"/>
        <pt x="261" y="1573" on="0"/>
        <pt x="351" y="1576" on="0"/>
        <pt x="435" y="1577" on="0"/>
        <pt x="519" y="1577" on="0"/>
        <pt x="567" y="1577" on="1"/>
        <pt x="738" y="1577" on="0"/>
        <pt x="962" y="1518" on="0"/>
        <pt x="1093" y="1415" on="0"/>
        <pt x="1145" y="1273" on="0"/>
        <pt x="1145" y="1189" on="1"/>
        <pt x="1145" y="1063" on="0"/>
        <pt x="1045" y="894" on="0"/>
        <pt x="947" y="834" on="1"/>
        <pt x="1094" y="785" on="0"/>
        <pt x="1231" y="594" on="0"/>
        <pt x="1231" y="445" on="1"/>
        <pt x="1231" y="338" on="0"/>
        <pt x="1157" y="171" on="0"/>
        <pt x="1000" y="54" on="0"/>
        <pt x="753" y="-7" on="0"/>
        <pt x="580" y="-7" on="1"/>
        <pt x="494" y="-7" on="0"/>
        <pt x="307" y="-5" on="0"/>
        <pt x="207" y="0" on="1"/>
      </contour>
      <contour>
        <pt x="453" y="906" on="1"/>
        <pt x="482" y="904" on="0"/>
        <pt x="535" y="902" on="0"/>
        <pt x="559" y="902" on="1"/>
        <pt x="659" y="902" on="0"/>
        <pt x="791" y="941" on="0"/>
        <pt x="870" y="1008" on="0"/>
        <pt x="902" y="1099" on="0"/>
        <pt x="902" y="1150" on="1"/>
        <pt x="902" y="1202" on="0"/>
        <pt x="869" y="1286" on="0"/>
        <pt x="793" y="1345" on="0"/>
        <pt x="665" y="1377" on="0"/>
        <pt x="571" y="1377" on="1"/>
        <pt x="545" y="1377" on="0"/>
        <pt x="485" y="1375" on="0"/>
        <pt x="453" y="1373" on="1"/>
      </contour>
      <contour>
        <pt x="454" y="197" on="1"/>
        <pt x="488" y="195" on="0"/>
        <pt x="550" y="192" on="0"/>
        <pt x="579" y="192" on="1"/>
        <pt x="699" y="192" on="0"/>
        <pt x="857" y="231" on="0"/>
        <pt x="950" y="302" on="0"/>
        <pt x="988" y="399" on="0"/>
        <pt x="988" y="456" on="1"/>
        <pt x="988" y="589" on="0"/>
        <pt x="800" y="731" on="0"/>
        <pt x="603" y="731" on="1"/>
        <pt x="568" y="731" on="0"/>
        <pt x="494" y="726" on="0"/>
        <pt x="454" y="722" on="1"/>
        <pt x="453" y="723" on="1"/>
        <pt x="453" y="196" on="1"/>
      </contour>
    </TTGlyph>
    <TTGlyph name="C" xMin="116" yMin="-22" xMax="1060" yMax="1593">
      <contour>
        <pt x="757" y="-22" on="1"/>
        <pt x="615" y="-22" on="0"/>
        <pt x="379" y="76" on="0"/>
        <pt x="210" y="276" on="0"/>
        <pt x="116" y="582" on="0"/>
        <pt x="116" y="790" on="1"/>
        <pt x="116" y="997" on="0"/>
        <pt x="204" y="1300" on="0"/>
        <pt x="364" y="1498" on="0"/>
        <pt x="588" y="1593" on="0"/>
        <pt x="725" y="1593" on="1"/>
        <pt x="775" y="1593" on="0"/>
        <pt x="873" y="1582" on="0"/>
        <pt x="960" y="1563" on="0"/>
        <pt x="1031" y="1536" on="0"/>
        <pt x="1054" y="1520" on="1"/>
        <pt x="1054" y="1276" on="1"/>
        <pt x="991" y="1333" on="0"/>
        <pt x="836" y="1386" on="0"/>
        <pt x="752" y="1386" on="1"/>
        <pt x="666" y="1386" on="0"/>
        <pt x="523" y="1319" on="0"/>
        <pt x="421" y="1175" on="0"/>
        <pt x="365" y="950" on="0"/>
        <pt x="365" y="792" on="1"/>
        <pt x="365" y="633" on="0"/>
        <pt x="423" y="403" on="0"/>
        <pt x="533" y="255" on="0"/>
        <pt x="689" y="185" on="0"/>
        <pt x="787" y="185" on="1"/>
        <pt x="859" y="185" on="0"/>
        <pt x="1003" y="226" on="0"/>
        <pt x="1060" y="276" on="1"/>
        <pt x="1060" y="52" on="1"/>
        <pt x="1011" y="20" on="0"/>
        <pt x="857" y="-22" on="0"/>
      </contour>
    </TTGlyph>
    <TTGlyph name="Ccedilla" xMin="116" yMin="-518" xMax="1060" yMax="1593">
      <contour>
        <pt x="608" y="-7" on="1"/>
        <pt x="497" y="16" on="0"/>
        <pt x="315" y="136" on="0"/>
        <pt x="186" y="334" on="0"/>
        <pt x="116" y="610" on="0"/>
        <pt x="116" y="790" on="1"/>
        <pt x="116" y="997" on="0"/>
        <pt x="204" y="1300" on="0"/>
        <pt x="364" y="1498" on="0"/>
        <pt x="588" y="1593" on="0"/>
        <pt x="725" y="1593" on="1"/>
        <pt x="775" y="1593" on="0"/>
        <pt x="873" y="1582" on="0"/>
        <pt x="960" y="1563" on="0"/>
        <pt x="1031" y="1536" on="0"/>
        <pt x="1054" y="1520" on="1"/>
        <pt x="1054" y="1276" on="1"/>
        <pt x="991" y="1333" on="0"/>
        <pt x="836" y="1386" on="0"/>
        <pt x="752" y="1386" on="1"/>
        <pt x="666" y="1386" on="0"/>
        <pt x="523" y="1319" on="0"/>
        <pt x="421" y="1175" on="0"/>
        <pt x="365" y="950" on="0"/>
        <pt x="365" y="792" on="1"/>
        <pt x="365" y="633" on="0"/>
        <pt x="423" y="403" on="0"/>
        <pt x="533" y="255" on="0"/>
        <pt x="689" y="185" on="0"/>
        <pt x="787" y="185" on="1"/>
        <pt x="859" y="185" on="0"/>
        <pt x="1003" y="226" on="0"/>
        <pt x="1060" y="276" on="1"/>
        <pt x="1060" y="52" on="1"/>
        <pt x="1013" y="21" on="0"/>
        <pt x="869" y="-20" on="0"/>
        <pt x="775" y="-22" on="1"/>
        <pt x="763" y="-108" on="1"/>
        <pt x="863" y="-110" on="0"/>
        <pt x="973" y="-195" on="0"/>
        <pt x="973" y="-276" on="1"/>
        <pt x="973" y="-327" on="0"/>
        <pt x="923" y="-415" on="0"/>
        <pt x="818" y="-481" on="0"/>
        <pt x="658" y="-518" on="0"/>
        <pt x="547" y="-518" on="1"/>
        <pt x="547" y="-382" on="1"/>
        <pt x="664" y="-378" on="0"/>
        <pt x="770" y="-323" on="0"/>
        <pt x="770" y="-283" on="1"/>
        <pt x="770" y="-251" on="0"/>
        <pt x="729" y="-213" on="0"/>
        <pt x="678" y="-213" on="1"/>
        <pt x="614" y="-213" on="0"/>
        <pt x="555" y="-238" on="1"/>
      </contour>
    </TTGlyph>
    <TTGlyph name="D" xMin="214" yMin="-7" xMax="1275" yMax="1577">
      <contour>
        <pt x="214" y="1571" on="1"/>
        <pt x="247" y="1571" on="0"/>
        <pt x="326" y="1573" on="0"/>
        <pt x="409" y="1575" on="0"/>
        <pt x="487" y="1577" on="0"/>
        <pt x="519" y="1577" on="1"/>
        <pt x="732" y="1577" on="0"/>
        <pt x="1021" y="1477" on="0"/>
        <pt x="1198" y="1283" on="0"/>
        <pt x="1275" y="996" on="0"/>
        <pt x="1275" y="809" on="1"/>
        <pt x="1275" y="613" on="0"/>
        <pt x="1192" y="309" on="0"/>
        <pt x="1007" y="101" on="0"/>
        <pt x="709" y="-7" on="0"/>
        <pt x="495" y="-7" on="1"/>
        <pt x="423" y="-7" on="0"/>
        <pt x="291" y="0" on="0"/>
        <pt x="214" y="0" on="1"/>
      </contour>
      <contour>
        <pt x="459" y="197" on="1"/>
        <pt x="478" y="195" on="0"/>
        <pt x="513" y="194" on="0"/>
        <pt x="538" y="194" on="1"/>
        <pt x="675" y="194" on="0"/>
        <pt x="862" y="265" on="0"/>
        <pt x="976" y="413" on="0"/>
        <pt x="1026" y="642" on="0"/>
        <pt x="1026" y="801" on="1"/>
        <pt x="1026" y="958" on="0"/>
        <pt x="976" y="1177" on="0"/>
        <pt x="861" y="1315" on="0"/>
        <pt x="670" y="1377" on="0"/>
        <pt x="529" y="1377" on="1"/>
        <pt x="506" y="1377" on="0"/>
        <pt x="475" y="1376" on="0"/>
        <pt x="459" y="1375" on="1"/>
      </contour>
    </TTGlyph>
    <TTGlyph name="E" xMin="214" yMin="0" xMax="1080" yMax="1571">
      <contour>
        <pt x="214" y="1571" on="1"/>
        <pt x="1040" y="1571" on="1"/>
        <pt x="1040" y="1373" on="1"/>
        <pt x="459" y="1373" on="1"/>
        <pt x="459" y="939" on="1"/>
        <pt x="902" y="939" on="1"/>
        <pt x="902" y="742" on="1"/>
        <pt x="459" y="742" on="1"/>
        <pt x="459" y="202" on="1"/>
        <pt x="1080" y="202" on="1"/>
        <pt x="1080" y="0" on="1"/>
        <pt x="214" y="0" on="1"/>
      </contour>
    </TTGlyph>
    <TTGlyph name="Eacute" xMin="214" yMin="0" xMax="1080" yMax="2012">
      <component glyphName="E" x="0" y="0" flags="0x204"/>
      <component glyphName="acute.cap" x="563" y="0" flags="0x4"/>
    </TTGlyph>
    <TTGlyph name="Ecircumflex" xMin="214" yMin="0" xMax="1080" yMax="2040">
      <component glyphName="E" x="0" y="0" flags="0x204"/>
      <component glyphName="circumflex.cap" x="600" y="0" flags="0x4"/>
    </TTGlyph>
    <TTGlyph name="Edieresis" xMin="214" yMin="0" xMax="1080" yMax="2011">
      <component glyphName="E" x="0" y="0" flags="0x204"/>
      <component glyphName="dieresis.cap" x="600" y="0" flags="0x4"/>
    </TTGlyph>
    <TTGlyph name="Egrave" xMin="214" yMin="0" xMax="1080" yMax="2012">
      <component glyphName="E" x="0" y="0" flags="0x204"/>
      <component glyphName="grave.cap" x="626" y="0" flags="0x4"/>
    </TTGlyph>
    <TTGlyph name="Eth" xMin="74" yMin="-7" xMax="1275" yMax="1577">
      <contour>
        <pt x="214" y="693" on="1"/>
        <pt x="74" y="693" on="1"/>
        <pt x="74" y="895" on="1"/>
        <pt x="214" y="895" on="1"/>
        <pt x="214" y="1571" on="1"/>
        <pt x="247" y="1571" on="0"/>
        <pt x="326" y="1573" on="0"/>
        <pt x="409" y="1575" on="0"/>
        <pt x="487" y="1577" on="0"/>
        <pt x="519" y="1577" on="1"/>
        <pt x="732" y="1577" on="0"/>
        <pt x="1021" y="1477" on="0"/>
        <pt x="1198" y="1283" on="0"/>
        <pt x="1275" y="996" on="0"/>
        <pt x="1275" y="809" on="1"/>
        <pt x="1275" y="613" on="0"/>
        <pt x="1192" y="309" on="0"/>
        <pt x="1007" y="101" on="0"/>
        <pt x="709" y="-7" on="0"/>
        <pt x="495" y="-7" on="1"/>
        <pt x="423" y="-7" on="0"/>
        <pt x="291" y="0" on="0"/>
        <pt x="214" y="0" on="1"/>
      </contour>
      <contour>
        <pt x="459" y="197" on="1"/>
        <pt x="478" y="195" on="0"/>
        <pt x="513" y="194" on="0"/>
        <pt x="538" y="194" on="1"/>
        <pt x="675" y="194" on="0"/>
        <pt x="862" y="265" on="0"/>
        <pt x="976" y="413" on="0"/>
        <pt x="1026" y="642" on="0"/>
        <pt x="1026" y="801" on="1"/>
        <pt x="1026" y="958" on="0"/>
        <pt x="976" y="1177" on="0"/>
        <pt x="861" y="1315" on="0"/>
        <pt x="670" y="1377" on="0"/>
        <pt x="529" y="1377" on="1"/>
        <pt x="506" y="1377" on="0"/>
        <pt x="475" y="1376" on="0"/>
        <pt x="459" y="1375" on="1"/>
        <pt x="459" y="895" on="1"/>
        <pt x="780" y="895" on="1"/>
        <pt x="780" y="693" on="1"/>
        <pt x="459" y="693" on="1"/>
      </contour>
    </TTGlyph>
    <TTGlyph name="Euro" xMin="14" yMin="-22" xMax="1062" yMax="1589">
      <contour>
        <pt x="14" y="715" on="1"/>
        <pt x="161" y="715" on="1"/>
        <pt x="160" y="729" on="0"/>
        <pt x="160" y="759" on="0"/>
        <pt x="160" y="774" on="1"/>
        <pt x="160" y="826" on="0"/>
        <pt x="163" y="876" on="1"/>
        <pt x="14" y="876" on="1"/>
        <pt x="14" y="1053" on="1"/>
        <pt x="186" y="1053" on="1"/>
        <pt x="214" y="1189" on="0"/>
        <pt x="326" y="1391" on="0"/>
        <pt x="485" y="1524" on="0"/>
        <pt x="687" y="1589" on="0"/>
        <pt x="804" y="1589" on="1"/>
        <pt x="858" y="1589" on="0"/>
        <pt x="976" y="1573" on="0"/>
        <pt x="1037" y="1550" on="1"/>
        <pt x="1037" y="1281" on="1"/>
        <pt x="987" y="1326" on="0"/>
        <pt x="868" y="1368" on="0"/>
        <pt x="790" y="1368" on="1"/>
        <pt x="727" y="1368" on="0"/>
        <pt x="612" y="1337" on="0"/>
        <pt x="516" y="1264" on="0"/>
        <pt x="442" y="1143" on="0"/>
        <pt x="420" y="1053" on="1"/>
        <pt x="925" y="1053" on="1"/>
        <pt x="881" y="876" on="1"/>
        <pt x="396" y="876" on="1"/>
        <pt x="395" y="856" on="0"/>
        <pt x="394" y="814" on="0"/>
        <pt x="394" y="791" on="1"/>
        <pt x="394" y="771" on="0"/>
        <pt x="395" y="733" on="0"/>
        <pt x="396" y="715" on="1"/>
        <pt x="840" y="715" on="1"/>
        <pt x="796" y="537" on="1"/>
        <pt x="418" y="537" on="1"/>
        <pt x="437" y="448" on="0"/>
        <pt x="506" y="320" on="0"/>
        <pt x="601" y="238" on="0"/>
        <pt x="719" y="199" on="0"/>
        <pt x="788" y="199" on="1"/>
        <pt x="818" y="199" on="0"/>
        <pt x="890" y="210" on="0"/>
        <pt x="963" y="231" on="0"/>
        <pt x="1033" y="263" on="0"/>
        <pt x="1061" y="284" on="1"/>
        <pt x="1062" y="36" on="1"/>
        <pt x="1035" y="25" on="0"/>
        <pt x="969" y="4" on="0"/>
        <pt x="894" y="-12" on="0"/>
        <pt x="816" y="-22" on="0"/>
        <pt x="777" y="-22" on="1"/>
        <pt x="660" y="-22" on="0"/>
        <pt x="462" y="46" on="0"/>
        <pt x="308" y="184" on="0"/>
        <pt x="202" y="394" on="0"/>
        <pt x="178" y="537" on="1"/>
        <pt x="14" y="537" on="1"/>
      </contour>
    </TTGlyph>
    <TTGlyph name="F" xMin="214" yMin="0" xMax="1028" yMax="1571">
      <contour>
        <pt x="214" y="1571" on="1"/>
        <pt x="1028" y="1571" on="1"/>
        <pt x="1028" y="1373" on="1"/>
        <pt x="459" y="1373" on="1"/>
        <pt x="459" y="911" on="1"/>
        <pt x="891" y="911" on="1"/>
        <pt x="891" y="712" on="1"/>
        <pt x="459" y="712" on="1"/>
        <pt x="459" y="0" on="1"/>
        <pt x="214" y="0" on="1"/>
      </contour>
    </TTGlyph>
    <TTGlyph name="G" xMin="116" yMin="-22" xMax="1184" yMax="1593">
      <contour>
        <pt x="759" y="-22" on="1"/>
        <pt x="616" y="-22" on="0"/>
        <pt x="379" y="75" on="0"/>
        <pt x="210" y="275" on="0"/>
        <pt x="116" y="583" on="0"/>
        <pt x="116" y="795" on="1"/>
        <pt x="116" y="999" on="0"/>
        <pt x="204" y="1299" on="0"/>
        <pt x="364" y="1497" on="0"/>
        <pt x="587" y="1593" on="0"/>
        <pt x="722" y="1593" on="1"/>
        <pt x="781" y="1593" on="0"/>
        <pt x="894" y="1576" on="0"/>
        <pt x="994" y="1545" on="0"/>
        <pt x="1074" y="1504" on="0"/>
        <pt x="1100" y="1480" on="1"/>
        <pt x="1100" y="1237" on="1"/>
        <pt x="1027" y="1312" on="0"/>
        <pt x="849" y="1386" on="0"/>
        <pt x="755" y="1386" on="1"/>
        <pt x="667" y="1386" on="0"/>
        <pt x="524" y="1319" on="0"/>
        <pt x="422" y="1175" on="0"/>
        <pt x="366" y="950" on="0"/>
        <pt x="366" y="793" on="1"/>
        <pt x="366" y="633" on="0"/>
        <pt x="424" y="403" on="0"/>
        <pt x="533" y="255" on="0"/>
        <pt x="688" y="185" on="0"/>
        <pt x="785" y="185" on="1"/>
        <pt x="823" y="185" on="0"/>
        <pt x="903" y="196" on="0"/>
        <pt x="939" y="209" on="1"/>
        <pt x="939" y="649" on="1"/>
        <pt x="677" y="649" on="1"/>
        <pt x="677" y="850" on="1"/>
        <pt x="1184" y="850" on="1"/>
        <pt x="1184" y="116" on="1"/>
        <pt x="1103" y="48" on="0"/>
        <pt x="881" y="-22" on="0"/>
      </contour>
    </TTGlyph>
    <TTGlyph name="H" xMin="214" yMin="0" xMax="1237" yMax="1571">
      <contour>
        <pt x="214" y="1571" on="1"/>
        <pt x="459" y="1571" on="1"/>
        <pt x="459" y="951" on="1"/>
        <pt x="992" y="951" on="1"/>
        <pt x="992" y="1571" on="1"/>
        <pt x="1237" y="1571" on="1"/>
        <pt x="1237" y="0" on="1"/>
        <pt x="992" y="0" on="1"/>
        <pt x="992" y="754" on="1"/>
        <pt x="459" y="754" on="1"/>
        <pt x="459" y="0" on="1"/>
        <pt x="214" y="0" on="1"/>
      </contour>
    </TTGlyph>
    <TTGlyph name="I" xMin="197" yMin="0" xMax="442" yMax="1571">
      <contour>
        <pt x="197" y="1571" on="1"/>
        <pt x="442" y="1571" on="1"/>
        <pt x="442" y="0" on="1"/>
        <pt x="197" y="0" on="1"/>
      </contour>
    </TTGlyph>
    <TTGlyph name="IJ" xMin="197" yMin="-22" xMax="1185" yMax="1571">
      <component glyphName="I" x="0" y="0" flags="0x4"/>
      <component glyphName="J" x="640" y="0" flags="0x4"/>
    </TTGlyph>
    <TTGlyph name="Iacute" xMin="197" yMin="0" xMax="692" yMax="2012">
      <component glyphName="I" x="0" y="0" flags="0x204"/>
      <component glyphName="acute.cap" x="234" y="0" flags="0x4"/>
    </TTGlyph>
    <TTGlyph name="Icircumflex" xMin="-62" yMin="0" xMax="702" yMax="2040">
      <component glyphName="I" x="0" y="0" flags="0x204"/>
      <component glyphName="circumflex.cap" x="270" y="0" flags="0x4"/>
    </TTGlyph>
    <TTGlyph name="Idieresis" xMin="-87" yMin="0" xMax="730" yMax="2011">
      <component glyphName="I" x="0" y="0" flags="0x204"/>
      <component glyphName="dieresis.cap" x="270" y="0" flags="0x4"/>
    </TTGlyph>
    <TTGlyph name="Igrave" xMin="-61" yMin="0" xMax="442" yMax="2012">
      <component glyphName="I" x="0" y="0" flags="0x204"/>
      <component glyphName="grave.cap" x="297" y="0" flags="0x4"/>
    </TTGlyph>
    <TTGlyph name="Itilde" xMin="-63" yMin="0" xMax="705" yMax="2011">
      <component glyphName="I" x="0" y="0" flags="0x204"/>
      <component glyphName="tilde.cap" x="271" y="0" flags="0x4"/>
    </TTGlyph>
    <TTGlyph name="J" xMin="68" yMin="-22" xMax="545" yMax="1571">
      <contour>
        <pt x="68" y="168" on="1"/>
        <pt x="176" y="170" on="0"/>
        <pt x="300" y="279" on="0"/>
        <pt x="300" y="377" on="1"/>
        <pt x="300" y="1571" on="1"/>
        <pt x="545" y="1571" on="1"/>
        <pt x="545" y="402" on="1"/>
        <pt x="545" y="303" on="0"/>
        <pt x="492" y="145" on="0"/>
        <pt x="376" y="36" on="0"/>
        <pt x="195" y="-22" on="0"/>
        <pt x="68" y="-22" on="1"/>
      </contour>
    </TTGlyph>
    <TTGlyph name="Jcircumflex" xMin="40" yMin="-22" xMax="804" yMax="2040">
      <component glyphName="J" x="0" y="0" flags="0x204"/>
      <component glyphName="circumflex.cap" x="372" y="0" flags="0x4"/>
    </TTGlyph>
    <TTGlyph name="K" xMin="214" yMin="0" xMax="1255" yMax="1571">
      <contour>
        <pt x="214" y="1571" on="1"/>
        <pt x="459" y="1571" on="1"/>
        <pt x="459" y="775" on="1"/>
        <pt x="951" y="1571" on="1"/>
        <pt x="1204" y="1571" on="1"/>
        <pt x="778" y="904" on="1"/>
        <pt x="1255" y="1" on="1"/>
        <pt x="990" y="1" on="1"/>
        <pt x="634" y="699" on="1"/>
        <pt x="459" y="420" on="1"/>
        <pt x="459" y="0" on="1"/>
        <pt x="214" y="0" on="1"/>
      </contour>
    </TTGlyph>
    <TTGlyph name="Kcommaaccent" xMin="214" yMin="-520" xMax="1255" yMax="1571">
      <component glyphName="K" x="0" y="0" flags="0x204"/>
      <component glyphName="commaaccent" x="635" y="0" flags="0x4"/>
    </TTGlyph>
    <TTGlyph name="L" xMin="214" yMin="0" xMax="940" yMax="1571">
      <contour>
        <pt x="214" y="1571" on="1"/>
        <pt x="459" y="1571" on="1"/>
        <pt x="459" y="202" on="1"/>
        <pt x="940" y="202" on="1"/>
        <pt x="940" y="0" on="1"/>
        <pt x="214" y="0" on="1"/>
      </contour>
    </TTGlyph>
    <TTGlyph name="Ldot" xMin="214" yMin="0" xMax="1018" yMax="1571">
      <contour>
        <pt x="699" y="862" on="1"/>
        <pt x="699" y="930" on="0"/>
        <pt x="785" y="1013" on="0"/>
        <pt x="857" y="1013" on="1"/>
        <pt x="931" y="1013" on="0"/>
        <pt x="1018" y="930" on="0"/>
        <pt x="1018" y="862" on="1"/>
        <pt x="1018" y="794" on="0"/>
        <pt x="931" y="710" on="0"/>
        <pt x="857" y="710" on="1"/>
        <pt x="785" y="710" on="0"/>
        <pt x="699" y="794" on="0"/>
      </contour>
      <contour>
        <pt x="214" y="1571" on="1"/>
        <pt x="459" y="1571" on="1"/>
        <pt x="459" y="202" on="1"/>
        <pt x="940" y="202" on="1"/>
        <pt x="940" y="0" on="1"/>
        <pt x="214" y="0" on="1"/>
      </contour>
    </TTGlyph>
    <TTGlyph name="Lslash" xMin="25" yMin="0" xMax="940" yMax="1571">
      <contour>
        <pt x="214" y="631" on="1"/>
        <pt x="25" y="534" on="1"/>
        <pt x="25" y="711" on="1"/>
        <pt x="214" y="809" on="1"/>
        <pt x="214" y="1571" on="1"/>
        <pt x="459" y="1571" on="1"/>
        <pt x="459" y="936" on="1"/>
        <pt x="755" y="1089" on="1"/>
        <pt x="755" y="911" on="1"/>
        <pt x="459" y="758" on="1"/>
        <pt x="459" y="202" on="1"/>
        <pt x="940" y="202" on="1"/>
        <pt x="940" y="0" on="1"/>
        <pt x="214" y="0" on="1"/>
      </contour>
    </TTGlyph>
    <TTGlyph name="M" xMin="214" yMin="0" xMax="1562" yMax="1571">
      <contour>
        <pt x="214" y="1571" on="1"/>
        <pt x="539" y="1571" on="1"/>
        <pt x="820" y="913" on="1"/>
        <pt x="879" y="750" on="1"/>
        <pt x="898" y="750" on="1"/>
        <pt x="956" y="913" on="1"/>
        <pt x="1237" y="1571" on="1"/>
        <pt x="1562" y="1571" on="1"/>
        <pt x="1562" y="0" on="1"/>
        <pt x="1317" y="0" on="1"/>
        <pt x="1317" y="865" on="1"/>
        <pt x="1343" y="1265" on="1"/>
        <pt x="1332" y="1265" on="1"/>
        <pt x="944" y="381" on="1"/>
        <pt x="832" y="381" on="1"/>
        <pt x="433" y="1265" on="1"/>
        <pt x="422" y="1265" on="1"/>
        <pt x="459" y="865" on="1"/>
        <pt x="459" y="0" on="1"/>
        <pt x="214" y="0" on="1"/>
      </contour>
    </TTGlyph>
    <TTGlyph name="N" xMin="214" yMin="0" xMax="1277" yMax="1571">
      <contour>
        <pt x="214" y="1571" on="1"/>
        <pt x="420" y="1571" on="1"/>
        <pt x="979" y="575" on="1"/>
        <pt x="1047" y="393" on="1"/>
        <pt x="1059" y="393" on="1"/>
        <pt x="1032" y="702" on="1"/>
        <pt x="1032" y="1571" on="1"/>
        <pt x="1277" y="1571" on="1"/>
        <pt x="1277" y="0" on="1"/>
        <pt x="1073" y="0" on="1"/>
        <pt x="502" y="993" on="1"/>
        <pt x="445" y="1129" on="1"/>
        <pt x="433" y="1129" on="1"/>
        <pt x="459" y="763" on="1"/>
        <pt x="459" y="0" on="1"/>
        <pt x="214" y="0" on="1"/>
      </contour>
    </TTGlyph>
    <TTGlyph name="Nacute" xMin="214" yMin="0" xMax="1277" yMax="2012">
      <component glyphName="N" x="0" y="0" flags="0x204"/>
      <component glyphName="acute.cap" x="672" y="0" flags="0x4"/>
    </TTGlyph>
    <TTGlyph name="Ntilde" xMin="214" yMin="0" xMax="1277" yMax="2011">
      <component glyphName="N" x="0" y="0" flags="0x204"/>
      <component glyphName="tilde.cap" x="709" y="0" flags="0x4"/>
    </TTGlyph>
    <TTGlyph name="O" xMin="105" yMin="-22" xMax="1243" yMax="1593">
      <contour>
        <pt x="674" y="-22" on="1"/>
        <pt x="550" y="-22" on="0"/>
        <pt x="341" y="74" on="0"/>
        <pt x="190" y="273" on="0"/>
        <pt x="105" y="578" on="0"/>
        <pt x="105" y="787" on="1"/>
        <pt x="105" y="995" on="0"/>
        <pt x="190" y="1299" on="0"/>
        <pt x="341" y="1497" on="0"/>
        <pt x="550" y="1593" on="0"/>
        <pt x="674" y="1593" on="1"/>
        <pt x="797" y="1593" on="0"/>
        <pt x="1006" y="1497" on="0"/>
        <pt x="1158" y="1299" on="0"/>
        <pt x="1243" y="995" on="0"/>
        <pt x="1243" y="787" on="1"/>
        <pt x="1243" y="578" on="0"/>
        <pt x="1158" y="273" on="0"/>
        <pt x="1006" y="74" on="0"/>
        <pt x="797" y="-22" on="0"/>
      </contour>
      <contour>
        <pt x="674" y="185" on="1"/>
        <pt x="738" y="185" on="0"/>
        <pt x="854" y="252" on="0"/>
        <pt x="942" y="396" on="0"/>
        <pt x="994" y="624" on="0"/>
        <pt x="994" y="785" on="1"/>
        <pt x="994" y="947" on="0"/>
        <pt x="942" y="1176" on="0"/>
        <pt x="854" y="1322" on="0"/>
        <pt x="738" y="1390" on="0"/>
        <pt x="674" y="1390" on="1"/>
        <pt x="610" y="1390" on="0"/>
        <pt x="494" y="1322" on="0"/>
        <pt x="405" y="1176" on="0"/>
        <pt x="353" y="947" on="0"/>
        <pt x="353" y="785" on="1"/>
        <pt x="353" y="624" on="0"/>
        <pt x="405" y="396" on="0"/>
        <pt x="494" y="252" on="0"/>
        <pt x="610" y="185" on="0"/>
      </contour>
    </TTGlyph>
    <TTGlyph name="OE" xMin="105" yMin="-22" xMax="1686" yMax="1593">
      <contour>
        <pt x="674" y="-22" on="1"/>
        <pt x="550" y="-22" on="0"/>
        <pt x="341" y="74" on="0"/>
        <pt x="190" y="273" on="0"/>
        <pt x="105" y="577" on="0"/>
        <pt x="105" y="785" on="1"/>
        <pt x="105" y="995" on="0"/>
        <pt x="190" y="1300" on="0"/>
        <pt x="341" y="1498" on="0"/>
        <pt x="550" y="1593" on="0"/>
        <pt x="674" y="1593" on="1"/>
        <pt x="716" y="1593" on="0"/>
        <pt x="794" y="1582" on="0"/>
        <pt x="831" y="1571" on="1"/>
        <pt x="1639" y="1571" on="1"/>
        <pt x="1639" y="1373" on="1"/>
        <pt x="1050" y="1373" on="1"/>
        <pt x="1050" y="939" on="1"/>
        <pt x="1501" y="939" on="1"/>
        <pt x="1501" y="742" on="1"/>
        <pt x="1050" y="742" on="1"/>
        <pt x="1050" y="202" on="1"/>
        <pt x="1686" y="202" on="1"/>
        <pt x="1686" y="0" on="1"/>
        <pt x="832" y="0" on="1"/>
        <pt x="794" y="-11" on="0"/>
        <pt x="716" y="-22" on="0"/>
      </contour>
      <contour>
        <pt x="674" y="185" on="1"/>
        <pt x="708" y="185" on="0"/>
        <pt x="773" y="200" on="0"/>
        <pt x="803" y="219" on="1"/>
        <pt x="803" y="1354" on="1"/>
        <pt x="773" y="1374" on="0"/>
        <pt x="708" y="1390" on="0"/>
        <pt x="674" y="1390" on="1"/>
        <pt x="612" y="1390" on="0"/>
        <pt x="500" y="1322" on="0"/>
        <pt x="415" y="1176" on="0"/>
        <pt x="365" y="947" on="0"/>
        <pt x="365" y="785" on="1"/>
        <pt x="365" y="624" on="0"/>
        <pt x="415" y="396" on="0"/>
        <pt x="500" y="252" on="0"/>
        <pt x="612" y="185" on="0"/>
      </contour>
    </TTGlyph>
    <TTGlyph name="Oacute" xMin="105" yMin="-22" xMax="1243" yMax="2012">
      <component glyphName="O" x="0" y="0" flags="0x204"/>
      <component glyphName="acute.cap" x="588" y="0" flags="0x4"/>
    </TTGlyph>
    <TTGlyph name="Ocircumflex" xMin="105" yMin="-22" xMax="1243" yMax="2040">
      <component glyphName="O" x="0" y="0" flags="0x204"/>
      <component glyphName="circumflex.cap" x="624" y="0" flags="0x4"/>
    </TTGlyph>
    <TTGlyph name="Odieresis" xMin="105" yMin="-22" xMax="1243" yMax="2011">
      <component glyphName="O" x="0" y="0" flags="0x204"/>
      <component glyphName="dieresis.cap" x="624" y="0" flags="0x4"/>
    </TTGlyph>
    <TTGlyph name="Ograve" xMin="105" yMin="-22" xMax="1243" yMax="2012">
      <component glyphName="O" x="0" y="0" flags="0x204"/>
      <component glyphName="grave.cap" x="650" y="0" flags="0x4"/>
    </TTGlyph>
    <TTGlyph name="Oslash" xMin="105" yMin="-171" xMax="1243" yMax="1697">
      <contour>
        <pt x="313" y="119" on="1"/>
        <pt x="215" y="216" on="0"/>
        <pt x="105" y="546" on="0"/>
        <pt x="105" y="787" on="1"/>
        <pt x="105" y="995" on="0"/>
        <pt x="190" y="1299" on="0"/>
        <pt x="341" y="1497" on="0"/>
        <pt x="550" y="1593" on="0"/>
        <pt x="674" y="1593" on="1"/>
        <pt x="746" y="1593" on="0"/>
        <pt x="877" y="1561" on="0"/>
        <pt x="935" y="1528" on="1"/>
        <pt x="1010" y="1697" on="1"/>
        <pt x="1166" y="1697" on="1"/>
        <pt x="1050" y="1436" on="1"/>
        <pt x="1140" y="1338" on="0"/>
        <pt x="1243" y="1016" on="0"/>
        <pt x="1243" y="787" on="1"/>
        <pt x="1243" y="578" on="0"/>
        <pt x="1158" y="273" on="0"/>
        <pt x="1006" y="74" on="0"/>
        <pt x="797" y="-22" on="0"/>
        <pt x="674" y="-22" on="1"/>
        <pt x="538" y="-22" on="0"/>
        <pt x="428" y="34" on="1"/>
        <pt x="337" y="-171" on="1"/>
        <pt x="185" y="-171" on="1"/>
      </contour>
      <contour>
        <pt x="843" y="1319" on="1"/>
        <pt x="805" y="1355" on="0"/>
        <pt x="720" y="1390" on="0"/>
        <pt x="674" y="1390" on="1"/>
        <pt x="610" y="1390" on="0"/>
        <pt x="494" y="1322" on="0"/>
        <pt x="405" y="1176" on="0"/>
        <pt x="353" y="947" on="0"/>
        <pt x="353" y="785" on="1"/>
        <pt x="353" y="648" on="0"/>
        <pt x="391" y="443" on="0"/>
        <pt x="424" y="371" on="1"/>
      </contour>
      <contour>
        <pt x="520" y="241" on="1"/>
        <pt x="555" y="212" on="0"/>
        <pt x="632" y="185" on="0"/>
        <pt x="674" y="185" on="1"/>
        <pt x="738" y="185" on="0"/>
        <pt x="854" y="252" on="0"/>
        <pt x="942" y="396" on="0"/>
        <pt x="994" y="624" on="0"/>
        <pt x="994" y="785" on="1"/>
        <pt x="994" y="911" on="0"/>
        <pt x="963" y="1103" on="0"/>
        <pt x="934" y="1175" on="1"/>
      </contour>
    </TTGlyph>
    <TTGlyph name="Otilde" xMin="105" yMin="-22" xMax="1243" yMax="2011">
      <component glyphName="O" x="0" y="0" flags="0x204"/>
      <component glyphName="tilde.cap" x="625" y="0" flags="0x4"/>
    </TTGlyph>
    <TTGlyph name="P" xMin="207" yMin="0" xMax="1184" yMax="1577">
      <contour>
        <pt x="207" y="1571" on="1"/>
        <pt x="263" y="1573" on="0"/>
        <pt x="355" y="1576" on="0"/>
        <pt x="442" y="1577" on="0"/>
        <pt x="528" y="1577" on="0"/>
        <pt x="578" y="1577" on="1"/>
        <pt x="744" y="1577" on="0"/>
        <pt x="975" y="1506" on="0"/>
        <pt x="1119" y="1377" on="0"/>
        <pt x="1184" y="1198" on="0"/>
        <pt x="1184" y="1090" on="1"/>
        <pt x="1184" y="979" on="0"/>
        <pt x="1116" y="791" on="0"/>
        <pt x="969" y="654" on="0"/>
        <pt x="737" y="576" on="0"/>
        <pt x="572" y="576" on="1"/>
        <pt x="544" y="576" on="0"/>
        <pt x="485" y="578" on="0"/>
        <pt x="453" y="580" on="1"/>
        <pt x="453" y="0" on="1"/>
        <pt x="207" y="0" on="1"/>
      </contour>
      <contour>
        <pt x="453" y="792" on="1"/>
        <pt x="491" y="787" on="0"/>
        <pt x="559" y="782" on="0"/>
        <pt x="591" y="782" on="1"/>
        <pt x="690" y="782" on="0"/>
        <pt x="822" y="830" on="0"/>
        <pt x="902" y="911" on="0"/>
        <pt x="936" y="1020" on="0"/>
        <pt x="936" y="1082" on="1"/>
        <pt x="936" y="1148" on="0"/>
        <pt x="897" y="1257" on="0"/>
        <pt x="808" y="1335" on="0"/>
        <pt x="662" y="1377" on="0"/>
        <pt x="556" y="1377" on="1"/>
        <pt x="532" y="1377" on="0"/>
        <pt x="480" y="1375" on="0"/>
        <pt x="453" y="1373" on="1"/>
      </contour>
    </TTGlyph>
    <TTGlyph name="Q" xMin="105" yMin="-394" xMax="1243" yMax="1593">
      <contour>
        <pt x="564" y="93" on="1"/>
        <pt x="769" y="93" on="1"/>
        <pt x="769" y="-33" on="1"/>
        <pt x="769" y="-72" on="0"/>
        <pt x="782" y="-131" on="0"/>
        <pt x="817" y="-171" on="0"/>
        <pt x="876" y="-192" on="0"/>
        <pt x="921" y="-192" on="1"/>
        <pt x="964" y="-192" on="0"/>
        <pt x="1015" y="-176" on="1"/>
        <pt x="1015" y="-374" on="1"/>
        <pt x="976" y="-383" on="0"/>
        <pt x="904" y="-394" on="0"/>
        <pt x="858" y="-394" on="1"/>
        <pt x="564" y="-394" on="0"/>
        <pt x="564" y="-63" on="1"/>
      </contour>
      <contour>
        <pt x="674" y="-22" on="1"/>
        <pt x="550" y="-22" on="0"/>
        <pt x="341" y="74" on="0"/>
        <pt x="190" y="273" on="0"/>
        <pt x="105" y="578" on="0"/>
        <pt x="105" y="787" on="1"/>
        <pt x="105" y="995" on="0"/>
        <pt x="190" y="1299" on="0"/>
        <pt x="341" y="1497" on="0"/>
        <pt x="550" y="1593" on="0"/>
        <pt x="674" y="1593" on="1"/>
        <pt x="797" y="1593" on="0"/>
        <pt x="1006" y="1497" on="0"/>
        <pt x="1158" y="1299" on="0"/>
        <pt x="1243" y="995" on="0"/>
        <pt x="1243" y="787" on="1"/>
        <pt x="1243" y="578" on="0"/>
        <pt x="1158" y="273" on="0"/>
        <pt x="1006" y="74" on="0"/>
        <pt x="797" y="-22" on="0"/>
      </contour>
      <contour>
        <pt x="674" y="185" on="1"/>
        <pt x="738" y="185" on="0"/>
        <pt x="854" y="252" on="0"/>
        <pt x="942" y="396" on="0"/>
        <pt x="994" y="624" on="0"/>
        <pt x="994" y="785" on="1"/>
        <pt x="994" y="947" on="0"/>
        <pt x="942" y="1176" on="0"/>
        <pt x="854" y="1322" on="0"/>
        <pt x="738" y="1390" on="0"/>
        <pt x="674" y="1390" on="1"/>
        <pt x="610" y="1390" on="0"/>
        <pt x="494" y="1322" on="0"/>
        <pt x="405" y="1176" on="0"/>
        <pt x="353" y="947" on="0"/>
        <pt x="353" y="785" on="1"/>
        <pt x="353" y="624" on="0"/>
        <pt x="405" y="396" on="0"/>
        <pt x="494" y="252" on="0"/>
        <pt x="610" y="185" on="0"/>
      </contour>
    </TTGlyph>
    <TTGlyph name="R" xMin="207" yMin="0" xMax="1214" yMax="1577">
      <contour>
        <pt x="207" y="1571" on="1"/>
        <pt x="263" y="1573" on="0"/>
        <pt x="355" y="1576" on="0"/>
        <pt x="442" y="1577" on="0"/>
        <pt x="528" y="1577" on="0"/>
        <pt x="578" y="1577" on="1"/>
        <pt x="744" y="1577" on="0"/>
        <pt x="975" y="1505" on="0"/>
        <pt x="1119" y="1378" on="0"/>
        <pt x="1184" y="1204" on="0"/>
        <pt x="1184" y="1101" on="1"/>
        <pt x="1184" y="943" on="0"/>
        <pt x="1033" y="708" on="0"/>
        <pt x="874" y="650" on="1"/>
        <pt x="1214" y="1" on="1"/>
        <pt x="944" y="1" on="1"/>
        <pt x="635" y="604" on="1"/>
        <pt x="617" y="603" on="0"/>
        <pt x="579" y="602" on="0"/>
        <pt x="559" y="602" on="1"/>
        <pt x="507" y="602" on="0"/>
        <pt x="453" y="605" on="1"/>
        <pt x="453" y="0" on="1"/>
        <pt x="207" y="0" on="1"/>
      </contour>
      <contour>
        <pt x="453" y="815" on="1"/>
        <pt x="491" y="810" on="0"/>
        <pt x="561" y="805" on="0"/>
        <pt x="593" y="805" on="1"/>
        <pt x="691" y="805" on="0"/>
        <pt x="825" y="849" on="0"/>
        <pt x="907" y="926" on="0"/>
        <pt x="943" y="1030" on="0"/>
        <pt x="943" y="1089" on="1"/>
        <pt x="943" y="1152" on="0"/>
        <pt x="903" y="1257" on="0"/>
        <pt x="813" y="1333" on="0"/>
        <pt x="670" y="1376" on="0"/>
        <pt x="567" y="1377" on="1"/>
        <pt x="540" y="1377" on="0"/>
        <pt x="484" y="1375" on="0"/>
        <pt x="453" y="1373" on="1"/>
      </contour>
    </TTGlyph>
    <TTGlyph name="Racute" xMin="207" yMin="0" xMax="1214" yMax="2012">
      <component glyphName="R" x="0" y="0" flags="0x204"/>
      <component glyphName="acute.cap" x="546" y="0" flags="0x4"/>
    </TTGlyph>
    <TTGlyph name="Rcaron" xMin="207" yMin="0" xMax="1214" yMax="2040">
      <component glyphName="R" x="0" y="0" flags="0x204"/>
      <component glyphName="caron.cap" x="583" y="0" flags="0x4"/>
    </TTGlyph>
    <TTGlyph name="Rcommaaccent" xMin="207" yMin="-520" xMax="1214" yMax="1577">
      <component glyphName="R" x="0" y="0" flags="0x204"/>
      <component glyphName="commaaccent" x="579" y="0" flags="0x4"/>
    </TTGlyph>
    <TTGlyph name="S" xMin="131" yMin="-22" xMax="947" yMax="1591">
      <contour>
        <pt x="138" y="294" on="1"/>
        <pt x="225" y="234" on="0"/>
        <pt x="386" y="186" on="0"/>
        <pt x="463" y="186" on="1"/>
        <pt x="531" y="186" on="0"/>
        <pt x="625" y="219" on="0"/>
        <pt x="682" y="272" on="0"/>
        <pt x="707" y="339" on="0"/>
        <pt x="707" y="373" on="1"/>
        <pt x="707" y="428" on="0"/>
        <pt x="657" y="518" on="0"/>
        <pt x="576" y="600" on="0"/>
        <pt x="473" y="676" on="0"/>
        <pt x="365" y="758" on="0"/>
        <pt x="261" y="849" on="0"/>
        <pt x="180" y="960" on="0"/>
        <pt x="131" y="1095" on="0"/>
        <pt x="131" y="1179" on="1"/>
        <pt x="131" y="1275" on="0"/>
        <pt x="198" y="1428" on="0"/>
        <pt x="316" y="1534" on="0"/>
        <pt x="478" y="1591" on="0"/>
        <pt x="573" y="1591" on="1"/>
        <pt x="649" y="1591" on="0"/>
        <pt x="801" y="1558" on="0"/>
        <pt x="857" y="1530" on="1"/>
        <pt x="856" y="1298" on="1"/>
        <pt x="784" y="1345" on="0"/>
        <pt x="656" y="1385" on="0"/>
        <pt x="593" y="1385" on="1"/>
        <pt x="537" y="1385" on="0"/>
        <pt x="454" y="1355" on="0"/>
        <pt x="399" y="1303" on="0"/>
        <pt x="372" y="1234" on="0"/>
        <pt x="372" y="1194" on="1"/>
        <pt x="372" y="1136" on="0"/>
        <pt x="421" y="1043" on="0"/>
        <pt x="502" y="961" on="0"/>
        <pt x="606" y="886" on="0"/>
        <pt x="713" y="806" on="0"/>
        <pt x="817" y="718" on="0"/>
        <pt x="898" y="611" on="0"/>
        <pt x="947" y="479" on="0"/>
        <pt x="947" y="396" on="1"/>
        <pt x="947" y="303" on="0"/>
        <pt x="882" y="149" on="0"/>
        <pt x="761" y="39" on="0"/>
        <pt x="588" y="-22" on="0"/>
        <pt x="481" y="-22" on="1"/>
        <pt x="437" y="-22" on="0"/>
        <pt x="343" y="-11" on="0"/>
        <pt x="252" y="9" on="0"/>
        <pt x="169" y="38" on="0"/>
        <pt x="137" y="57" on="1"/>
      </contour>
    </TTGlyph>
    <TTGlyph name="Scaron" xMin="131" yMin="-22" xMax="947" yMax="2040">
      <component glyphName="S" x="0" y="0" flags="0x204"/>
      <component glyphName="caron.cap" x="489" y="0" flags="0x4"/>
    </TTGlyph>
    <TTGlyph name="T" xMin="66" yMin="0" xMax="1054" yMax="1571">
      <contour>
        <pt x="438" y="1369" on="1"/>
        <pt x="66" y="1369" on="1"/>
        <pt x="66" y="1571" on="1"/>
        <pt x="1054" y="1571" on="1"/>
        <pt x="1054" y="1369" on="1"/>
        <pt x="683" y="1369" on="1"/>
        <pt x="683" y="0" on="1"/>
        <pt x="438" y="0" on="1"/>
      </contour>
    </TTGlyph>
    <TTGlyph name="Thorn" xMin="214" yMin="0" xMax="1203" yMax="1571">
      <contour>
        <pt x="214" y="1571" on="1"/>
        <pt x="462" y="1571" on="1"/>
        <pt x="462" y="1279" on="1"/>
        <pt x="596" y="1279" on="1"/>
        <pt x="762" y="1279" on="0"/>
        <pt x="994" y="1206" on="0"/>
        <pt x="1138" y="1076" on="0"/>
        <pt x="1203" y="896" on="0"/>
        <pt x="1203" y="788" on="1"/>
        <pt x="1203" y="668" on="0"/>
        <pt x="1122" y="467" on="0"/>
        <pt x="944" y="330" on="0"/>
        <pt x="662" y="267" on="0"/>
        <pt x="462" y="285" on="1"/>
        <pt x="462" y="0" on="1"/>
        <pt x="214" y="0" on="1"/>
      </contour>
      <contour>
        <pt x="462" y="495" on="1"/>
        <pt x="605" y="475" on="0"/>
        <pt x="795" y="505" on="0"/>
        <pt x="908" y="586" on="0"/>
        <pt x="954" y="708" on="0"/>
        <pt x="954" y="780" on="1"/>
        <pt x="954" y="854" on="0"/>
        <pt x="905" y="972" on="0"/>
        <pt x="790" y="1050" on="0"/>
        <pt x="601" y="1081" on="0"/>
        <pt x="462" y="1069" on="1"/>
      </contour>
    </TTGlyph>
    <TTGlyph name="U" xMin="206" yMin="-22" xMax="1240" yMax="1571">
      <contour>
        <pt x="206" y="1571" on="1"/>
        <pt x="454" y="1571" on="1"/>
        <pt x="454" y="503" on="1"/>
        <pt x="454" y="420" on="0"/>
        <pt x="491" y="300" on="0"/>
        <pt x="560" y="222" on="0"/>
        <pt x="660" y="185" on="0"/>
        <pt x="723" y="185" on="1"/>
        <pt x="786" y="185" on="0"/>
        <pt x="886" y="222" on="0"/>
        <pt x="956" y="300" on="0"/>
        <pt x="993" y="420" on="0"/>
        <pt x="993" y="503" on="1"/>
        <pt x="993" y="1571" on="1"/>
        <pt x="1240" y="1571" on="1"/>
        <pt x="1240" y="528" on="1"/>
        <pt x="1240" y="397" on="0"/>
        <pt x="1165" y="193" on="0"/>
        <pt x="1029" y="52" on="0"/>
        <pt x="838" y="-22" on="0"/>
        <pt x="723" y="-22" on="1"/>
        <pt x="607" y="-22" on="0"/>
        <pt x="417" y="52" on="0"/>
        <pt x="281" y="193" on="0"/>
        <pt x="206" y="397" on="0"/>
        <pt x="206" y="528" on="1"/>
      </contour>
    </TTGlyph>
    <TTGlyph name="Uacute" xMin="206" yMin="-22" xMax="1240" yMax="2012">
      <component glyphName="U" x="0" y="0" flags="0x204"/>
      <component glyphName="acute.cap" x="636" y="0" flags="0x4"/>
    </TTGlyph>
    <TTGlyph name="Ucircumflex" xMin="206" yMin="-22" xMax="1240" yMax="2040">
      <component glyphName="U" x="0" y="0" flags="0x204"/>
      <component glyphName="circumflex.cap" x="673" y="0" flags="0x4"/>
    </TTGlyph>
    <TTGlyph name="Udieresis" xMin="206" yMin="-22" xMax="1240" yMax="2011">
      <component glyphName="U" x="0" y="0" flags="0x204"/>
      <component glyphName="dieresis.cap" x="673" y="0" flags="0x4"/>
    </TTGlyph>
    <TTGlyph name="Ugrave" xMin="206" yMin="-22" xMax="1240" yMax="2012">
      <component glyphName="U" x="0" y="0" flags="0x204"/>
      <component glyphName="grave.cap" x="699" y="0" flags="0x4"/>
    </TTGlyph>
    <TTGlyph name="V" xMin="28" yMin="0" xMax="1174" yMax="1571">
      <contour>
        <pt x="28" y="1571" on="1"/>
        <pt x="288" y="1571" on="1"/>
        <pt x="613" y="285" on="1"/>
        <pt x="648" y="285" on="1"/>
        <pt x="915" y="1571" on="1"/>
        <pt x="1174" y="1571" on="1"/>
        <pt x="803" y="0" on="1"/>
        <pt x="459" y="0" on="1"/>
      </contour>
    </TTGlyph>
    <TTGlyph name="W" xMin="41" yMin="0" xMax="1865" yMax="1571">
      <contour>
        <pt x="41" y="1571" on="1"/>
        <pt x="312" y="1571" on="1"/>
        <pt x="523" y="242" on="1"/>
        <pt x="557" y="242" on="1"/>
        <pt x="837" y="1571" on="1"/>
        <pt x="1077" y="1571" on="1"/>
        <pt x="1357" y="242" on="1"/>
        <pt x="1390" y="242" on="1"/>
        <pt x="1599" y="1571" on="1"/>
        <pt x="1865" y="1571" on="1"/>
        <pt x="1542" y="0" on="1"/>
        <pt x="1189" y="0" on="1"/>
        <pt x="960" y="1113" on="1"/>
        <pt x="946" y="1113" on="1"/>
        <pt x="715" y="0" on="1"/>
        <pt x="361" y="0" on="1"/>
      </contour>
    </TTGlyph>
    <TTGlyph name="X" xMin="25" yMin="1" xMax="1219" yMax="1571">
      <contour>
        <pt x="474" y="820" on="1"/>
        <pt x="39" y="1571" on="1"/>
        <pt x="312" y="1571" on="1"/>
        <pt x="623" y="1027" on="1"/>
        <pt x="890" y="1571" on="1"/>
        <pt x="1151" y="1571" on="1"/>
        <pt x="745" y="819" on="1"/>
        <pt x="1219" y="1" on="1"/>
        <pt x="945" y="1" on="1"/>
        <pt x="599" y="610" on="1"/>
        <pt x="284" y="1" on="1"/>
        <pt x="25" y="1" on="1"/>
      </contour>
    </TTGlyph>
    <TTGlyph name="Y" xMin="22" yMin="0" xMax="1180" yMax="1571">
      <contour>
        <pt x="498" y="636" on="1"/>
        <pt x="22" y="1571" on="1"/>
        <pt x="282" y="1571" on="1"/>
        <pt x="605" y="878" on="1"/>
        <pt x="633" y="878" on="1"/>
        <pt x="921" y="1571" on="1"/>
        <pt x="1180" y="1571" on="1"/>
        <pt x="743" y="634" on="1"/>
        <pt x="743" y="0" on="1"/>
        <pt x="498" y="0" on="1"/>
      </contour>
    </TTGlyph>
    <TTGlyph name="Yacute" xMin="22" yMin="0" xMax="1180" yMax="2012">
      <component glyphName="Y" x="0" y="0" flags="0x204"/>
      <component glyphName="acute.cap" x="538" y="0" flags="0x4"/>
    </TTGlyph>
    <TTGlyph name="Ydieresis" xMin="22" yMin="0" xMax="1180" yMax="2011">
      <component glyphName="Y" x="0" y="0" flags="0x204"/>
      <component glyphName="dieresis.cap" x="575" y="0" flags="0x4"/>
    </TTGlyph>
    <TTGlyph name="Z" xMin="87" yMin="0" xMax="1098" yMax="1571">
      <contour>
        <pt x="744" y="1369" on="1"/>
        <pt x="163" y="1369" on="1"/>
        <pt x="163" y="1571" on="1"/>
        <pt x="1098" y="1571" on="1"/>
        <pt x="447" y="202" on="1"/>
        <pt x="1074" y="202" on="1"/>
        <pt x="1074" y="0" on="1"/>
        <pt x="87" y="0" on="1"/>
      </contour>
    </TTGlyph>
    <TTGlyph name="Zcaron" xMin="87" yMin="0" xMax="1098" yMax="2040">
      <component glyphName="Z" x="0" y="0" flags="0x204"/>
      <component glyphName="caron.cap" x="559" y="0" flags="0x4"/>
    </TTGlyph>
    <TTGlyph name="a" xMin="85" yMin="-23" xMax="1003" yMax="1158">
      <contour>
        <pt x="85" y="308" on="1"/>
        <pt x="85" y="492" on="0"/>
        <pt x="340" y="685" on="0"/>
        <pt x="588" y="685" on="1"/>
        <pt x="732" y="685" on="1"/>
        <pt x="732" y="747" on="1"/>
        <pt x="732" y="802" on="0"/>
        <pt x="707" y="885" on="0"/>
        <pt x="652" y="941" on="0"/>
        <pt x="563" y="970" on="0"/>
        <pt x="499" y="970" on="1"/>
        <pt x="455" y="970" on="0"/>
        <pt x="377" y="956" on="0"/>
        <pt x="301" y="932" on="0"/>
        <pt x="222" y="898" on="0"/>
        <pt x="178" y="879" on="1"/>
        <pt x="178" y="1078" on="1"/>
        <pt x="217" y="1097" on="0"/>
        <pt x="299" y="1127" on="0"/>
        <pt x="391" y="1148" on="0"/>
        <pt x="495" y="1158" on="0"/>
        <pt x="556" y="1158" on="1"/>
        <pt x="767" y="1158" on="0"/>
        <pt x="974" y="944" on="0"/>
        <pt x="974" y="739" on="1"/>
        <pt x="974" y="260" on="1"/>
        <pt x="974" y="223" on="0"/>
        <pt x="974" y="159" on="0"/>
        <pt x="979" y="97" on="0"/>
        <pt x="991" y="34" on="0"/>
        <pt x="1003" y="0" on="1"/>
        <pt x="756" y="0" on="1"/>
        <pt x="746" y="27" on="0"/>
        <pt x="736" y="89" on="0"/>
        <pt x="734" y="121" on="1"/>
        <pt x="681" y="55" on="0"/>
        <pt x="530" y="-23" on="0"/>
        <pt x="429" y="-23" on="1"/>
        <pt x="351" y="-23" on="0"/>
        <pt x="224" y="31" on="0"/>
        <pt x="134" y="122" on="0"/>
        <pt x="85" y="242" on="0"/>
      </contour>
      <contour>
        <pt x="330" y="341" on="1"/>
        <pt x="330" y="308" on="0"/>
        <pt x="350" y="245" on="0"/>
        <pt x="393" y="195" on="0"/>
        <pt x="461" y="165" on="0"/>
        <pt x="509" y="165" on="1"/>
        <pt x="570" y="165" on="0"/>
        <pt x="686" y="215" on="0"/>
        <pt x="732" y="266" on="1"/>
        <pt x="732" y="522" on="1"/>
        <pt x="597" y="522" on="1"/>
        <pt x="522" y="522" on="0"/>
        <pt x="420" y="496" on="0"/>
        <pt x="357" y="448" on="0"/>
        <pt x="330" y="381" on="0"/>
      </contour>
    </TTGlyph>
    <TTGlyph name="aacute" xMin="85" yMin="-23" xMax="1003" yMax="1723">
      <component glyphName="a" x="0" y="0" flags="0x204"/>
      <component glyphName="acute" x="479" y="0" flags="0x4"/>
    </TTGlyph>
    <TTGlyph name="acircumflex" xMin="85" yMin="-23" xMax="1003" yMax="1720">
      <component glyphName="a" x="0" y="0" flags="0x204"/>
      <component glyphName="circumflex" x="488" y="0" flags="0x4"/>
    </TTGlyph>
    <TTGlyph name="acute" xMin="-61" yMin="1303" xMax="488" yMax="1723">
      <contour>
        <pt x="205" y="1723" on="1"/>
        <pt x="488" y="1723" on="1"/>
        <pt x="154" y="1303" on="1"/>
        <pt x="-61" y="1303" on="1"/>
      </contour>
    </TTGlyph>
    <TTGlyph name="acute.cap" xMin="-21" yMin="1711" xMax="458" yMax="2012">
      <contour>
        <pt x="175" y="2012" on="1"/>
        <pt x="458" y="2012" on="1"/>
        <pt x="194" y="1711" on="1"/>
        <pt x="-21" y="1711" on="1"/>
      </contour>
    </TTGlyph>
    <TTGlyph name="adieresis" xMin="85" yMin="-23" xMax="1003" yMax="1688">
      <component glyphName="a" x="0" y="0" flags="0x204"/>
      <component glyphName="dieresis" x="488" y="0" flags="0x4"/>
    </TTGlyph>
    <TTGlyph name="ae" xMin="85" yMin="-23" xMax="1644" yMax="1158">
      <contour>
        <pt x="85" y="308" on="1"/>
        <pt x="85" y="492" on="0"/>
        <pt x="336" y="685" on="0"/>
        <pt x="584" y="685" on="1"/>
        <pt x="732" y="685" on="1"/>
        <pt x="732" y="735" on="1"/>
        <pt x="732" y="801" on="0"/>
        <pt x="705" y="891" on="0"/>
        <pt x="645" y="946" on="0"/>
        <pt x="550" y="970" on="0"/>
        <pt x="483" y="970" on="1"/>
        <pt x="411" y="970" on="0"/>
        <pt x="263" y="918" on="0"/>
        <pt x="178" y="879" on="1"/>
        <pt x="178" y="1078" on="1"/>
        <pt x="254" y="1117" on="0"/>
        <pt x="427" y="1158" on="0"/>
        <pt x="529" y="1158" on="1"/>
        <pt x="772" y="1158" on="0"/>
        <pt x="880" y="1021" on="1"/>
        <pt x="948" y="1090" on="0"/>
        <pt x="1123" y="1157" on="0"/>
        <pt x="1220" y="1157" on="1"/>
        <pt x="1312" y="1157" on="0"/>
        <pt x="1468" y="1098" on="0"/>
        <pt x="1581" y="980" on="0"/>
        <pt x="1644" y="803" on="0"/>
        <pt x="1644" y="686" on="1"/>
        <pt x="1644" y="634" on="0"/>
        <pt x="1629" y="534" on="0"/>
        <pt x="1612" y="488" on="1"/>
        <pt x="972" y="488" on="1"/>
        <pt x="984" y="385" on="0"/>
        <pt x="1044" y="259" on="0"/>
        <pt x="1129" y="189" on="0"/>
        <pt x="1234" y="165" on="0"/>
        <pt x="1293" y="165" on="1"/>
        <pt x="1372" y="165" on="0"/>
        <pt x="1500" y="207" on="0"/>
        <pt x="1563" y="242" on="1"/>
        <pt x="1563" y="50" on="1"/>
        <pt x="1485" y="10" on="0"/>
        <pt x="1327" y="-23" on="0"/>
        <pt x="1249" y="-23" on="1"/>
        <pt x="1114" y="-23" on="0"/>
        <pt x="909" y="73" on="0"/>
        <pt x="843" y="164" on="1"/>
        <pt x="807" y="121" on="0"/>
        <pt x="713" y="52" on="0"/>
        <pt x="604" y="3" on="0"/>
        <pt x="485" y="-23" on="0"/>
        <pt x="424" y="-23" on="1"/>
        <pt x="347" y="-23" on="0"/>
        <pt x="221" y="31" on="0"/>
        <pt x="133" y="122" on="0"/>
        <pt x="85" y="242" on="0"/>
      </contour>
      <contour>
        <pt x="1407" y="651" on="1"/>
        <pt x="1417" y="723" on="0"/>
        <pt x="1402" y="841" on="0"/>
        <pt x="1352" y="925" on="0"/>
        <pt x="1269" y="970" on="0"/>
        <pt x="1212" y="970" on="1"/>
        <pt x="1159" y="970" on="0"/>
        <pt x="1070" y="929" on="0"/>
        <pt x="1005" y="848" on="0"/>
        <pt x="967" y="729" on="0"/>
        <pt x="965" y="651" on="1"/>
      </contour>
      <contour>
        <pt x="325" y="341" on="1"/>
        <pt x="325" y="308" on="0"/>
        <pt x="345" y="245" on="0"/>
        <pt x="389" y="195" on="0"/>
        <pt x="456" y="165" on="0"/>
        <pt x="504" y="165" on="1"/>
        <pt x="577" y="165" on="0"/>
        <pt x="719" y="237" on="0"/>
        <pt x="769" y="310" on="1"/>
        <pt x="738" y="403" on="0"/>
        <pt x="732" y="522" on="1"/>
        <pt x="592" y="522" on="1"/>
        <pt x="517" y="522" on="0"/>
        <pt x="415" y="496" on="0"/>
        <pt x="352" y="448" on="0"/>
        <pt x="325" y="381" on="0"/>
      </contour>
    </TTGlyph>
    <TTGlyph name="agrave" xMin="78" yMin="-23" xMax="1003" yMax="1723">
      <component glyphName="a" x="0" y="0" flags="0x204"/>
      <component glyphName="grave" x="466" y="0" flags="0x4"/>
    </TTGlyph>
    <TTGlyph name="ampersand" xMin="156" yMin="-23" xMax="1466" yMax="1594">
      <contour>
        <pt x="156" y="435" on="1"/>
        <pt x="156" y="580" on="0"/>
        <pt x="310" y="796" on="0"/>
        <pt x="457" y="860" on="1"/>
        <pt x="394" y="901" on="0"/>
        <pt x="310" y="992" on="0"/>
        <pt x="258" y="1085" on="0"/>
        <pt x="236" y="1177" on="0"/>
        <pt x="236" y="1220" on="1"/>
        <pt x="236" y="1295" on="0"/>
        <pt x="298" y="1430" on="0"/>
        <pt x="416" y="1533" on="0"/>
        <pt x="587" y="1594" on="0"/>
        <pt x="697" y="1594" on="1"/>
        <pt x="783" y="1594" on="0"/>
        <pt x="915" y="1559" on="0"/>
        <pt x="960" y="1534" on="1"/>
        <pt x="960" y="1290" on="1"/>
        <pt x="852" y="1389" on="0"/>
        <pt x="717" y="1389" on="1"/>
        <pt x="667" y="1389" on="0"/>
        <pt x="585" y="1364" on="0"/>
        <pt x="527" y="1314" on="0"/>
        <pt x="494" y="1239" on="0"/>
        <pt x="494" y="1190" on="1"/>
        <pt x="494" y="1139" on="0"/>
        <pt x="534" y="1039" on="0"/>
        <pt x="624" y="959" on="0"/>
        <pt x="772" y="910" on="0"/>
        <pt x="880" y="910" on="1"/>
        <pt x="1010" y="910" on="1"/>
        <pt x="1010" y="1135" on="1"/>
        <pt x="1255" y="1135" on="1"/>
        <pt x="1255" y="910" on="1"/>
        <pt x="1412" y="910" on="1"/>
        <pt x="1412" y="727" on="1"/>
        <pt x="1255" y="727" on="1"/>
        <pt x="1255" y="329" on="1"/>
        <pt x="1255" y="254" on="0"/>
        <pt x="1322" y="185" on="0"/>
        <pt x="1379" y="185" on="1"/>
        <pt x="1398" y="185" on="0"/>
        <pt x="1442" y="191" on="0"/>
        <pt x="1466" y="199" on="1"/>
        <pt x="1466" y="-1" on="1"/>
        <pt x="1429" y="-12" on="0"/>
        <pt x="1361" y="-23" on="0"/>
        <pt x="1320" y="-23" on="1"/>
        <pt x="1240" y="-23" on="0"/>
        <pt x="1119" y="23" on="0"/>
        <pt x="1078" y="71" on="1"/>
        <pt x="993" y="26" on="0"/>
        <pt x="802" y="-23" on="0"/>
        <pt x="691" y="-23" on="1"/>
        <pt x="551" y="-23" on="0"/>
        <pt x="348" y="54" on="0"/>
        <pt x="218" y="182" on="0"/>
        <pt x="156" y="347" on="0"/>
      </contour>
      <contour>
        <pt x="414" y="446" on="1"/>
        <pt x="414" y="389" on="0"/>
        <pt x="451" y="294" on="0"/>
        <pt x="528" y="224" on="0"/>
        <pt x="644" y="185" on="0"/>
        <pt x="723" y="185" on="1"/>
        <pt x="808" y="185" on="0"/>
        <pt x="952" y="227" on="0"/>
        <pt x="1011" y="259" on="1"/>
        <pt x="1010" y="269" on="0"/>
        <pt x="1010" y="290" on="0"/>
        <pt x="1010" y="301" on="1"/>
        <pt x="1010" y="727" on="1"/>
        <pt x="755" y="727" on="1"/>
        <pt x="674" y="727" on="0"/>
        <pt x="547" y="687" on="0"/>
        <pt x="460" y="613" on="0"/>
        <pt x="414" y="510" on="0"/>
      </contour>
    </TTGlyph>
    <TTGlyph name="aring" xMin="85" yMin="-23" xMax="1003" yMax="1822">
      <component glyphName="a" x="0" y="0" flags="0x204"/>
      <component glyphName="ring" x="488" y="0" flags="0x4"/>
    </TTGlyph>
    <TTGlyph name="asciicircum" xMin="17" yMin="437" xMax="1010" yMax="1572">
      <contour>
        <pt x="394" y="1572" on="1"/>
        <pt x="652" y="1572" on="1"/>
        <pt x="1010" y="437" on="1"/>
        <pt x="779" y="437" on="1"/>
        <pt x="532" y="1312" on="1"/>
        <pt x="513" y="1312" on="1"/>
        <pt x="251" y="437" on="1"/>
        <pt x="17" y="437" on="1"/>
      </contour>
    </TTGlyph>
    <TTGlyph name="asciitilde" xMin="171" yMin="655" xMax="1145" yMax="970">
      <contour>
        <pt x="171" y="670" on="1"/>
        <pt x="173" y="754" on="0"/>
        <pt x="231" y="868" on="0"/>
        <pt x="321" y="939" on="0"/>
        <pt x="432" y="970" on="0"/>
        <pt x="486" y="970" on="1"/>
        <pt x="551" y="970" on="0"/>
        <pt x="641" y="935" on="0"/>
        <pt x="718" y="892" on="0"/>
        <pt x="797" y="857" on="0"/>
        <pt x="852" y="857" on="1"/>
        <pt x="877" y="857" on="0"/>
        <pt x="925" y="867" on="0"/>
        <pt x="968" y="889" on="0"/>
        <pt x="1004" y="927" on="0"/>
        <pt x="1017" y="955" on="1"/>
        <pt x="1145" y="955" on="1"/>
        <pt x="1143" y="872" on="0"/>
        <pt x="1085" y="757" on="0"/>
        <pt x="995" y="686" on="0"/>
        <pt x="884" y="655" on="0"/>
        <pt x="830" y="655" on="1"/>
        <pt x="786" y="655" on="0"/>
        <pt x="718" y="672" on="0"/>
        <pt x="662" y="697" on="0"/>
        <pt x="611" y="726" on="0"/>
        <pt x="559" y="751" on="0"/>
        <pt x="501" y="768" on="0"/>
        <pt x="464" y="768" on="1"/>
        <pt x="439" y="768" on="0"/>
        <pt x="391" y="759" on="0"/>
        <pt x="348" y="736" on="0"/>
        <pt x="312" y="698" on="0"/>
        <pt x="299" y="670" on="1"/>
        <pt x="171" y="670" on="1"/>
      </contour>
    </TTGlyph>
    <TTGlyph name="asterisk" xMin="182" yMin="838" xMax="1135" yMax="1822">
      <contour>
        <pt x="592" y="1211" on="1"/>
        <pt x="277" y="1005" on="1"/>
        <pt x="185" y="1165" on="1"/>
        <pt x="508" y="1327" on="1"/>
        <pt x="182" y="1492" on="1"/>
        <pt x="275" y="1652" on="1"/>
        <pt x="592" y="1443" on="1"/>
        <pt x="570" y="1822" on="1"/>
        <pt x="755" y="1822" on="1"/>
        <pt x="733" y="1449" on="1"/>
        <pt x="1043" y="1652" on="1"/>
        <pt x="1135" y="1492" on="1"/>
        <pt x="811" y="1329" on="1"/>
        <pt x="1134" y="1165" on="1"/>
        <pt x="1042" y="1005" on="1"/>
        <pt x="734" y="1208" on="1"/>
        <pt x="755" y="838" on="1"/>
        <pt x="570" y="838" on="1"/>
      </contour>
    </TTGlyph>
    <TTGlyph name="at" xMin="191" yMin="-458" xMax="2099" yMax="1500">
      <contour>
        <pt x="191" y="420" on="1"/>
        <pt x="191" y="572" on="0"/>
        <pt x="265" y="851" on="0"/>
        <pt x="403" y="1091" on="0"/>
        <pt x="599" y="1286" on="0"/>
        <pt x="841" y="1425" on="0"/>
        <pt x="1125" y="1500" on="0"/>
        <pt x="1282" y="1500" on="1"/>
        <pt x="1460" y="1500" on="0"/>
        <pt x="1760" y="1400" on="0"/>
        <pt x="1977" y="1203" on="0"/>
        <pt x="2099" y="912" on="0"/>
        <pt x="2099" y="722" on="1"/>
        <pt x="2099" y="580" on="0"/>
        <pt x="2029" y="322" on="0"/>
        <pt x="1894" y="125" on="0"/>
        <pt x="1698" y="8" on="0"/>
        <pt x="1572" y="8" on="1"/>
        <pt x="1507" y="8" on="0"/>
        <pt x="1406" y="39" on="0"/>
        <pt x="1334" y="90" on="0"/>
        <pt x="1292" y="158" on="0"/>
        <pt x="1285" y="195" on="1"/>
        <pt x="1210" y="97" on="0"/>
        <pt x="1046" y="8" on="0"/>
        <pt x="967" y="5" on="1"/>
        <pt x="901" y="3" on="0"/>
        <pt x="789" y="51" on="0"/>
        <pt x="706" y="150" on="0"/>
        <pt x="660" y="297" on="0"/>
        <pt x="660" y="394" on="1"/>
        <pt x="660" y="531" on="0"/>
        <pt x="751" y="758" on="0"/>
        <pt x="904" y="921" on="0"/>
        <pt x="1103" y="1011" on="0"/>
        <pt x="1210" y="1011" on="1"/>
        <pt x="1279" y="1011" on="0"/>
        <pt x="1381" y="978" on="0"/>
        <pt x="1416" y="955" on="1"/>
        <pt x="1457" y="1019" on="1"/>
        <pt x="1632" y="1019" on="1"/>
        <pt x="1539" y="425" on="1"/>
        <pt x="1532" y="383" on="0"/>
        <pt x="1526" y="294" on="0"/>
        <pt x="1540" y="220" on="0"/>
        <pt x="1582" y="173" on="0"/>
        <pt x="1624" y="173" on="1"/>
        <pt x="1685" y="173" on="0"/>
        <pt x="1788" y="273" on="0"/>
        <pt x="1862" y="433" on="0"/>
        <pt x="1904" y="631" on="0"/>
        <pt x="1904" y="730" on="1"/>
        <pt x="1904" y="888" on="0"/>
        <pt x="1801" y="1111" on="0"/>
        <pt x="1627" y="1253" on="0"/>
        <pt x="1398" y="1318" on="0"/>
        <pt x="1273" y="1318" on="1"/>
        <pt x="1149" y="1318" on="0"/>
        <pt x="921" y="1258" on="0"/>
        <pt x="724" y="1147" on="0"/>
        <pt x="562" y="988" on="0"/>
        <pt x="448" y="789" on="0"/>
        <pt x="385" y="554" on="0"/>
        <pt x="385" y="422" on="1"/>
        <pt x="385" y="248" on="0"/>
        <pt x="494" y="-18" on="0"/>
        <pt x="688" y="-197" on="0"/>
        <pt x="957" y="-288" on="0"/>
        <pt x="1118" y="-288" on="1"/>
        <pt x="1203" y="-288" on="0"/>
        <pt x="1359" y="-264" on="0"/>
        <pt x="1496" y="-223" on="0"/>
        <pt x="1611" y="-167" on="0"/>
        <pt x="1655" y="-135" on="1"/>
        <pt x="1655" y="-320" on="1"/>
        <pt x="1611" y="-352" on="0"/>
        <pt x="1488" y="-403" on="0"/>
        <pt x="1342" y="-439" on="0"/>
        <pt x="1180" y="-458" on="0"/>
        <pt x="1098" y="-458" on="1"/>
        <pt x="880" y="-458" on="0"/>
        <pt x="543" y="-328" on="0"/>
        <pt x="311" y="-95" on="0"/>
        <pt x="191" y="228" on="0"/>
      </contour>
      <contour>
        <pt x="910" y="407" on="1"/>
        <pt x="910" y="297" on="0"/>
        <pt x="979" y="198" on="0"/>
        <pt x="1047" y="198" on="1"/>
        <pt x="1110" y="198" on="0"/>
        <pt x="1244" y="279" on="0"/>
        <pt x="1298" y="359" on="1"/>
        <pt x="1364" y="820" on="1"/>
        <pt x="1341" y="831" on="0"/>
        <pt x="1283" y="843" on="0"/>
        <pt x="1250" y="843" on="1"/>
        <pt x="1169" y="843" on="0"/>
        <pt x="1042" y="773" on="0"/>
        <pt x="955" y="654" on="0"/>
        <pt x="910" y="495" on="0"/>
      </contour>
    </TTGlyph>
    <TTGlyph name="atilde" xMin="85" yMin="-23" xMax="1003" yMax="1709">
      <component glyphName="a" x="0" y="0" flags="0x204"/>
      <component glyphName="tilde" x="488" y="0" flags="0x4"/>
    </TTGlyph>
    <TTGlyph name="b" xMin="141" yMin="-23" xMax="1106" yMax="1711">
      <contour>
        <pt x="141" y="1711" on="1"/>
        <pt x="383" y="1711" on="1"/>
        <pt x="383" y="1225" on="1"/>
        <pt x="379" y="1051" on="1"/>
        <pt x="427" y="1099" on="0"/>
        <pt x="561" y="1157" on="0"/>
        <pt x="654" y="1157" on="1"/>
        <pt x="752" y="1157" on="0"/>
        <pt x="918" y="1084" on="0"/>
        <pt x="1038" y="940" on="0"/>
        <pt x="1106" y="725" on="0"/>
        <pt x="1106" y="583" on="1"/>
        <pt x="1106" y="426" on="0"/>
        <pt x="1025" y="198" on="0"/>
        <pt x="890" y="49" on="0"/>
        <pt x="711" y="-23" on="0"/>
        <pt x="614" y="-23" on="1"/>
        <pt x="526" y="-23" on="0"/>
        <pt x="400" y="16" on="0"/>
        <pt x="354" y="53" on="1"/>
        <pt x="343" y="0" on="1"/>
        <pt x="141" y="0" on="1"/>
      </contour>
      <contour>
        <pt x="383" y="220" on="1"/>
        <pt x="425" y="190" on="0"/>
        <pt x="520" y="165" on="0"/>
        <pt x="571" y="165" on="1"/>
        <pt x="632" y="165" on="0"/>
        <pt x="736" y="210" on="0"/>
        <pt x="811" y="307" on="0"/>
        <pt x="853" y="461" on="0"/>
        <pt x="853" y="570" on="1"/>
        <pt x="853" y="674" on="0"/>
        <pt x="815" y="825" on="0"/>
        <pt x="746" y="923" on="0"/>
        <pt x="648" y="970" on="0"/>
        <pt x="587" y="970" on="1"/>
        <pt x="530" y="970" on="0"/>
        <pt x="426" y="930" on="0"/>
        <pt x="383" y="892" on="1"/>
      </contour>
    </TTGlyph>
    <TTGlyph name="backslash" xMin="242" yMin="-285" xMax="1321" yMax="1754">
      <component glyphName="slash" x="1563" y="0" scalex="-0.999938964844" scaley="1.0" flags="0x4"/>
    </TTGlyph>
    <TTGlyph name="bar" xMin="228" yMin="-426" xMax="430" yMax="1912">
      <contour>
        <pt x="228" y="1912" on="1"/>
        <pt x="430" y="1912" on="1"/>
        <pt x="430" y="-426" on="1"/>
        <pt x="228" y="-426" on="1"/>
      </contour>
    </TTGlyph>
    <TTGlyph name="braceleft" xMin="182" yMin="-201" xMax="860" yMax="1895">
      <contour>
        <pt x="376" y="546" on="1"/>
        <pt x="376" y="588" on="0"/>
        <pt x="345" y="661" on="0"/>
        <pt x="291" y="717" on="0"/>
        <pt x="221" y="754" on="0"/>
        <pt x="182" y="760" on="1"/>
        <pt x="182" y="938" on="1"/>
        <pt x="221" y="944" on="0"/>
        <pt x="291" y="980" on="0"/>
        <pt x="345" y="1035" on="0"/>
        <pt x="376" y="1106" on="0"/>
        <pt x="376" y="1148" on="1"/>
        <pt x="376" y="1562" on="1"/>
        <pt x="376" y="1724" on="0"/>
        <pt x="525" y="1895" on="0"/>
        <pt x="686" y="1895" on="1"/>
        <pt x="860" y="1895" on="1"/>
        <pt x="860" y="1717" on="1"/>
        <pt x="735" y="1717" on="1"/>
        <pt x="682" y="1717" on="0"/>
        <pt x="619" y="1657" on="0"/>
        <pt x="619" y="1588" on="1"/>
        <pt x="619" y="1182" on="1"/>
        <pt x="619" y="1114" on="0"/>
        <pt x="574" y="999" on="0"/>
        <pt x="501" y="913" on="0"/>
        <pt x="410" y="863" on="0"/>
        <pt x="364" y="861" on="1"/>
        <pt x="364" y="832" on="1"/>
        <pt x="410" y="830" on="0"/>
        <pt x="501" y="780" on="0"/>
        <pt x="574" y="695" on="0"/>
        <pt x="619" y="579" on="0"/>
        <pt x="619" y="512" on="1"/>
        <pt x="619" y="106" on="1"/>
        <pt x="619" y="37" on="0"/>
        <pt x="682" y="-23" on="0"/>
        <pt x="735" y="-23" on="1"/>
        <pt x="860" y="-23" on="1"/>
        <pt x="860" y="-201" on="1"/>
        <pt x="686" y="-201" on="1"/>
        <pt x="525" y="-201" on="0"/>
        <pt x="376" y="-30" on="0"/>
        <pt x="376" y="132" on="1"/>
      </contour>
    </TTGlyph>
    <TTGlyph name="braceright" xMin="182" yMin="-201" xMax="860" yMax="1895">
      <component glyphName="braceleft" x="1042" y="0" scalex="-0.999938964844" scaley="1.0" flags="0x4"/>
    </TTGlyph>
    <TTGlyph name="bracketleft" xMin="228" yMin="-221" xMax="796" yMax="1912">
      <contour>
        <pt x="228" y="1912" on="1"/>
        <pt x="796" y="1912" on="1"/>
        <pt x="796" y="1734" on="1"/>
        <pt x="471" y="1734" on="1"/>
        <pt x="471" y="-43" on="1"/>
        <pt x="796" y="-43" on="1"/>
        <pt x="796" y="-221" on="1"/>
        <pt x="228" y="-221" on="1"/>
      </contour>
    </TTGlyph>
    <TTGlyph name="bracketright" xMin="148" yMin="-221" xMax="716" yMax="1912">
      <component glyphName="bracketleft" x="944" y="0" scalex="-0.999938964844" scaley="1.0" flags="0x4"/>
    </TTGlyph>
    <TTGlyph name="brokenbar" xMin="228" yMin="-427" xMax="429" yMax="1911">
      <contour>
        <pt x="228" y="1911" on="1"/>
        <pt x="429" y="1911" on="1"/>
        <pt x="429" y="1074" on="1"/>
        <pt x="228" y="1074" on="1"/>
      </contour>
      <contour>
        <pt x="429" y="409" on="1"/>
        <pt x="429" y="-427" on="1"/>
        <pt x="228" y="-427" on="1"/>
        <pt x="228" y="409" on="1"/>
      </contour>
    </TTGlyph>
    <TTGlyph name="bullet" xMin="182" yMin="626" xMax="670" yMax="1090">
      <contour>
        <pt x="424" y="626" on="1"/>
        <pt x="369" y="626" on="0"/>
        <pt x="280" y="659" on="0"/>
        <pt x="217" y="720" on="0"/>
        <pt x="182" y="805" on="0"/>
        <pt x="182" y="857" on="1"/>
        <pt x="182" y="909" on="0"/>
        <pt x="217" y="995" on="0"/>
        <pt x="280" y="1056" on="0"/>
        <pt x="369" y="1090" on="0"/>
        <pt x="424" y="1090" on="1"/>
        <pt x="481" y="1090" on="0"/>
        <pt x="572" y="1056" on="0"/>
        <pt x="636" y="995" on="0"/>
        <pt x="670" y="909" on="0"/>
        <pt x="670" y="857" on="1"/>
        <pt x="670" y="805" on="0"/>
        <pt x="636" y="720" on="0"/>
        <pt x="572" y="659" on="0"/>
        <pt x="481" y="626" on="0"/>
      </contour>
    </TTGlyph>
    <TTGlyph name="c" xMin="85" yMin="-23" xMax="891" yMax="1157">
      <contour>
        <pt x="85" y="564" on="1"/>
        <pt x="85" y="708" on="0"/>
        <pt x="155" y="929" on="0"/>
        <pt x="290" y="1079" on="0"/>
        <pt x="484" y="1157" on="0"/>
        <pt x="609" y="1157" on="1"/>
        <pt x="690" y="1157" on="0"/>
        <pt x="824" y="1128" on="0"/>
        <pt x="883" y="1099" on="1"/>
        <pt x="882" y="865" on="1"/>
        <pt x="822" y="923" on="0"/>
        <pt x="688" y="964" on="0"/>
        <pt x="619" y="964" on="1"/>
        <pt x="479" y="964" on="0"/>
        <pt x="336" y="774" on="0"/>
        <pt x="336" y="575" on="1"/>
        <pt x="336" y="367" on="0"/>
        <pt x="489" y="165" on="0"/>
        <pt x="635" y="165" on="1"/>
        <pt x="707" y="165" on="0"/>
        <pt x="834" y="212" on="0"/>
        <pt x="891" y="263" on="1"/>
        <pt x="891" y="60" on="1"/>
        <pt x="821" y="17" on="0"/>
        <pt x="684" y="-23" on="0"/>
        <pt x="602" y="-23" on="1"/>
        <pt x="486" y="-23" on="0"/>
        <pt x="296" y="54" on="0"/>
        <pt x="160" y="204" on="0"/>
        <pt x="85" y="423" on="0"/>
      </contour>
    </TTGlyph>
    <TTGlyph name="caron" xMin="-332" yMin="1341" xMax="432" yMax="1720">
      <contour>
        <pt x="-332" y="1720" on="1"/>
        <pt x="-140" y="1720" on="1"/>
        <pt x="50" y="1523" on="1"/>
        <pt x="240" y="1720" on="1"/>
        <pt x="432" y="1720" on="1"/>
        <pt x="157" y="1341" on="1"/>
        <pt x="-57" y="1341" on="1"/>
      </contour>
    </TTGlyph>
    <TTGlyph name="caron.cap" xMin="-332" yMin="1711" xMax="432" yMax="2040">
      <contour>
        <pt x="-332" y="2040" on="1"/>
        <pt x="-118" y="2040" on="1"/>
        <pt x="50" y="1889" on="1"/>
        <pt x="218" y="2040" on="1"/>
        <pt x="432" y="2040" on="1"/>
        <pt x="157" y="1711" on="1"/>
        <pt x="-57" y="1711" on="1"/>
      </contour>
    </TTGlyph>
    <TTGlyph name="ccedilla" xMin="85" yMin="-518" xMax="891" yMax="1157">
      <contour>
        <pt x="444" y="-2" on="1"/>
        <pt x="362" y="21" on="0"/>
        <pt x="229" y="117" on="0"/>
        <pt x="136" y="260" on="0"/>
        <pt x="85" y="448" on="0"/>
        <pt x="85" y="564" on="1"/>
        <pt x="85" y="708" on="0"/>
        <pt x="155" y="929" on="0"/>
        <pt x="290" y="1079" on="0"/>
        <pt x="484" y="1157" on="0"/>
        <pt x="609" y="1157" on="1"/>
        <pt x="690" y="1157" on="0"/>
        <pt x="824" y="1128" on="0"/>
        <pt x="883" y="1099" on="1"/>
        <pt x="882" y="865" on="1"/>
        <pt x="822" y="923" on="0"/>
        <pt x="688" y="964" on="0"/>
        <pt x="619" y="964" on="1"/>
        <pt x="479" y="964" on="0"/>
        <pt x="336" y="774" on="0"/>
        <pt x="336" y="575" on="1"/>
        <pt x="336" y="367" on="0"/>
        <pt x="489" y="165" on="0"/>
        <pt x="635" y="165" on="1"/>
        <pt x="707" y="165" on="0"/>
        <pt x="834" y="212" on="0"/>
        <pt x="891" y="263" on="1"/>
        <pt x="891" y="60" on="1"/>
        <pt x="822" y="18" on="0"/>
        <pt x="689" y="-21" on="0"/>
        <pt x="610" y="-23" on="1"/>
        <pt x="598" y="-108" on="1"/>
        <pt x="698" y="-110" on="0"/>
        <pt x="808" y="-195" on="0"/>
        <pt x="808" y="-276" on="1"/>
        <pt x="808" y="-327" on="0"/>
        <pt x="758" y="-415" on="0"/>
        <pt x="653" y="-481" on="0"/>
        <pt x="493" y="-518" on="0"/>
        <pt x="382" y="-518" on="1"/>
        <pt x="382" y="-382" on="1"/>
        <pt x="499" y="-378" on="0"/>
        <pt x="605" y="-323" on="0"/>
        <pt x="605" y="-283" on="1"/>
        <pt x="605" y="-251" on="0"/>
        <pt x="564" y="-213" on="0"/>
        <pt x="513" y="-213" on="1"/>
        <pt x="449" y="-213" on="0"/>
        <pt x="390" y="-238" on="1"/>
        <pt x="444" y="-2" on="1"/>
      </contour>
    </TTGlyph>
    <TTGlyph name="cedilla" xMin="-165" yMin="-519" xMax="261" yMax="40">
      <contour>
        <pt x="51" y="-109" on="1"/>
        <pt x="151" y="-111" on="0"/>
        <pt x="261" y="-196" on="0"/>
        <pt x="261" y="-277" on="1"/>
        <pt x="261" y="-328" on="0"/>
        <pt x="211" y="-416" on="0"/>
        <pt x="106" y="-482" on="0"/>
        <pt x="-54" y="-519" on="0"/>
        <pt x="-165" y="-519" on="1"/>
        <pt x="-165" y="-383" on="1"/>
        <pt x="-48" y="-379" on="0"/>
        <pt x="58" y="-324" on="0"/>
        <pt x="58" y="-284" on="1"/>
        <pt x="58" y="-252" on="0"/>
        <pt x="17" y="-214" on="0"/>
        <pt x="-34" y="-214" on="1"/>
        <pt x="-98" y="-214" on="0"/>
        <pt x="-157" y="-239" on="1"/>
        <pt x="-93" y="40" on="1"/>
        <pt x="73" y="40" on="1"/>
      </contour>
    </TTGlyph>
    <TTGlyph name="cent" xMin="97" yMin="-320" xMax="911" yMax="1433">
      <contour>
        <pt x="479" y="-7" on="1"/>
        <pt x="391" y="14" on="0"/>
        <pt x="250" y="108" on="0"/>
        <pt x="151" y="252" on="0"/>
        <pt x="97" y="445" on="0"/>
        <pt x="97" y="564" on="1"/>
        <pt x="97" y="685" on="0"/>
        <pt x="152" y="880" on="0"/>
        <pt x="253" y="1026" on="0"/>
        <pt x="397" y="1120" on="0"/>
        <pt x="486" y="1141" on="1"/>
        <pt x="486" y="1433" on="1"/>
        <pt x="699" y="1433" on="1"/>
        <pt x="699" y="1153" on="1"/>
        <pt x="756" y="1146" on="0"/>
        <pt x="857" y="1114" on="0"/>
        <pt x="903" y="1088" on="1"/>
        <pt x="902" y="854" on="1"/>
        <pt x="842" y="918" on="0"/>
        <pt x="708" y="970" on="0"/>
        <pt x="638" y="970" on="1"/>
        <pt x="491" y="970" on="0"/>
        <pt x="342" y="775" on="0"/>
        <pt x="342" y="575" on="1"/>
        <pt x="342" y="367" on="0"/>
        <pt x="503" y="165" on="0"/>
        <pt x="654" y="165" on="1"/>
        <pt x="726" y="165" on="0"/>
        <pt x="853" y="212" on="0"/>
        <pt x="911" y="263" on="1"/>
        <pt x="911" y="60" on="1"/>
        <pt x="856" y="27" on="0"/>
        <pt x="751" y="-11" on="0"/>
        <pt x="692" y="-19" on="1"/>
        <pt x="692" y="-320" on="1"/>
        <pt x="479" y="-320" on="1"/>
        <pt x="479" y="-7" on="1"/>
      </contour>
    </TTGlyph>
    <TTGlyph name="circumflex" xMin="-332" yMin="1341" xMax="432" yMax="1720">
      <contour>
        <pt x="-332" y="1341" on="1"/>
        <pt x="-57" y="1720" on="1"/>
        <pt x="157" y="1720" on="1"/>
        <pt x="432" y="1341" on="1"/>
        <pt x="240" y="1341" on="1"/>
        <pt x="50" y="1538" on="1"/>
        <pt x="-140" y="1341" on="1"/>
      </contour>
    </TTGlyph>
    <TTGlyph name="circumflex.cap" xMin="-332" yMin="1711" xMax="432" yMax="2040">
      <contour>
        <pt x="-332" y="1711" on="1"/>
        <pt x="-57" y="2040" on="1"/>
        <pt x="157" y="2040" on="1"/>
        <pt x="432" y="1711" on="1"/>
        <pt x="229" y="1711" on="1"/>
        <pt x="50" y="1863" on="1"/>
        <pt x="-129" y="1711" on="1"/>
      </contour>
    </TTGlyph>
    <TTGlyph name="colon" xMin="169" yMin="-19" xMax="555" yMax="1150">
      <component glyphName="period" x="0" y="0" flags="0x4"/>
      <component glyphName="period" x="0" y="807" flags="0x4"/>
    </TTGlyph>
    <TTGlyph name="comma" xMin="169" yMin="-384" xMax="584" yMax="343">
      <contour>
        <pt x="169" y="161" on="1"/>
        <pt x="169" y="201" on="0"/>
        <pt x="196" y="268" on="0"/>
        <pt x="247" y="316" on="0"/>
        <pt x="319" y="343" on="0"/>
        <pt x="364" y="343" on="1"/>
        <pt x="412" y="343" on="0"/>
        <pt x="493" y="311" on="0"/>
        <pt x="551" y="242" on="0"/>
        <pt x="584" y="136" on="0"/>
        <pt x="584" y="62" on="1"/>
        <pt x="584" y="-22" on="0"/>
        <pt x="538" y="-177" on="0"/>
        <pt x="442" y="-298" on="0"/>
        <pt x="295" y="-376" on="0"/>
        <pt x="194" y="-384" on="1"/>
        <pt x="194" y="-219" on="1"/>
        <pt x="246" y="-210" on="0"/>
        <pt x="314" y="-174" on="0"/>
        <pt x="353" y="-123" on="0"/>
        <pt x="368" y="-58" on="0"/>
        <pt x="368" y="-22" on="1"/>
        <pt x="273" y="-22" on="0"/>
        <pt x="169" y="78" on="0"/>
      </contour>
    </TTGlyph>
    <TTGlyph name="commaaccent" xMin="-114" yMin="-520" xMax="236" yMax="-55">
      <contour>
        <pt x="53" y="-55" on="1"/>
        <pt x="94" y="-55" on="0"/>
        <pt x="161" y="-80" on="0"/>
        <pt x="209" y="-128" on="0"/>
        <pt x="236" y="-197" on="0"/>
        <pt x="236" y="-240" on="1"/>
        <pt x="236" y="-297" on="0"/>
        <pt x="202" y="-398" on="0"/>
        <pt x="127" y="-475" on="0"/>
        <pt x="9" y="-520" on="0"/>
        <pt x="-76" y="-520" on="1"/>
        <pt x="-76" y="-404" on="1"/>
        <pt x="-31" y="-399" on="0"/>
        <pt x="19" y="-384" on="0"/>
        <pt x="44" y="-362" on="0"/>
        <pt x="50" y="-332" on="0"/>
        <pt x="50" y="-311" on="1"/>
        <pt x="-29" y="-311" on="0"/>
        <pt x="-114" y="-244" on="0"/>
        <pt x="-114" y="-181" on="1"/>
        <pt x="-114" y="-157" on="0"/>
        <pt x="-93" y="-112" on="0"/>
        <pt x="-51" y="-76" on="0"/>
        <pt x="11" y="-55" on="0"/>
      </contour>
    </TTGlyph>
    <TTGlyph name="copyright" xMin="228" yMin="-39" xMax="1956" yMax="1685">
      <contour>
        <pt x="228" y="823" on="1"/>
        <pt x="228" y="947" on="0"/>
        <pt x="286" y="1172" on="0"/>
        <pt x="394" y="1364" on="0"/>
        <pt x="548" y="1518" on="0"/>
        <pt x="740" y="1626" on="0"/>
        <pt x="966" y="1685" on="0"/>
        <pt x="1092" y="1685" on="1"/>
        <pt x="1218" y="1685" on="0"/>
        <pt x="1444" y="1626" on="0"/>
        <pt x="1636" y="1518" on="0"/>
        <pt x="1790" y="1364" on="0"/>
        <pt x="1898" y="1172" on="0"/>
        <pt x="1956" y="947" on="0"/>
        <pt x="1956" y="823" on="1"/>
        <pt x="1956" y="698" on="0"/>
        <pt x="1898" y="474" on="0"/>
        <pt x="1790" y="282" on="0"/>
        <pt x="1636" y="128" on="0"/>
        <pt x="1444" y="20" on="0"/>
        <pt x="1218" y="-39" on="0"/>
        <pt x="1092" y="-39" on="1"/>
        <pt x="966" y="-39" on="0"/>
        <pt x="740" y="20" on="0"/>
        <pt x="548" y="128" on="0"/>
        <pt x="394" y="282" on="0"/>
        <pt x="286" y="474" on="0"/>
        <pt x="228" y="698" on="0"/>
      </contour>
      <contour>
        <pt x="383" y="823" on="1"/>
        <pt x="383" y="671" on="0"/>
        <pt x="486" y="412" on="0"/>
        <pt x="673" y="222" on="0"/>
        <pt x="934" y="114" on="0"/>
        <pt x="1092" y="114" on="1"/>
        <pt x="1249" y="114" on="0"/>
        <pt x="1510" y="222" on="0"/>
        <pt x="1697" y="412" on="0"/>
        <pt x="1800" y="671" on="0"/>
        <pt x="1800" y="823" on="1"/>
        <pt x="1800" y="974" on="0"/>
        <pt x="1697" y="1234" on="0"/>
        <pt x="1510" y="1424" on="0"/>
        <pt x="1249" y="1532" on="0"/>
        <pt x="1092" y="1532" on="1"/>
        <pt x="934" y="1532" on="0"/>
        <pt x="673" y="1424" on="0"/>
        <pt x="486" y="1234" on="0"/>
        <pt x="383" y="974" on="0"/>
      </contour>
      <contour>
        <pt x="707" y="832" on="1"/>
        <pt x="707" y="942" on="0"/>
        <pt x="769" y="1111" on="0"/>
        <pt x="879" y="1227" on="0"/>
        <pt x="1032" y="1286" on="0"/>
        <pt x="1123" y="1286" on="1"/>
        <pt x="1190" y="1286" on="0"/>
        <pt x="1301" y="1256" on="0"/>
        <pt x="1328" y="1235" on="1"/>
        <pt x="1328" y="1025" on="1"/>
        <pt x="1290" y="1059" on="0"/>
        <pt x="1197" y="1099" on="0"/>
        <pt x="1147" y="1099" on="1"/>
        <pt x="1107" y="1099" on="0"/>
        <pt x="1034" y="1072" on="0"/>
        <pt x="979" y="1010" on="0"/>
        <pt x="947" y="910" on="0"/>
        <pt x="947" y="837" on="1"/>
        <pt x="947" y="760" on="0"/>
        <pt x="983" y="656" on="0"/>
        <pt x="1043" y="592" on="0"/>
        <pt x="1120" y="564" on="0"/>
        <pt x="1162" y="564" on="1"/>
        <pt x="1203" y="564" on="0"/>
        <pt x="1292" y="594" on="0"/>
        <pt x="1332" y="624" on="1"/>
        <pt x="1332" y="426" on="1"/>
        <pt x="1302" y="405" on="0"/>
        <pt x="1212" y="375" on="0"/>
        <pt x="1140" y="375" on="1"/>
        <pt x="1043" y="375" on="0"/>
        <pt x="883" y="435" on="0"/>
        <pt x="769" y="552" on="0"/>
        <pt x="707" y="722" on="0"/>
      </contour>
    </TTGlyph>
    <TTGlyph name="currency" xMin="182" yMin="90" xMax="1618" yMax="1525">
      <contour>
        <pt x="431" y="473" on="1"/>
        <pt x="380" y="544" on="0"/>
        <pt x="324" y="713" on="0"/>
        <pt x="324" y="807" on="1"/>
        <pt x="324" y="901" on="0"/>
        <pt x="380" y="1069" on="0"/>
        <pt x="431" y="1141" on="1"/>
        <pt x="184" y="1378" on="1"/>
        <pt x="328" y="1525" on="1"/>
        <pt x="567" y="1276" on="1"/>
        <pt x="638" y="1327" on="0"/>
        <pt x="807" y="1383" on="0"/>
        <pt x="901" y="1383" on="1"/>
        <pt x="995" y="1383" on="0"/>
        <pt x="1163" y="1327" on="0"/>
        <pt x="1234" y="1277" on="1"/>
        <pt x="1472" y="1524" on="1"/>
        <pt x="1618" y="1379" on="1"/>
        <pt x="1370" y="1141" on="1"/>
        <pt x="1421" y="1069" on="0"/>
        <pt x="1477" y="901" on="0"/>
        <pt x="1477" y="807" on="1"/>
        <pt x="1477" y="713" on="0"/>
        <pt x="1420" y="544" on="0"/>
        <pt x="1369" y="473" on="1"/>
        <pt x="1618" y="236" on="1"/>
        <pt x="1472" y="90" on="1"/>
        <pt x="1234" y="339" on="1"/>
        <pt x="1163" y="288" on="0"/>
        <pt x="995" y="233" on="0"/>
        <pt x="901" y="233" on="1"/>
        <pt x="807" y="233" on="0"/>
        <pt x="639" y="288" on="0"/>
        <pt x="568" y="338" on="1"/>
        <pt x="331" y="90" on="1"/>
        <pt x="182" y="235" on="1"/>
      </contour>
      <contour>
        <pt x="531" y="807" on="1"/>
        <pt x="531" y="731" on="0"/>
        <pt x="590" y="597" on="0"/>
        <pt x="690" y="496" on="0"/>
        <pt x="825" y="438" on="0"/>
        <pt x="901" y="438" on="1"/>
        <pt x="977" y="438" on="0"/>
        <pt x="1111" y="496" on="0"/>
        <pt x="1212" y="597" on="0"/>
        <pt x="1270" y="731" on="0"/>
        <pt x="1270" y="807" on="1"/>
        <pt x="1270" y="883" on="0"/>
        <pt x="1212" y="1018" on="0"/>
        <pt x="1111" y="1119" on="0"/>
        <pt x="977" y="1178" on="0"/>
        <pt x="901" y="1178" on="1"/>
        <pt x="825" y="1178" on="0"/>
        <pt x="690" y="1119" on="0"/>
        <pt x="590" y="1018" on="0"/>
        <pt x="531" y="883" on="0"/>
      </contour>
    </TTGlyph>
    <TTGlyph name="d" xMin="85" yMin="-23" xMax="1081" yMax="1711">
      <contour>
        <pt x="538" y="-23" on="1"/>
        <pt x="441" y="-23" on="0"/>
        <pt x="275" y="50" on="0"/>
        <pt x="154" y="196" on="0"/>
        <pt x="85" y="413" on="0"/>
        <pt x="85" y="557" on="1"/>
        <pt x="85" y="699" on="0"/>
        <pt x="154" y="922" on="0"/>
        <pt x="289" y="1076" on="0"/>
        <pt x="491" y="1157" on="0"/>
        <pt x="624" y="1157" on="1"/>
        <pt x="681" y="1157" on="0"/>
        <pt x="772" y="1138" on="0"/>
        <pt x="812" y="1124" on="1"/>
        <pt x="809" y="1225" on="1"/>
        <pt x="809" y="1711" on="1"/>
        <pt x="1051" y="1711" on="1"/>
        <pt x="1051" y="413" on="1"/>
        <pt x="1051" y="362" on="0"/>
        <pt x="1056" y="246" on="0"/>
        <pt x="1065" y="134" on="0"/>
        <pt x="1075" y="34" on="0"/>
        <pt x="1081" y="0" on="1"/>
        <pt x="844" y="0" on="1"/>
        <pt x="838" y="20" on="0"/>
        <pt x="829" y="70" on="0"/>
        <pt x="826" y="97" on="1"/>
        <pt x="778" y="43" on="0"/>
        <pt x="637" y="-23" on="0"/>
      </contour>
      <contour>
        <pt x="604" y="165" on="1"/>
        <pt x="722" y="165" on="0"/>
        <pt x="809" y="241" on="1"/>
        <pt x="809" y="937" on="1"/>
        <pt x="726" y="970" on="0"/>
        <pt x="642" y="970" on="1"/>
        <pt x="569" y="970" on="0"/>
        <pt x="456" y="925" on="0"/>
        <pt x="378" y="827" on="0"/>
        <pt x="338" y="673" on="0"/>
        <pt x="338" y="564" on="1"/>
        <pt x="338" y="460" on="0"/>
        <pt x="377" y="309" on="0"/>
        <pt x="448" y="211" on="0"/>
        <pt x="545" y="165" on="0"/>
      </contour>
    </TTGlyph>
    <TTGlyph name="dagger" xMin="-47" yMin="170" xMax="659" yMax="1851">
      <contour>
        <pt x="213" y="1185" on="1"/>
        <pt x="-47" y="1178" on="1"/>
        <pt x="-47" y="1392" on="1"/>
        <pt x="210" y="1385" on="1"/>
        <pt x="205" y="1851" on="1"/>
        <pt x="407" y="1851" on="1"/>
        <pt x="401" y="1384" on="1"/>
        <pt x="659" y="1392" on="1"/>
        <pt x="659" y="1178" on="1"/>
        <pt x="399" y="1185" on="1"/>
        <pt x="387" y="170" on="1"/>
        <pt x="225" y="170" on="1"/>
      </contour>
    </TTGlyph>
    <TTGlyph name="daggerdbl" xMin="-47" yMin="-10" xMax="659" yMax="1851">
      <contour>
        <pt x="216" y="456" on="1"/>
        <pt x="-47" y="449" on="1"/>
        <pt x="-47" y="663" on="1"/>
        <pt x="220" y="655" on="1"/>
        <pt x="225" y="850" on="1"/>
        <pt x="218" y="1185" on="1"/>
        <pt x="-47" y="1178" on="1"/>
        <pt x="-47" y="1392" on="1"/>
        <pt x="214" y="1384" on="1"/>
        <pt x="205" y="1851" on="1"/>
        <pt x="407" y="1851" on="1"/>
        <pt x="397" y="1384" on="1"/>
        <pt x="659" y="1392" on="1"/>
        <pt x="659" y="1178" on="1"/>
        <pt x="393" y="1185" on="1"/>
        <pt x="387" y="850" on="1"/>
        <pt x="391" y="655" on="1"/>
        <pt x="659" y="663" on="1"/>
        <pt x="659" y="449" on="1"/>
        <pt x="396" y="456" on="1"/>
        <pt x="407" y="-10" on="1"/>
        <pt x="205" y="-10" on="1"/>
      </contour>
    </TTGlyph>
    <TTGlyph name="degree" xMin="182" yMin="960" xMax="887" yMax="1692">
      <contour>
        <pt x="535" y="960" on="1"/>
        <pt x="458" y="960" on="0"/>
        <pt x="328" y="1013" on="0"/>
        <pt x="234" y="1109" on="0"/>
        <pt x="182" y="1244" on="0"/>
        <pt x="182" y="1326" on="1"/>
        <pt x="182" y="1408" on="0"/>
        <pt x="234" y="1543" on="0"/>
        <pt x="328" y="1639" on="0"/>
        <pt x="458" y="1692" on="0"/>
        <pt x="535" y="1692" on="1"/>
        <pt x="612" y="1692" on="0"/>
        <pt x="741" y="1639" on="0"/>
        <pt x="835" y="1543" on="0"/>
        <pt x="887" y="1408" on="0"/>
        <pt x="887" y="1326" on="1"/>
        <pt x="887" y="1244" on="0"/>
        <pt x="835" y="1109" on="0"/>
        <pt x="741" y="1013" on="0"/>
        <pt x="612" y="960" on="0"/>
      </contour>
      <contour>
        <pt x="535" y="1131" on="1"/>
        <pt x="563" y="1131" on="0"/>
        <pt x="614" y="1155" on="0"/>
        <pt x="651" y="1203" on="0"/>
        <pt x="673" y="1276" on="0"/>
        <pt x="673" y="1326" on="1"/>
        <pt x="673" y="1375" on="0"/>
        <pt x="651" y="1449" on="0"/>
        <pt x="614" y="1497" on="0"/>
        <pt x="563" y="1521" on="0"/>
        <pt x="535" y="1521" on="1"/>
        <pt x="506" y="1521" on="0"/>
        <pt x="456" y="1497" on="0"/>
        <pt x="418" y="1449" on="0"/>
        <pt x="397" y="1375" on="0"/>
        <pt x="397" y="1326" on="1"/>
        <pt x="397" y="1276" on="0"/>
        <pt x="418" y="1203" on="0"/>
        <pt x="456" y="1155" on="0"/>
        <pt x="506" y="1131" on="0"/>
      </contour>
    </TTGlyph>
    <TTGlyph name="dieresis" xMin="-346" yMin="1383" xMax="446" yMax="1688">
      <contour>
        <pt x="284" y="1383" on="1"/>
        <pt x="212" y="1383" on="0"/>
        <pt x="125" y="1467" on="0"/>
        <pt x="125" y="1536" on="1"/>
        <pt x="125" y="1570" on="0"/>
        <pt x="148" y="1626" on="0"/>
        <pt x="189" y="1666" on="0"/>
        <pt x="248" y="1688" on="0"/>
        <pt x="284" y="1688" on="1"/>
        <pt x="359" y="1688" on="0"/>
        <pt x="446" y="1605" on="0"/>
        <pt x="446" y="1536" on="1"/>
        <pt x="446" y="1467" on="0"/>
        <pt x="359" y="1383" on="0"/>
      </contour>
      <contour>
        <pt x="-187" y="1383" on="1"/>
        <pt x="-259" y="1383" on="0"/>
        <pt x="-346" y="1467" on="0"/>
        <pt x="-346" y="1536" on="1"/>
        <pt x="-346" y="1570" on="0"/>
        <pt x="-323" y="1626" on="0"/>
        <pt x="-282" y="1666" on="0"/>
        <pt x="-223" y="1688" on="0"/>
        <pt x="-187" y="1688" on="1"/>
        <pt x="-112" y="1688" on="0"/>
        <pt x="-25" y="1605" on="0"/>
        <pt x="-25" y="1536" on="1"/>
        <pt x="-25" y="1467" on="0"/>
        <pt x="-112" y="1383" on="0"/>
      </contour>
    </TTGlyph>
    <TTGlyph name="dieresis.cap" xMin="-357" yMin="1711" xMax="460" yMax="2011">
      <contour>
        <pt x="302" y="1711" on="1"/>
        <pt x="230" y="1711" on="0"/>
        <pt x="147" y="1794" on="0"/>
        <pt x="147" y="1860" on="1"/>
        <pt x="147" y="1927" on="0"/>
        <pt x="230" y="2011" on="0"/>
        <pt x="302" y="2011" on="1"/>
        <pt x="375" y="2011" on="0"/>
        <pt x="460" y="1927" on="0"/>
        <pt x="460" y="1860" on="1"/>
        <pt x="460" y="1827" on="0"/>
        <pt x="438" y="1773" on="0"/>
        <pt x="397" y="1733" on="0"/>
        <pt x="338" y="1711" on="0"/>
      </contour>
      <contour>
        <pt x="-202" y="1711" on="1"/>
        <pt x="-237" y="1711" on="0"/>
        <pt x="-294" y="1733" on="0"/>
        <pt x="-335" y="1772" on="0"/>
        <pt x="-357" y="1827" on="0"/>
        <pt x="-357" y="1860" on="1"/>
        <pt x="-357" y="1929" on="0"/>
        <pt x="-272" y="2011" on="0"/>
        <pt x="-202" y="2011" on="1"/>
        <pt x="-128" y="2011" on="0"/>
        <pt x="-42" y="1929" on="0"/>
        <pt x="-42" y="1860" on="1"/>
        <pt x="-42" y="1827" on="0"/>
        <pt x="-64" y="1772" on="0"/>
        <pt x="-106" y="1733" on="0"/>
        <pt x="-165" y="1711" on="0"/>
      </contour>
    </TTGlyph>
    <TTGlyph name="divide" xMin="205" yMin="140" xMax="1139" yMax="1366">
      <contour>
        <pt x="670" y="1062" on="1"/>
        <pt x="598" y="1062" on="0"/>
        <pt x="512" y="1146" on="0"/>
        <pt x="512" y="1214" on="1"/>
        <pt x="512" y="1282" on="0"/>
        <pt x="598" y="1366" on="0"/>
        <pt x="670" y="1366" on="1"/>
        <pt x="744" y="1366" on="0"/>
        <pt x="831" y="1282" on="0"/>
        <pt x="831" y="1214" on="1"/>
        <pt x="831" y="1146" on="0"/>
        <pt x="744" y="1062" on="0"/>
      </contour>
      <contour>
        <pt x="205" y="860" on="1"/>
        <pt x="1139" y="860" on="1"/>
        <pt x="1139" y="646" on="1"/>
        <pt x="205" y="646" on="1"/>
      </contour>
      <contour>
        <pt x="512" y="292" on="1"/>
        <pt x="512" y="360" on="0"/>
        <pt x="598" y="443" on="0"/>
        <pt x="670" y="443" on="1"/>
        <pt x="744" y="443" on="0"/>
        <pt x="831" y="360" on="0"/>
        <pt x="831" y="292" on="1"/>
        <pt x="831" y="224" on="0"/>
        <pt x="744" y="140" on="0"/>
        <pt x="670" y="140" on="1"/>
        <pt x="598" y="140" on="0"/>
        <pt x="512" y="224" on="0"/>
      </contour>
    </TTGlyph>
    <TTGlyph name="dollar" xMin="137" yMin="-342" xMax="953" yMax="1912">
      <contour>
        <pt x="144" y="299" on="1"/>
        <pt x="231" y="239" on="0"/>
        <pt x="392" y="190" on="0"/>
        <pt x="469" y="190" on="1"/>
        <pt x="537" y="190" on="0"/>
        <pt x="629" y="222" on="0"/>
        <pt x="684" y="273" on="0"/>
        <pt x="707" y="339" on="0"/>
        <pt x="707" y="373" on="1"/>
        <pt x="707" y="428" on="0"/>
        <pt x="658" y="519" on="0"/>
        <pt x="578" y="600" on="0"/>
        <pt x="475" y="677" on="0"/>
        <pt x="369" y="759" on="0"/>
        <pt x="266" y="851" on="0"/>
        <pt x="186" y="961" on="0"/>
        <pt x="137" y="1095" on="0"/>
        <pt x="137" y="1179" on="1"/>
        <pt x="137" y="1254" on="0"/>
        <pt x="179" y="1381" on="0"/>
        <pt x="255" y="1480" on="0"/>
        <pt x="361" y="1551" on="0"/>
        <pt x="426" y="1570" on="1"/>
        <pt x="426" y="1912" on="1"/>
        <pt x="640" y="1912" on="1"/>
        <pt x="640" y="1588" on="1"/>
        <pt x="701" y="1582" on="0"/>
        <pt x="818" y="1552" on="0"/>
        <pt x="863" y="1530" on="1"/>
        <pt x="862" y="1294" on="1"/>
        <pt x="790" y="1340" on="0"/>
        <pt x="661" y="1381" on="0"/>
        <pt x="598" y="1381" on="1"/>
        <pt x="542" y="1381" on="0"/>
        <pt x="461" y="1352" on="0"/>
        <pt x="408" y="1302" on="0"/>
        <pt x="382" y="1234" on="0"/>
        <pt x="382" y="1194" on="1"/>
        <pt x="382" y="1136" on="0"/>
        <pt x="431" y="1042" on="0"/>
        <pt x="511" y="960" on="0"/>
        <pt x="614" y="885" on="0"/>
        <pt x="721" y="805" on="0"/>
        <pt x="824" y="717" on="0"/>
        <pt x="904" y="610" on="0"/>
        <pt x="953" y="479" on="0"/>
        <pt x="953" y="396" on="1"/>
        <pt x="953" y="321" on="0"/>
        <pt x="910" y="192" on="0"/>
        <pt x="830" y="89" on="0"/>
        <pt x="715" y="16" on="0"/>
        <pt x="642" y="-3" on="1"/>
        <pt x="642" y="-342" on="1"/>
        <pt x="429" y="-342" on="1"/>
        <pt x="429" y="-20" on="1"/>
        <pt x="390" y="-17" on="0"/>
        <pt x="311" y="-4" on="0"/>
        <pt x="237" y="15" on="0"/>
        <pt x="169" y="41" on="0"/>
        <pt x="142" y="57" on="1"/>
      </contour>
    </TTGlyph>
    <TTGlyph name="dotlessi" xMin="182" yMin="0" xMax="422" yMax="1135">
      <contour>
        <pt x="182" y="1135" on="1"/>
        <pt x="422" y="1135" on="1"/>
        <pt x="422" y="0" on="1"/>
        <pt x="182" y="0" on="1"/>
      </contour>
    </TTGlyph>
    <TTGlyph name="dotlessj" xMin="79" yMin="-520" xMax="425" yMax="1135">
      <contour>
        <pt x="182" y="1135" on="1"/>
        <pt x="425" y="1135" on="1"/>
        <pt x="425" y="-187" on="1"/>
        <pt x="425" y="-262" on="0"/>
        <pt x="379" y="-385" on="0"/>
        <pt x="291" y="-472" on="0"/>
        <pt x="162" y="-520" on="0"/>
        <pt x="79" y="-520" on="1"/>
        <pt x="79" y="-342" on="1"/>
        <pt x="133" y="-337" on="0"/>
        <pt x="182" y="-281" on="0"/>
        <pt x="182" y="-224" on="1"/>
      </contour>
    </TTGlyph>
    <TTGlyph name="e" xMin="85" yMin="-23" xMax="1010" yMax="1157">
      <contour>
        <pt x="85" y="575" on="1"/>
        <pt x="85" y="727" on="0"/>
        <pt x="168" y="947" on="0"/>
        <pt x="307" y="1089" on="0"/>
        <pt x="488" y="1157" on="0"/>
        <pt x="586" y="1157" on="1"/>
        <pt x="678" y="1157" on="0"/>
        <pt x="834" y="1098" on="0"/>
        <pt x="947" y="980" on="0"/>
        <pt x="1010" y="803" on="0"/>
        <pt x="1010" y="686" on="1"/>
        <pt x="1010" y="634" on="0"/>
        <pt x="995" y="534" on="0"/>
        <pt x="978" y="488" on="1"/>
        <pt x="342" y="488" on="1"/>
        <pt x="354" y="385" on="0"/>
        <pt x="412" y="259" on="0"/>
        <pt x="496" y="189" on="0"/>
        <pt x="600" y="165" on="0"/>
        <pt x="659" y="165" on="1"/>
        <pt x="738" y="165" on="0"/>
        <pt x="866" y="207" on="0"/>
        <pt x="929" y="242" on="1"/>
        <pt x="929" y="50" on="1"/>
        <pt x="851" y="10" on="0"/>
        <pt x="694" y="-23" on="0"/>
        <pt x="616" y="-23" on="1"/>
        <pt x="493" y="-23" on="0"/>
        <pt x="296" y="57" on="0"/>
        <pt x="159" y="210" on="0"/>
        <pt x="85" y="433" on="0"/>
      </contour>
      <contour>
        <pt x="770" y="651" on="1"/>
        <pt x="780" y="723" on="0"/>
        <pt x="766" y="841" on="0"/>
        <pt x="717" y="925" on="0"/>
        <pt x="635" y="970" on="0"/>
        <pt x="578" y="970" on="1"/>
        <pt x="471" y="970" on="0"/>
        <pt x="340" y="807" on="0"/>
        <pt x="335" y="651" on="1"/>
      </contour>
    </TTGlyph>
    <TTGlyph name="eacute" xMin="85" yMin="-23" xMax="1010" yMax="1723">
      <component glyphName="e" x="0" y="0" flags="0x204"/>
      <component glyphName="acute" x="517" y="0" flags="0x4"/>
    </TTGlyph>
    <TTGlyph name="ecircumflex" xMin="85" yMin="-23" xMax="1010" yMax="1720">
      <component glyphName="e" x="0" y="0" flags="0x204"/>
      <component glyphName="circumflex" x="526" y="0" flags="0x4"/>
    </TTGlyph>
    <TTGlyph name="edieresis" xMin="85" yMin="-23" xMax="1010" yMax="1688">
      <component glyphName="e" x="0" y="0" flags="0x204"/>
      <component glyphName="dieresis" x="526" y="0" flags="0x4"/>
    </TTGlyph>
    <TTGlyph name="egrave" xMin="85" yMin="-23" xMax="1010" yMax="1723">
      <component glyphName="e" x="0" y="0" flags="0x204"/>
      <component glyphName="grave" x="504" y="0" flags="0x4"/>
    </TTGlyph>
    <TTGlyph name="eight" xMin="85" yMin="-22" xMax="1139" yMax="1593">
      <contour>
        <pt x="85" y="447" on="1"/>
        <pt x="85" y="509" on="0"/>
        <pt x="117" y="630" on="0"/>
        <pt x="188" y="739" on="0"/>
        <pt x="300" y="831" on="0"/>
        <pt x="381" y="864" on="1"/>
        <pt x="381" y="882" on="1"/>
        <pt x="343" y="901" on="0"/>
        <pt x="269" y="959" on="0"/>
        <pt x="212" y="1042" on="0"/>
        <pt x="177" y="1156" on="0"/>
        <pt x="177" y="1233" on="1"/>
        <pt x="177" y="1306" on="0"/>
        <pt x="232" y="1437" on="0"/>
        <pt x="342" y="1535" on="0"/>
        <pt x="505" y="1593" on="0"/>
        <pt x="612" y="1593" on="1"/>
        <pt x="719" y="1593" on="0"/>
        <pt x="882" y="1535" on="0"/>
        <pt x="992" y="1437" on="0"/>
        <pt x="1048" y="1306" on="0"/>
        <pt x="1048" y="1233" on="1"/>
        <pt x="1048" y="1156" on="0"/>
        <pt x="1013" y="1042" on="0"/>
        <pt x="955" y="959" on="0"/>
        <pt x="882" y="901" on="0"/>
        <pt x="844" y="882" on="1"/>
        <pt x="844" y="864" on="1"/>
        <pt x="924" y="831" on="0"/>
        <pt x="1036" y="739" on="0"/>
        <pt x="1107" y="630" on="0"/>
        <pt x="1139" y="509" on="0"/>
        <pt x="1139" y="447" on="1"/>
        <pt x="1139" y="357" on="0"/>
        <pt x="1075" y="187" on="0"/>
        <pt x="944" y="57" on="0"/>
        <pt x="746" y="-22" on="0"/>
        <pt x="612" y="-22" on="1"/>
        <pt x="478" y="-22" on="0"/>
        <pt x="279" y="57" on="0"/>
        <pt x="149" y="187" on="0"/>
        <pt x="85" y="357" on="0"/>
      </contour>
      <contour>
        <pt x="611" y="969" on="1"/>
        <pt x="653" y="969" on="0"/>
        <pt x="723" y="998" on="0"/>
        <pt x="773" y="1055" on="0"/>
        <pt x="801" y="1140" on="0"/>
        <pt x="801" y="1195" on="1"/>
        <pt x="801" y="1293" on="0"/>
        <pt x="704" y="1400" on="0"/>
        <pt x="612" y="1400" on="1"/>
        <pt x="520" y="1400" on="0"/>
        <pt x="423" y="1293" on="0"/>
        <pt x="423" y="1195" on="1"/>
        <pt x="423" y="1140" on="0"/>
        <pt x="451" y="1055" on="0"/>
        <pt x="501" y="998" on="0"/>
        <pt x="570" y="969" on="0"/>
      </contour>
      <contour>
        <pt x="332" y="462" on="1"/>
        <pt x="332" y="396" on="0"/>
        <pt x="369" y="290" on="0"/>
        <pt x="441" y="217" on="0"/>
        <pt x="545" y="177" on="0"/>
        <pt x="612" y="177" on="1"/>
        <pt x="679" y="177" on="0"/>
        <pt x="784" y="217" on="0"/>
        <pt x="856" y="290" on="0"/>
        <pt x="893" y="396" on="0"/>
        <pt x="893" y="462" on="1"/>
        <pt x="893" y="529" on="0"/>
        <pt x="854" y="633" on="0"/>
        <pt x="781" y="705" on="0"/>
        <pt x="677" y="742" on="0"/>
        <pt x="612" y="742" on="1"/>
        <pt x="547" y="742" on="0"/>
        <pt x="443" y="705" on="0"/>
        <pt x="371" y="633" on="0"/>
        <pt x="332" y="529" on="0"/>
      </contour>
    </TTGlyph>
    <TTGlyph name="ellipsis" xMin="171" yMin="-22" xMax="2028" yMax="350">
      <contour>
        <pt x="1637" y="164" on="1"/>
        <pt x="1637" y="206" on="0"/>
        <pt x="1664" y="274" on="0"/>
        <pt x="1715" y="323" on="0"/>
        <pt x="1787" y="350" on="0"/>
        <pt x="1831" y="350" on="1"/>
        <pt x="1876" y="350" on="0"/>
        <pt x="1949" y="323" on="0"/>
        <pt x="2000" y="274" on="0"/>
        <pt x="2028" y="206" on="0"/>
        <pt x="2028" y="164" on="1"/>
        <pt x="2028" y="123" on="0"/>
        <pt x="2000" y="54" on="0"/>
        <pt x="1949" y="5" on="0"/>
        <pt x="1876" y="-22" on="0"/>
        <pt x="1831" y="-22" on="1"/>
        <pt x="1787" y="-22" on="0"/>
        <pt x="1715" y="5" on="0"/>
        <pt x="1664" y="54" on="0"/>
        <pt x="1637" y="123" on="0"/>
      </contour>
      <contour>
        <pt x="904" y="164" on="1"/>
        <pt x="904" y="206" on="0"/>
        <pt x="931" y="274" on="0"/>
        <pt x="982" y="323" on="0"/>
        <pt x="1054" y="350" on="0"/>
        <pt x="1098" y="350" on="1"/>
        <pt x="1143" y="350" on="0"/>
        <pt x="1216" y="323" on="0"/>
        <pt x="1267" y="274" on="0"/>
        <pt x="1295" y="206" on="0"/>
        <pt x="1295" y="164" on="1"/>
        <pt x="1295" y="123" on="0"/>
        <pt x="1267" y="54" on="0"/>
        <pt x="1216" y="5" on="0"/>
        <pt x="1143" y="-22" on="0"/>
        <pt x="1098" y="-22" on="1"/>
        <pt x="1054" y="-22" on="0"/>
        <pt x="982" y="5" on="0"/>
        <pt x="931" y="54" on="0"/>
        <pt x="904" y="123" on="0"/>
      </contour>
      <contour>
        <pt x="171" y="164" on="1"/>
        <pt x="171" y="206" on="0"/>
        <pt x="198" y="274" on="0"/>
        <pt x="249" y="323" on="0"/>
        <pt x="321" y="350" on="0"/>
        <pt x="365" y="350" on="1"/>
        <pt x="410" y="350" on="0"/>
        <pt x="483" y="323" on="0"/>
        <pt x="534" y="274" on="0"/>
        <pt x="562" y="206" on="0"/>
        <pt x="562" y="164" on="1"/>
        <pt x="562" y="123" on="0"/>
        <pt x="534" y="54" on="0"/>
        <pt x="483" y="5" on="0"/>
        <pt x="410" y="-22" on="0"/>
        <pt x="365" y="-22" on="1"/>
        <pt x="321" y="-22" on="0"/>
        <pt x="249" y="5" on="0"/>
        <pt x="198" y="54" on="0"/>
        <pt x="171" y="123" on="0"/>
      </contour>
    </TTGlyph>
    <TTGlyph name="emdash" xMin="205" yMin="646" xMax="1709" yMax="860">
      <contour>
        <pt x="205" y="860" on="1"/>
        <pt x="1709" y="860" on="1"/>
        <pt x="1709" y="646" on="1"/>
        <pt x="205" y="646" on="1"/>
      </contour>
    </TTGlyph>
    <TTGlyph name="endash" xMin="205" yMin="646" xMax="1287" yMax="860">
      <contour>
        <pt x="205" y="860" on="1"/>
        <pt x="1287" y="860" on="1"/>
        <pt x="1287" y="646" on="1"/>
        <pt x="205" y="646" on="1"/>
      </contour>
    </TTGlyph>
    <TTGlyph name="equal" xMin="205" yMin="423" xMax="1139" yMax="1085">
      <contour>
        <pt x="205" y="1085" on="1"/>
        <pt x="1139" y="1085" on="1"/>
        <pt x="1139" y="872" on="1"/>
        <pt x="205" y="872" on="1"/>
      </contour>
      <contour>
        <pt x="205" y="636" on="1"/>
        <pt x="1139" y="636" on="1"/>
        <pt x="1139" y="423" on="1"/>
        <pt x="205" y="423" on="1"/>
      </contour>
    </TTGlyph>
    <TTGlyph name="eth" xMin="85" yMin="-23" xMax="1104" yMax="1737">
      <contour>
        <pt x="85" y="559" on="1"/>
        <pt x="85" y="690" on="0"/>
        <pt x="155" y="897" on="0"/>
        <pt x="278" y="1040" on="0"/>
        <pt x="443" y="1115" on="0"/>
        <pt x="538" y="1115" on="1"/>
        <pt x="643" y="1115" on="0"/>
        <pt x="811" y="1026" on="0"/>
        <pt x="864" y="945" on="1"/>
        <pt x="837" y="1077" on="0"/>
        <pt x="707" y="1288" on="0"/>
        <pt x="607" y="1366" on="1"/>
        <pt x="377" y="1189" on="1"/>
        <pt x="377" y="1367" on="1"/>
        <pt x="481" y="1446" on="1"/>
        <pt x="389" y="1493" on="0"/>
        <pt x="279" y="1522" on="1"/>
        <pt x="279" y="1711" on="1"/>
        <pt x="384" y="1688" on="0"/>
        <pt x="566" y="1619" on="0"/>
        <pt x="645" y="1572" on="1"/>
        <pt x="860" y="1737" on="1"/>
        <pt x="860" y="1560" on="1"/>
        <pt x="765" y="1487" on="1"/>
        <pt x="933" y="1348" on="0"/>
        <pt x="1104" y="941" on="0"/>
        <pt x="1104" y="677" on="1"/>
        <pt x="1104" y="493" on="0"/>
        <pt x="1024" y="229" on="0"/>
        <pt x="885" y="58" on="0"/>
        <pt x="696" y="-23" on="0"/>
        <pt x="588" y="-23" on="1"/>
        <pt x="474" y="-23" on="0"/>
        <pt x="289" y="60" on="0"/>
        <pt x="157" y="212" on="0"/>
        <pt x="85" y="427" on="0"/>
      </contour>
      <contour>
        <pt x="597" y="164" on="1"/>
        <pt x="670" y="164" on="0"/>
        <pt x="783" y="242" on="0"/>
        <pt x="852" y="386" on="0"/>
        <pt x="872" y="591" on="0"/>
        <pt x="854" y="719" on="1"/>
        <pt x="835" y="766" on="0"/>
        <pt x="779" y="843" on="0"/>
        <pt x="708" y="898" on="0"/>
        <pt x="624" y="928" on="0"/>
        <pt x="579" y="928" on="1"/>
        <pt x="515" y="928" on="0"/>
        <pt x="421" y="870" on="0"/>
        <pt x="360" y="769" on="0"/>
        <pt x="330" y="631" on="0"/>
        <pt x="330" y="551" on="1"/>
        <pt x="330" y="457" on="0"/>
        <pt x="370" y="312" on="0"/>
        <pt x="441" y="214" on="0"/>
        <pt x="539" y="164" on="0"/>
      </contour>
    </TTGlyph>
    <TTGlyph name="exclam" xMin="169" yMin="-19" xMax="555" yMax="1721">
      <contour>
        <pt x="225" y="1721" on="1"/>
        <pt x="503" y="1721" on="1"/>
        <pt x="449" y="628" on="1"/>
        <pt x="278" y="628" on="1"/>
      </contour>
      <contour>
        <pt x="169" y="162" on="1"/>
        <pt x="169" y="202" on="0"/>
        <pt x="196" y="269" on="0"/>
        <pt x="246" y="317" on="0"/>
        <pt x="317" y="343" on="0"/>
        <pt x="360" y="343" on="1"/>
        <pt x="405" y="343" on="0"/>
        <pt x="477" y="317" on="0"/>
        <pt x="528" y="269" on="0"/>
        <pt x="555" y="202" on="0"/>
        <pt x="555" y="162" on="1"/>
        <pt x="555" y="121" on="0"/>
        <pt x="528" y="55" on="0"/>
        <pt x="477" y="7" on="0"/>
        <pt x="405" y="-19" on="0"/>
        <pt x="360" y="-19" on="1"/>
        <pt x="317" y="-19" on="0"/>
        <pt x="246" y="7" on="0"/>
        <pt x="196" y="55" on="0"/>
        <pt x="169" y="121" on="0"/>
      </contour>
    </TTGlyph>
    <TTGlyph name="exclamdown" xMin="169" yMin="-352" xMax="555" yMax="1388">
      <component glyphName="exclam" x="0" y="1369" scalex="1.0" scaley="-0.999938964844" flags="0x4"/>
    </TTGlyph>
    <TTGlyph name="f" xMin="85" yMin="0" xMax="651" yMax="1723">
      <contour>
        <pt x="202" y="958" on="1"/>
        <pt x="85" y="958" on="1"/>
        <pt x="85" y="1135" on="1"/>
        <pt x="202" y="1135" on="1"/>
        <pt x="202" y="1357" on="1"/>
        <pt x="202" y="1439" on="0"/>
        <pt x="248" y="1574" on="0"/>
        <pt x="339" y="1670" on="0"/>
        <pt x="475" y="1723" on="0"/>
        <pt x="565" y="1723" on="1"/>
        <pt x="588" y="1723" on="0"/>
        <pt x="637" y="1719" on="0"/>
        <pt x="651" y="1716" on="1"/>
        <pt x="651" y="1522" on="1"/>
        <pt x="618" y="1537" on="0"/>
        <pt x="581" y="1537" on="1"/>
        <pt x="514" y="1537" on="0"/>
        <pt x="442" y="1458" on="0"/>
        <pt x="442" y="1386" on="1"/>
        <pt x="442" y="1135" on="1"/>
        <pt x="625" y="1135" on="1"/>
        <pt x="625" y="958" on="1"/>
        <pt x="442" y="958" on="1"/>
        <pt x="442" y="0" on="1"/>
        <pt x="202" y="0" on="1"/>
      </contour>
    </TTGlyph>
    <TTGlyph name="ff" xMin="85" yMin="0" xMax="1345" yMax="1723">
      <component glyphName="f" x="0" y="0" flags="0x4"/>
      <component glyphName="f" x="694" y="0" flags="0x4"/>
    </TTGlyph>
    <TTGlyph name="ffi" xMin="85" yMin="0" xMax="1851" yMax="1723">
      <component glyphName="f" x="0" y="0" flags="0x4"/>
      <component glyphName="f" x="694" y="0" flags="0x4"/>
      <component glyphName="i" x="1388" y="0" flags="0x4"/>
    </TTGlyph>
    <TTGlyph name="ffl" xMin="85" yMin="0" xMax="1797" yMax="1723">
      <component glyphName="f" x="0" y="0" flags="0x4"/>
      <component glyphName="f" x="694" y="0" flags="0x4"/>
      <component glyphName="l" x="1388" y="0" flags="0x4"/>
    </TTGlyph>
    <TTGlyph name="fi" xMin="85" yMin="0" xMax="1157" yMax="1723">
      <component glyphName="f" x="0" y="0" flags="0x4"/>
      <component glyphName="i" x="694" y="0" flags="0x4"/>
    </TTGlyph>
    <TTGlyph name="five" xMin="155" yMin="-23" xMax="1125" yMax="1571">
      <contour>
        <pt x="155" y="303" on="1"/>
        <pt x="210" y="266" on="0"/>
        <pt x="315" y="220" on="0"/>
        <pt x="411" y="194" on="0"/>
        <pt x="496" y="184" on="0"/>
        <pt x="532" y="184" on="1"/>
        <pt x="621" y="184" on="0"/>
        <pt x="752" y="229" on="0"/>
        <pt x="837" y="308" on="0"/>
        <pt x="879" y="417" on="0"/>
        <pt x="879" y="481" on="1"/>
        <pt x="879" y="550" on="0"/>
        <pt x="835" y="661" on="0"/>
        <pt x="749" y="738" on="0"/>
        <pt x="624" y="779" on="0"/>
        <pt x="543" y="779" on="1"/>
        <pt x="459" y="779" on="0"/>
        <pt x="283" y="726" on="0"/>
        <pt x="192" y="665" on="1"/>
        <pt x="192" y="1571" on="1"/>
        <pt x="1010" y="1571" on="1"/>
        <pt x="1010" y="1369" on="1"/>
        <pt x="431" y="1369" on="1"/>
        <pt x="431" y="931" on="1"/>
        <pt x="453" y="931" on="1"/>
        <pt x="498" y="955" on="0"/>
        <pt x="594" y="985" on="0"/>
        <pt x="659" y="985" on="1"/>
        <pt x="755" y="985" on="0"/>
        <pt x="924" y="917" on="0"/>
        <pt x="1051" y="789" on="0"/>
        <pt x="1125" y="608" on="0"/>
        <pt x="1125" y="495" on="1"/>
        <pt x="1125" y="383" on="0"/>
        <pt x="1045" y="193" on="0"/>
        <pt x="894" y="55" on="0"/>
        <pt x="677" y="-23" on="0"/>
        <pt x="541" y="-23" on="1"/>
        <pt x="500" y="-23" on="0"/>
        <pt x="399" y="-13" on="0"/>
        <pt x="294" y="7" on="0"/>
        <pt x="194" y="38" on="0"/>
        <pt x="155" y="59" on="1"/>
      </contour>
    </TTGlyph>
    <TTGlyph name="fl" xMin="85" yMin="0" xMax="1103" yMax="1723">
      <component glyphName="f" x="0" y="0" flags="0x4"/>
      <component glyphName="l" x="694" y="0" flags="0x4"/>
    </TTGlyph>
    <TTGlyph name="florin" xMin="-78" yMin="-11" xMax="697" yMax="1723">
      <contour>
        <pt x="6" y="-11" on="1"/>
        <pt x="-17" y="-11" on="0"/>
        <pt x="-65" y="-7" on="0"/>
        <pt x="-78" y="-4" on="1"/>
        <pt x="-78" y="190" on="1"/>
        <pt x="-60" y="182" on="0"/>
        <pt x="-17" y="175" on="0"/>
        <pt x="3" y="175" on="1"/>
        <pt x="70" y="175" on="0"/>
        <pt x="148" y="254" on="0"/>
        <pt x="153" y="326" on="1"/>
        <pt x="196" y="958" on="1"/>
        <pt x="85" y="958" on="1"/>
        <pt x="85" y="1135" on="1"/>
        <pt x="208" y="1135" on="1"/>
        <pt x="224" y="1357" on="1"/>
        <pt x="230" y="1439" on="0"/>
        <pt x="285" y="1574" on="0"/>
        <pt x="382" y="1670" on="0"/>
        <pt x="522" y="1723" on="0"/>
        <pt x="612" y="1723" on="1"/>
        <pt x="635" y="1723" on="0"/>
        <pt x="684" y="1719" on="0"/>
        <pt x="697" y="1716" on="1"/>
        <pt x="697" y="1522" on="1"/>
        <pt x="679" y="1530" on="0"/>
        <pt x="635" y="1537" on="0"/>
        <pt x="615" y="1537" on="1"/>
        <pt x="548" y="1537" on="0"/>
        <pt x="471" y="1458" on="0"/>
        <pt x="466" y="1386" on="1"/>
        <pt x="448" y="1135" on="1"/>
        <pt x="625" y="1135" on="1"/>
        <pt x="625" y="958" on="1"/>
        <pt x="436" y="958" on="1"/>
        <pt x="395" y="355" on="1"/>
        <pt x="389" y="273" on="0"/>
        <pt x="333" y="138" on="0"/>
        <pt x="236" y="42" on="0"/>
        <pt x="96" y="-11" on="0"/>
      </contour>
    </TTGlyph>
    <TTGlyph name="four" xMin="82" yMin="0" xMax="1261" yMax="1571">
      <contour>
        <pt x="83" y="556" on="1"/>
        <pt x="82" y="557" on="1"/>
        <pt x="83" y="558" on="1"/>
        <pt x="83" y="559" on="1"/>
        <pt x="793" y="1571" on="1"/>
        <pt x="1007" y="1571" on="1"/>
        <pt x="1007" y="559" on="1"/>
        <pt x="1261" y="559" on="1"/>
        <pt x="1261" y="348" on="1"/>
        <pt x="1007" y="348" on="1"/>
        <pt x="1007" y="0" on="1"/>
        <pt x="767" y="0" on="1"/>
        <pt x="767" y="348" on="1"/>
        <pt x="83" y="348" on="1"/>
      </contour>
      <contour>
        <pt x="767" y="559" on="1"/>
        <pt x="767" y="775" on="1"/>
        <pt x="799" y="1263" on="1"/>
        <pt x="341" y="559" on="1"/>
      </contour>
    </TTGlyph>
    <TTGlyph name="g" xMin="108" yMin="-520" xMax="1157" yMax="1157">
      <contour>
        <pt x="108" y="-201" on="1"/>
        <pt x="108" y="-112" on="0"/>
        <pt x="205" y="-3" on="0"/>
        <pt x="285" y="29" on="1"/>
        <pt x="239" y="58" on="0"/>
        <pt x="187" y="159" on="0"/>
        <pt x="186" y="215" on="1"/>
        <pt x="185" y="280" on="0"/>
        <pt x="264" y="397" on="0"/>
        <pt x="337" y="431" on="1"/>
        <pt x="243" y="479" on="0"/>
        <pt x="131" y="651" on="0"/>
        <pt x="131" y="772" on="1"/>
        <pt x="131" y="865" on="0"/>
        <pt x="203" y="1008" on="0"/>
        <pt x="324" y="1106" on="0"/>
        <pt x="485" y="1157" on="0"/>
        <pt x="575" y="1157" on="1"/>
        <pt x="663" y="1157" on="0"/>
        <pt x="818" y="1112" on="0"/>
        <pt x="879" y="1069" on="1"/>
        <pt x="907" y="1117" on="0"/>
        <pt x="1003" y="1157" on="0"/>
        <pt x="1060" y="1157" on="1"/>
        <pt x="1157" y="1157" on="1"/>
        <pt x="1157" y="977" on="1"/>
        <pt x="1102" y="977" on="1"/>
        <pt x="1073" y="977" on="0"/>
        <pt x="1011" y="967" on="0"/>
        <pt x="985" y="956" on="1"/>
        <pt x="1011" y="914" on="0"/>
        <pt x="1038" y="813" on="0"/>
        <pt x="1038" y="755" on="1"/>
        <pt x="1038" y="662" on="0"/>
        <pt x="967" y="520" on="0"/>
        <pt x="845" y="423" on="0"/>
        <pt x="684" y="374" on="0"/>
        <pt x="594" y="374" on="1"/>
        <pt x="572" y="374" on="0"/>
        <pt x="529" y="377" on="0"/>
        <pt x="509" y="379" on="1"/>
        <pt x="463" y="370" on="0"/>
        <pt x="414" y="315" on="0"/>
        <pt x="414" y="267" on="1"/>
        <pt x="414" y="223" on="0"/>
        <pt x="455" y="173" on="0"/>
        <pt x="521" y="149" on="0"/>
        <pt x="602" y="144" on="0"/>
        <pt x="642" y="144" on="1"/>
        <pt x="704" y="144" on="0"/>
        <pt x="825" y="137" on="0"/>
        <pt x="933" y="114" on="0"/>
        <pt x="1024" y="73" on="0"/>
        <pt x="1091" y="3" on="0"/>
        <pt x="1128" y="-99" on="0"/>
        <pt x="1128" y="-170" on="1"/>
        <pt x="1128" y="-247" on="0"/>
        <pt x="1063" y="-375" on="0"/>
        <pt x="933" y="-468" on="0"/>
        <pt x="740" y="-520" on="0"/>
        <pt x="611" y="-520" on="1"/>
        <pt x="481" y="-520" on="0"/>
        <pt x="292" y="-473" on="0"/>
        <pt x="168" y="-388" on="0"/>
        <pt x="108" y="-271" on="0"/>
      </contour>
      <contour>
        <pt x="583" y="551" on="1"/>
        <pt x="689" y="551" on="0"/>
        <pt x="804" y="652" on="0"/>
        <pt x="804" y="764" on="1"/>
        <pt x="804" y="876" on="0"/>
        <pt x="686" y="980" on="0"/>
        <pt x="586" y="980" on="1"/>
        <pt x="480" y="980" on="0"/>
        <pt x="366" y="875" on="0"/>
        <pt x="366" y="763" on="1"/>
        <pt x="366" y="707" on="0"/>
        <pt x="396" y="626" on="0"/>
        <pt x="452" y="575" on="0"/>
        <pt x="532" y="551" on="0"/>
      </contour>
      <contour>
        <pt x="343" y="-171" on="1"/>
        <pt x="343" y="-207" on="0"/>
        <pt x="373" y="-270" on="0"/>
        <pt x="440" y="-317" on="0"/>
        <pt x="547" y="-344" on="0"/>
        <pt x="625" y="-344" on="1"/>
        <pt x="761" y="-344" on="0"/>
        <pt x="894" y="-254" on="0"/>
        <pt x="894" y="-179" on="1"/>
        <pt x="894" y="-131" on="0"/>
        <pt x="845" y="-75" on="0"/>
        <pt x="762" y="-46" on="0"/>
        <pt x="654" y="-38" on="0"/>
        <pt x="596" y="-38" on="1"/>
        <pt x="565" y="-38" on="0"/>
        <pt x="488" y="-35" on="0"/>
        <pt x="454" y="-33" on="1"/>
        <pt x="416" y="-41" on="0"/>
        <pt x="372" y="-72" on="0"/>
        <pt x="350" y="-109" on="0"/>
        <pt x="343" y="-151" on="0"/>
      </contour>
    </TTGlyph>
    <TTGlyph name="germandbls" xMin="81" yMin="-23" xMax="1240" yMax="1711">
      <contour>
        <pt x="202" y="958" on="1"/>
        <pt x="81" y="958" on="1"/>
        <pt x="81" y="1135" on="1"/>
        <pt x="202" y="1135" on="1"/>
        <pt x="202" y="1232" on="1"/>
        <pt x="202" y="1342" on="0"/>
        <pt x="260" y="1519" on="0"/>
        <pt x="369" y="1644" on="0"/>
        <pt x="524" y="1711" on="0"/>
        <pt x="621" y="1711" on="1"/>
        <pt x="723" y="1711" on="0"/>
        <pt x="879" y="1657" on="0"/>
        <pt x="985" y="1561" on="0"/>
        <pt x="1039" y="1429" on="0"/>
        <pt x="1039" y="1351" on="1"/>
        <pt x="1039" y="1298" on="0"/>
        <pt x="1012" y="1203" on="0"/>
        <pt x="973" y="1119" on="0"/>
        <pt x="926" y="1042" on="0"/>
        <pt x="887" y="971" on="0"/>
        <pt x="860" y="904" on="0"/>
        <pt x="860" y="872" on="1"/>
        <pt x="860" y="824" on="0"/>
        <pt x="916" y="750" on="0"/>
        <pt x="1001" y="681" on="0"/>
        <pt x="1099" y="608" on="0"/>
        <pt x="1184" y="516" on="0"/>
        <pt x="1240" y="397" on="0"/>
        <pt x="1240" y="316" on="1"/>
        <pt x="1240" y="237" on="0"/>
        <pt x="1181" y="111" on="0"/>
        <pt x="1073" y="24" on="0"/>
        <pt x="919" y="-23" on="0"/>
        <pt x="824" y="-23" on="1"/>
        <pt x="748" y="-23" on="0"/>
        <pt x="624" y="9" on="0"/>
        <pt x="565" y="41" on="1"/>
        <pt x="567" y="251" on="1"/>
        <pt x="630" y="204" on="0"/>
        <pt x="758" y="165" on="0"/>
        <pt x="819" y="165" on="1"/>
        <pt x="912" y="165" on="0"/>
        <pt x="994" y="240" on="0"/>
        <pt x="994" y="299" on="1"/>
        <pt x="994" y="338" on="0"/>
        <pt x="961" y="401" on="0"/>
        <pt x="907" y="456" on="0"/>
        <pt x="838" y="506" on="0"/>
        <pt x="767" y="559" on="0"/>
        <pt x="698" y="617" on="0"/>
        <pt x="644" y="689" on="0"/>
        <pt x="611" y="778" on="0"/>
        <pt x="611" y="834" on="1"/>
        <pt x="611" y="886" on="0"/>
        <pt x="638" y="979" on="0"/>
        <pt x="678" y="1065" on="0"/>
        <pt x="725" y="1146" on="0"/>
        <pt x="765" y="1227" on="0"/>
        <pt x="792" y="1309" on="0"/>
        <pt x="792" y="1353" on="1"/>
        <pt x="792" y="1398" on="0"/>
        <pt x="763" y="1462" on="0"/>
        <pt x="714" y="1504" on="0"/>
        <pt x="651" y="1524" on="0"/>
        <pt x="617" y="1524" on="1"/>
        <pt x="581" y="1524" on="0"/>
        <pt x="517" y="1501" on="0"/>
        <pt x="470" y="1450" on="0"/>
        <pt x="443" y="1371" on="0"/>
        <pt x="443" y="1314" on="1"/>
        <pt x="443" y="0" on="1"/>
        <pt x="202" y="0" on="1"/>
      </contour>
    </TTGlyph>
    <TTGlyph name="grave" xMin="-388" yMin="1303" xMax="161" yMax="1723">
      <contour>
        <pt x="-388" y="1723" on="1"/>
        <pt x="-105" y="1723" on="1"/>
        <pt x="161" y="1303" on="1"/>
        <pt x="-54" y="1303" on="1"/>
      </contour>
    </TTGlyph>
    <TTGlyph name="grave.cap" xMin="-358" yMin="1711" xMax="121" yMax="2012">
      <contour>
        <pt x="-358" y="2012" on="1"/>
        <pt x="-75" y="2012" on="1"/>
        <pt x="121" y="1711" on="1"/>
        <pt x="-94" y="1711" on="1"/>
      </contour>
    </TTGlyph>
    <TTGlyph name="greater" xMin="114" yMin="67" xMax="1073" yMax="1255">
      <component glyphName="less" x="1218" y="0" scalex="-0.999938964844" scaley="1.0" flags="0x4"/>
    </TTGlyph>
    <TTGlyph name="guillemotleft" xMin="145" yMin="181" xMax="1503" yMax="1141">
      <component glyphName="guilsinglleft" x="0" y="0" flags="0x4"/>
      <component glyphName="guilsinglleft" x="707" y="0" flags="0x4"/>
    </TTGlyph>
    <TTGlyph name="guillemotright" xMin="189" yMin="181" xMax="1547" yMax="1141">
      <component glyphName="guilsinglleft" x="985" y="0" scalex="-0.999938964844" scaley="1.0" flags="0x4"/>
      <component glyphName="guilsinglleft" x="1692" y="0" scalex="-0.999938964844" scaley="1.0" flags="0x4"/>
    </TTGlyph>
    <TTGlyph name="guilsinglleft" xMin="145" yMin="181" xMax="796" yMax="1141">
      <contour>
        <pt x="145" y="661" on="1"/>
        <pt x="529" y="1141" on="1"/>
        <pt x="796" y="1141" on="1"/>
        <pt x="416" y="661" on="1"/>
        <pt x="796" y="181" on="1"/>
        <pt x="529" y="181" on="1"/>
      </contour>
    </TTGlyph>
    <TTGlyph name="guilsinglright" xMin="189" yMin="181" xMax="840" yMax="1141">
      <component glyphName="guilsinglleft" x="985" y="0" scalex="-0.999938964844" scaley="1.0" flags="0x4"/>
    </TTGlyph>
    <TTGlyph name="h" xMin="171" yMin="0" xMax="1083" yMax="1711">
      <contour>
        <pt x="171" y="1711" on="1"/>
        <pt x="413" y="1711" on="1"/>
        <pt x="413" y="1021" on="1"/>
        <pt x="463" y="1083" on="0"/>
        <pt x="615" y="1157" on="0"/>
        <pt x="727" y="1157" on="1"/>
        <pt x="902" y="1157" on="0"/>
        <pt x="1083" y="943" on="0"/>
        <pt x="1083" y="723" on="1"/>
        <pt x="1083" y="0" on="1"/>
        <pt x="841" y="0" on="1"/>
        <pt x="841" y="715" on="1"/>
        <pt x="841" y="845" on="0"/>
        <pt x="752" y="970" on="0"/>
        <pt x="661" y="970" on="1"/>
        <pt x="583" y="970" on="0"/>
        <pt x="458" y="903" on="0"/>
        <pt x="413" y="834" on="1"/>
        <pt x="413" y="0" on="1"/>
        <pt x="171" y="0" on="1"/>
      </contour>
    </TTGlyph>
    <TTGlyph name="hbar" xMin="63" yMin="0" xMax="1083" yMax="1711">
      <contour>
        <pt x="171" y="1322" on="1"/>
        <pt x="63" y="1322" on="1"/>
        <pt x="63" y="1500" on="1"/>
        <pt x="171" y="1500" on="1"/>
        <pt x="171" y="1711" on="1"/>
        <pt x="413" y="1711" on="1"/>
        <pt x="413" y="1500" on="1"/>
        <pt x="602" y="1500" on="1"/>
        <pt x="602" y="1322" on="1"/>
        <pt x="413" y="1322" on="1"/>
        <pt x="413" y="1021" on="1"/>
        <pt x="463" y="1083" on="0"/>
        <pt x="615" y="1157" on="0"/>
        <pt x="727" y="1157" on="1"/>
        <pt x="902" y="1157" on="0"/>
        <pt x="1083" y="943" on="0"/>
        <pt x="1083" y="723" on="1"/>
        <pt x="1083" y="0" on="1"/>
        <pt x="841" y="0" on="1"/>
        <pt x="841" y="715" on="1"/>
        <pt x="841" y="845" on="0"/>
        <pt x="752" y="970" on="0"/>
        <pt x="661" y="970" on="1"/>
        <pt x="583" y="970" on="0"/>
        <pt x="458" y="903" on="0"/>
        <pt x="413" y="834" on="1"/>
        <pt x="413" y="0" on="1"/>
        <pt x="171" y="0" on="1"/>
      </contour>
    </TTGlyph>
    <TTGlyph name="hyphen" xMin="205" yMin="646" xMax="911" yMax="860">
      <contour>
        <pt x="205" y="860" on="1"/>
        <pt x="911" y="860" on="1"/>
        <pt x="911" y="646" on="1"/>
        <pt x="205" y="646" on="1"/>
      </contour>
    </TTGlyph>
    <TTGlyph name="i" xMin="144" yMin="0" xMax="463" yMax="1688">
      <contour>
        <pt x="302" y="1385" on="1"/>
        <pt x="266" y="1385" on="0"/>
        <pt x="208" y="1407" on="0"/>
        <pt x="166" y="1447" on="0"/>
        <pt x="144" y="1503" on="0"/>
        <pt x="144" y="1537" on="1"/>
        <pt x="144" y="1571" on="0"/>
        <pt x="166" y="1626" on="0"/>
        <pt x="208" y="1666" on="0"/>
        <pt x="266" y="1688" on="0"/>
        <pt x="302" y="1688" on="1"/>
        <pt x="376" y="1688" on="0"/>
        <pt x="463" y="1605" on="0"/>
        <pt x="463" y="1537" on="1"/>
        <pt x="463" y="1469" on="0"/>
        <pt x="376" y="1385" on="0"/>
      </contour>
      <contour>
        <pt x="182" y="1135" on="1"/>
        <pt x="422" y="1135" on="1"/>
        <pt x="422" y="0" on="1"/>
        <pt x="182" y="0" on="1"/>
      </contour>
    </TTGlyph>
    <TTGlyph name="iacute" xMin="181" yMin="0" xMax="730" yMax="1723">
      <component glyphName="dotlessi" x="0" y="0" flags="0x204"/>
      <component glyphName="acute" x="242" y="0" flags="0x4"/>
    </TTGlyph>
    <TTGlyph name="icircumflex" xMin="-81" yMin="0" xMax="683" yMax="1720">
      <component glyphName="dotlessi" x="0" y="0" flags="0x204"/>
      <component glyphName="circumflex" x="251" y="0" flags="0x4"/>
    </TTGlyph>
    <TTGlyph name="idieresis" xMin="-89" yMin="0" xMax="703" yMax="1688">
      <component glyphName="dotlessi" x="6" y="0" flags="0x4"/>
      <component glyphName="dieresis" x="257" y="0" flags="0x4"/>
    </TTGlyph>
    <TTGlyph name="igrave" xMin="-153" yMin="0" xMax="428" yMax="1723">
      <component glyphName="dotlessi" x="6" y="0" flags="0x4"/>
      <component glyphName="grave" x="235" y="0" flags="0x4"/>
    </TTGlyph>
    <TTGlyph name="ij" xMin="144" yMin="-520" xMax="1067" yMax="1688">
      <component glyphName="i" x="0" y="0" flags="0x4"/>
      <component glyphName="j" x="604" y="0" flags="0x4"/>
    </TTGlyph>
    <TTGlyph name="itilde" xMin="-69" yMin="0" xMax="699" yMax="1709">
      <component glyphName="dotlessi" x="6" y="0" flags="0x4"/>
      <component glyphName="tilde" x="257" y="0" flags="0x4"/>
    </TTGlyph>
    <TTGlyph name="j" xMin="79" yMin="-520" xMax="463" yMax="1688">
      <contour>
        <pt x="302" y="1385" on="1"/>
        <pt x="266" y="1385" on="0"/>
        <pt x="208" y="1407" on="0"/>
        <pt x="166" y="1447" on="0"/>
        <pt x="144" y="1503" on="0"/>
        <pt x="144" y="1537" on="1"/>
        <pt x="144" y="1571" on="0"/>
        <pt x="166" y="1626" on="0"/>
        <pt x="208" y="1666" on="0"/>
        <pt x="266" y="1688" on="0"/>
        <pt x="302" y="1688" on="1"/>
        <pt x="376" y="1688" on="0"/>
        <pt x="463" y="1605" on="0"/>
        <pt x="463" y="1537" on="1"/>
        <pt x="463" y="1469" on="0"/>
        <pt x="376" y="1385" on="0"/>
      </contour>
      <contour>
        <pt x="182" y="1135" on="1"/>
        <pt x="425" y="1135" on="1"/>
        <pt x="425" y="-187" on="1"/>
        <pt x="425" y="-262" on="0"/>
        <pt x="379" y="-385" on="0"/>
        <pt x="291" y="-472" on="0"/>
        <pt x="162" y="-520" on="0"/>
        <pt x="79" y="-520" on="1"/>
        <pt x="79" y="-342" on="1"/>
        <pt x="133" y="-337" on="0"/>
        <pt x="182" y="-281" on="0"/>
        <pt x="182" y="-224" on="1"/>
      </contour>
    </TTGlyph>
    <TTGlyph name="jcircumflex" xMin="-81" yMin="-520" xMax="683" yMax="1720">
      <component glyphName="dotlessj" x="0" y="0" flags="0x204"/>
      <component glyphName="circumflex" x="251" y="0" flags="0x4"/>
    </TTGlyph>
    <TTGlyph name="k" xMin="171" yMin="0" xMax="1140" yMax="1711">
      <contour>
        <pt x="171" y="1711" on="1"/>
        <pt x="413" y="1711" on="1"/>
        <pt x="413" y="681" on="1"/>
        <pt x="791" y="1135" on="1"/>
        <pt x="1073" y="1135" on="1"/>
        <pt x="671" y="694" on="1"/>
        <pt x="1140" y="0" on="1"/>
        <pt x="869" y="0" on="1"/>
        <pt x="518" y="527" on="1"/>
        <pt x="413" y="411" on="1"/>
        <pt x="413" y="0" on="1"/>
        <pt x="171" y="0" on="1"/>
      </contour>
    </TTGlyph>
    <TTGlyph name="kcommaaccent" xMin="171" yMin="-520" xMax="1140" yMax="1711">
      <component glyphName="k" x="0" y="0" flags="0x204"/>
      <component glyphName="commaaccent" x="538" y="0" flags="0x4"/>
    </TTGlyph>
    <TTGlyph name="kgreenlandic" xMin="171" yMin="0" xMax="1151" yMax="1135">
      <contour>
        <pt x="171" y="1135" on="1"/>
        <pt x="413" y="1135" on="1"/>
        <pt x="413" y="624" on="1"/>
        <pt x="776" y="1135" on="1"/>
        <pt x="1058" y="1135" on="1"/>
        <pt x="692" y="659" on="1"/>
        <pt x="1151" y="0" on="1"/>
        <pt x="872" y="0" on="1"/>
        <pt x="547" y="471" on="1"/>
        <pt x="413" y="297" on="1"/>
        <pt x="413" y="0" on="1"/>
        <pt x="171" y="0" on="1"/>
      </contour>
    </TTGlyph>
    <TTGlyph name="l" xMin="170" yMin="0" xMax="409" yMax="1711">
      <contour>
        <pt x="170" y="1711" on="1"/>
        <pt x="409" y="1711" on="1"/>
        <pt x="409" y="0" on="1"/>
        <pt x="170" y="0" on="1"/>
      </contour>
    </TTGlyph>
    <TTGlyph name="ldot" xMin="170" yMin="0" xMax="902" yMax="1711">
      <contour>
        <pt x="741" y="621" on="1"/>
        <pt x="705" y="621" on="0"/>
        <pt x="647" y="643" on="0"/>
        <pt x="605" y="683" on="0"/>
        <pt x="583" y="739" on="0"/>
        <pt x="583" y="773" on="1"/>
        <pt x="583" y="807" on="0"/>
        <pt x="605" y="863" on="0"/>
        <pt x="647" y="903" on="0"/>
        <pt x="705" y="925" on="0"/>
        <pt x="741" y="925" on="1"/>
        <pt x="815" y="925" on="0"/>
        <pt x="902" y="841" on="0"/>
        <pt x="902" y="773" on="1"/>
        <pt x="902" y="705" on="0"/>
        <pt x="815" y="621" on="0"/>
      </contour>
      <contour>
        <pt x="170" y="1711" on="1"/>
        <pt x="409" y="1711" on="1"/>
        <pt x="409" y="0" on="1"/>
        <pt x="170" y="0" on="1"/>
      </contour>
    </TTGlyph>
    <TTGlyph name="less" xMin="145" yMin="67" xMax="1104" yMax="1255">
      <contour>
        <pt x="814" y="1255" on="1"/>
        <pt x="1104" y="1255" on="1"/>
        <pt x="439" y="661" on="1"/>
        <pt x="1104" y="67" on="1"/>
        <pt x="814" y="67" on="1"/>
        <pt x="145" y="661" on="1"/>
      </contour>
    </TTGlyph>
    <TTGlyph name="logicalnot" xMin="205" yMin="315" xMax="1139" yMax="860">
      <contour>
        <pt x="205" y="860" on="1"/>
        <pt x="1139" y="860" on="1"/>
        <pt x="1139" y="315" on="1"/>
        <pt x="926" y="315" on="1"/>
        <pt x="926" y="646" on="1"/>
        <pt x="205" y="646" on="1"/>
      </contour>
    </TTGlyph>
    <TTGlyph name="lslash" xMin="23" yMin="0" xMax="562" yMax="1711">
      <contour>
        <pt x="170" y="734" on="1"/>
        <pt x="23" y="659" on="1"/>
        <pt x="23" y="837" on="1"/>
        <pt x="170" y="912" on="1"/>
        <pt x="170" y="1711" on="1"/>
        <pt x="409" y="1711" on="1"/>
        <pt x="409" y="1034" on="1"/>
        <pt x="562" y="1113" on="1"/>
        <pt x="562" y="935" on="1"/>
        <pt x="409" y="856" on="1"/>
        <pt x="409" y="0" on="1"/>
        <pt x="170" y="0" on="1"/>
      </contour>
    </TTGlyph>
    <TTGlyph name="m" xMin="171" yMin="0" xMax="1783" yMax="1157">
      <contour>
        <pt x="171" y="1135" on="1"/>
        <pt x="384" y="1135" on="1"/>
        <pt x="398" y="1008" on="1"/>
        <pt x="450" y="1075" on="0"/>
        <pt x="613" y="1157" on="0"/>
        <pt x="731" y="1157" on="1"/>
        <pt x="848" y="1157" on="0"/>
        <pt x="1011" y="1063" on="0"/>
        <pt x="1054" y="966" on="1"/>
        <pt x="1079" y="1008" on="0"/>
        <pt x="1148" y="1078" on="0"/>
        <pt x="1237" y="1129" on="0"/>
        <pt x="1348" y="1157" on="0"/>
        <pt x="1416" y="1157" on="1"/>
        <pt x="1591" y="1157" on="0"/>
        <pt x="1783" y="943" on="0"/>
        <pt x="1783" y="723" on="1"/>
        <pt x="1783" y="0" on="1"/>
        <pt x="1541" y="0" on="1"/>
        <pt x="1541" y="715" on="1"/>
        <pt x="1541" y="845" on="0"/>
        <pt x="1441" y="970" on="0"/>
        <pt x="1350" y="970" on="1"/>
        <pt x="1272" y="970" on="0"/>
        <pt x="1138" y="901" on="0"/>
        <pt x="1091" y="832" on="1"/>
        <pt x="1094" y="806" on="0"/>
        <pt x="1098" y="752" on="0"/>
        <pt x="1098" y="723" on="1"/>
        <pt x="1098" y="0" on="1"/>
        <pt x="856" y="0" on="1"/>
        <pt x="856" y="715" on="1"/>
        <pt x="856" y="845" on="0"/>
        <pt x="756" y="970" on="0"/>
        <pt x="665" y="970" on="1"/>
        <pt x="590" y="970" on="0"/>
        <pt x="460" y="907" on="0"/>
        <pt x="413" y="842" on="1"/>
        <pt x="413" y="0" on="1"/>
        <pt x="171" y="0" on="1"/>
      </contour>
    </TTGlyph>
    <TTGlyph name="macron" xMin="-303" yMin="1456" xMax="403" yMax="1646">
      <contour>
        <pt x="-303" y="1646" on="1"/>
        <pt x="403" y="1646" on="1"/>
        <pt x="403" y="1456" on="1"/>
        <pt x="-303" y="1456" on="1"/>
      </contour>
    </TTGlyph>
    <TTGlyph name="macron.cap" xMin="-303" yMin="1767" xMax="403" yMax="1957">
      <contour>
        <pt x="-303" y="1957" on="1"/>
        <pt x="403" y="1957" on="1"/>
        <pt x="403" y="1767" on="1"/>
        <pt x="-303" y="1767" on="1"/>
      </contour>
    </TTGlyph>
    <TTGlyph name="minus" xMin="205" yMin="646" xMax="911" yMax="860">
      <contour>
        <pt x="205" y="860" on="1"/>
        <pt x="911" y="860" on="1"/>
        <pt x="911" y="646" on="1"/>
        <pt x="205" y="646" on="1"/>
      </contour>
    </TTGlyph>
    <TTGlyph name="mu" xMin="141" yMin="-520" xMax="1180" yMax="1135">
      <contour>
        <pt x="383" y="-520" on="1"/>
        <pt x="141" y="-520" on="1"/>
        <pt x="141" y="1135" on="1"/>
        <pt x="384" y="1135" on="1"/>
        <pt x="384" y="421" on="1"/>
        <pt x="384" y="291" on="0"/>
        <pt x="471" y="165" on="0"/>
        <pt x="569" y="165" on="1"/>
        <pt x="636" y="165" on="0"/>
        <pt x="750" y="224" on="0"/>
        <pt x="793" y="286" on="1"/>
        <pt x="793" y="1135" on="1"/>
        <pt x="1035" y="1135" on="1"/>
        <pt x="1035" y="179" on="1"/>
        <pt x="1180" y="178" on="1"/>
        <pt x="1177" y="143" on="0"/>
        <pt x="1149" y="73" on="0"/>
        <pt x="1097" y="16" on="0"/>
        <pt x="1020" y="-20" on="0"/>
        <pt x="968" y="-20" on="1"/>
        <pt x="893" y="-20" on="0"/>
        <pt x="808" y="54" on="0"/>
        <pt x="808" y="120" on="1"/>
        <pt x="762" y="55" on="0"/>
        <pt x="634" y="-23" on="0"/>
        <pt x="541" y="-23" on="1"/>
        <pt x="517" y="-23" on="0"/>
        <pt x="464" y="-11" on="0"/>
        <pt x="414" y="11" on="0"/>
        <pt x="372" y="41" on="0"/>
        <pt x="360" y="59" on="1"/>
      </contour>
    </TTGlyph>
    <TTGlyph name="multiply" xMin="205" yMin="332" xMax="1041" yMax="1167">
      <contour>
        <pt x="205" y="482" on="1"/>
        <pt x="483" y="749" on="1"/>
        <pt x="205" y="1017" on="1"/>
        <pt x="356" y="1167" on="1"/>
        <pt x="622" y="888" on="1"/>
        <pt x="890" y="1167" on="1"/>
        <pt x="1041" y="1017" on="1"/>
        <pt x="762" y="749" on="1"/>
        <pt x="1041" y="482" on="1"/>
        <pt x="890" y="332" on="1"/>
        <pt x="622" y="610" on="1"/>
        <pt x="356" y="332" on="1"/>
      </contour>
    </TTGlyph>
    <TTGlyph name="n" xMin="171" yMin="0" xMax="1098" yMax="1157">
      <contour>
        <pt x="171" y="1135" on="1"/>
        <pt x="384" y="1135" on="1"/>
        <pt x="398" y="1008" on="1"/>
        <pt x="450" y="1075" on="0"/>
        <pt x="613" y="1157" on="0"/>
        <pt x="731" y="1157" on="1"/>
        <pt x="906" y="1157" on="0"/>
        <pt x="1098" y="943" on="0"/>
        <pt x="1098" y="723" on="1"/>
        <pt x="1098" y="0" on="1"/>
        <pt x="856" y="0" on="1"/>
        <pt x="856" y="715" on="1"/>
        <pt x="856" y="845" on="0"/>
        <pt x="756" y="970" on="0"/>
        <pt x="665" y="970" on="1"/>
        <pt x="590" y="970" on="0"/>
        <pt x="460" y="907" on="0"/>
        <pt x="413" y="842" on="1"/>
        <pt x="413" y="0" on="1"/>
        <pt x="171" y="0" on="1"/>
      </contour>
    </TTGlyph>
    <TTGlyph name="nacute" xMin="171" yMin="0" xMax="1098" yMax="1723">
      <component glyphName="n" x="0" y="0" flags="0x204"/>
      <component glyphName="acute" x="546" y="0" flags="0x4"/>
    </TTGlyph>
    <TTGlyph name="nine" xMin="120" yMin="-23" xMax="1186" yMax="1593">
      <contour>
        <pt x="256" y="274" on="1"/>
        <pt x="291" y="248" on="0"/>
        <pt x="367" y="213" on="0"/>
        <pt x="441" y="192" on="0"/>
        <pt x="510" y="184" on="0"/>
        <pt x="539" y="184" on="1"/>
        <pt x="633" y="184" on="0"/>
        <pt x="782" y="264" on="0"/>
        <pt x="885" y="411" on="0"/>
        <pt x="939" y="618" on="0"/>
        <pt x="939" y="746" on="1"/>
        <pt x="928" y="746" on="1"/>
        <pt x="866" y="651" on="0"/>
        <pt x="691" y="546" on="0"/>
        <pt x="572" y="546" on="1"/>
        <pt x="478" y="546" on="0"/>
        <pt x="313" y="615" on="0"/>
        <pt x="191" y="746" on="0"/>
        <pt x="120" y="934" on="0"/>
        <pt x="120" y="1053" on="1"/>
        <pt x="120" y="1170" on="0"/>
        <pt x="191" y="1368" on="0"/>
        <pt x="323" y="1512" on="0"/>
        <pt x="512" y="1593" on="0"/>
        <pt x="630" y="1593" on="1"/>
        <pt x="751" y="1593" on="0"/>
        <pt x="956" y="1501" on="0"/>
        <pt x="1103" y="1312" on="0"/>
        <pt x="1186" y="1021" on="0"/>
        <pt x="1186" y="822" on="1"/>
        <pt x="1186" y="674" on="0"/>
        <pt x="1140" y="434" on="0"/>
        <pt x="1058" y="246" on="0"/>
        <pt x="942" y="109" on="0"/>
        <pt x="803" y="20" on="0"/>
        <pt x="644" y="-23" on="0"/>
        <pt x="559" y="-23" on="1"/>
        <pt x="521" y="-23" on="0"/>
        <pt x="437" y="-15" on="0"/>
        <pt x="355" y="1" on="0"/>
        <pt x="282" y="25" on="0"/>
        <pt x="256" y="41" on="1"/>
      </contour>
      <contour>
        <pt x="632" y="752" on="1"/>
        <pt x="716" y="752" on="0"/>
        <pt x="871" y="839" on="0"/>
        <pt x="930" y="926" on="1"/>
        <pt x="930" y="1058" on="0"/>
        <pt x="877" y="1235" on="0"/>
        <pt x="791" y="1342" on="0"/>
        <pt x="681" y="1386" on="0"/>
        <pt x="625" y="1386" on="1"/>
        <pt x="568" y="1386" on="0"/>
        <pt x="473" y="1346" on="0"/>
        <pt x="404" y="1267" on="0"/>
        <pt x="366" y="1150" on="0"/>
        <pt x="366" y="1074" on="1"/>
        <pt x="366" y="999" on="0"/>
        <pt x="404" y="879" on="0"/>
        <pt x="473" y="796" on="0"/>
        <pt x="572" y="752" on="0"/>
      </contour>
    </TTGlyph>
    <TTGlyph name="nonbreakingspace" xMin="0" yMin="0" xMax="0" yMax="0">
      <component glyphName="space" x="0" y="0" flags="0x4"/>
    </TTGlyph>
    <TTGlyph name="ntilde" xMin="171" yMin="0" xMax="1098" yMax="1709">
      <component glyphName="n" x="0" y="0" flags="0x204"/>
      <component glyphName="tilde" x="555" y="0" flags="0x4"/>
    </TTGlyph>
    <TTGlyph name="numbersign" xMin="160" yMin="0" xMax="1750" yMax="1754">
      <contour>
        <pt x="461" y="479" on="1"/>
        <pt x="160" y="479" on="1"/>
        <pt x="160" y="674" on="1"/>
        <pt x="501" y="674" on="1"/>
        <pt x="582" y="1059" on="1"/>
        <pt x="241" y="1059" on="1"/>
        <pt x="246" y="1254" on="1"/>
        <pt x="622" y="1254" on="1"/>
        <pt x="727" y="1754" on="1"/>
        <pt x="942" y="1754" on="1"/>
        <pt x="837" y="1254" on="1"/>
        <pt x="1189" y="1254" on="1"/>
        <pt x="1294" y="1754" on="1"/>
        <pt x="1508" y="1754" on="1"/>
        <pt x="1403" y="1254" on="1"/>
        <pt x="1750" y="1254" on="1"/>
        <pt x="1750" y="1059" on="1"/>
        <pt x="1363" y="1059" on="1"/>
        <pt x="1282" y="674" on="1"/>
        <pt x="1669" y="674" on="1"/>
        <pt x="1669" y="479" on="1"/>
        <pt x="1242" y="479" on="1"/>
        <pt x="1142" y="0" on="1"/>
        <pt x="928" y="0" on="1"/>
        <pt x="1028" y="479" on="1"/>
        <pt x="676" y="479" on="1"/>
        <pt x="576" y="0" on="1"/>
        <pt x="361" y="0" on="1"/>
      </contour>
      <contour>
        <pt x="1068" y="674" on="1"/>
        <pt x="1149" y="1059" on="1"/>
        <pt x="797" y="1059" on="1"/>
        <pt x="716" y="674" on="1"/>
      </contour>
    </TTGlyph>
    <TTGlyph name="o" xMin="94" yMin="-23" xMax="1097" yMax="1157">
      <contour>
        <pt x="94" y="565" on="1"/>
        <pt x="94" y="708" on="0"/>
        <pt x="168" y="929" on="0"/>
        <pt x="301" y="1079" on="0"/>
        <pt x="485" y="1157" on="0"/>
        <pt x="595" y="1157" on="1"/>
        <pt x="704" y="1157" on="0"/>
        <pt x="888" y="1081" on="0"/>
        <pt x="1022" y="933" on="0"/>
        <pt x="1097" y="714" on="0"/>
        <pt x="1097" y="571" on="1"/>
        <pt x="1097" y="428" on="0"/>
        <pt x="1022" y="206" on="0"/>
        <pt x="889" y="55" on="0"/>
        <pt x="704" y="-23" on="0"/>
        <pt x="595" y="-23" on="1"/>
        <pt x="485" y="-23" on="0"/>
        <pt x="301" y="54" on="0"/>
        <pt x="168" y="203" on="0"/>
        <pt x="94" y="422" on="0"/>
      </contour>
      <contour>
        <pt x="595" y="165" on="1"/>
        <pt x="652" y="165" on="0"/>
        <pt x="745" y="212" on="0"/>
        <pt x="812" y="311" on="0"/>
        <pt x="849" y="465" on="0"/>
        <pt x="849" y="571" on="1"/>
        <pt x="849" y="677" on="0"/>
        <pt x="812" y="828" on="0"/>
        <pt x="745" y="925" on="0"/>
        <pt x="652" y="970" on="0"/>
        <pt x="595" y="970" on="1"/>
        <pt x="539" y="970" on="0"/>
        <pt x="445" y="923" on="0"/>
        <pt x="378" y="824" on="0"/>
        <pt x="341" y="671" on="0"/>
        <pt x="341" y="565" on="1"/>
        <pt x="341" y="459" on="0"/>
        <pt x="378" y="308" on="0"/>
        <pt x="445" y="211" on="0"/>
        <pt x="539" y="165" on="0"/>
      </contour>
    </TTGlyph>
    <TTGlyph name="oacute" xMin="94" yMin="-23" xMax="1097" yMax="1723">
      <component glyphName="o" x="0" y="0" flags="0x204"/>
      <component glyphName="acute" x="536" y="0" flags="0x4"/>
    </TTGlyph>
    <TTGlyph name="ocircumflex" xMin="94" yMin="-23" xMax="1097" yMax="1720">
      <component glyphName="o" x="0" y="0" flags="0x204"/>
      <component glyphName="circumflex" x="545" y="0" flags="0x4"/>
    </TTGlyph>
    <TTGlyph name="odieresis" xMin="94" yMin="-23" xMax="1097" yMax="1688">
      <component glyphName="o" x="0" y="0" flags="0x204"/>
      <component glyphName="dieresis" x="545" y="0" flags="0x4"/>
    </TTGlyph>
    <TTGlyph name="oe" xMin="93" yMin="-23" xMax="1762" yMax="1157">
      <contour>
        <pt x="93" y="565" on="1"/>
        <pt x="93" y="708" on="0"/>
        <pt x="165" y="929" on="0"/>
        <pt x="295" y="1079" on="0"/>
        <pt x="476" y="1157" on="0"/>
        <pt x="586" y="1157" on="1"/>
        <pt x="704" y="1157" on="0"/>
        <pt x="892" y="1060" on="0"/>
        <pt x="955" y="966" on="1"/>
        <pt x="1024" y="1063" on="0"/>
        <pt x="1226" y="1157" on="0"/>
        <pt x="1338" y="1157" on="1"/>
        <pt x="1431" y="1157" on="0"/>
        <pt x="1586" y="1098" on="0"/>
        <pt x="1699" y="980" on="0"/>
        <pt x="1762" y="803" on="0"/>
        <pt x="1762" y="686" on="1"/>
        <pt x="1762" y="634" on="0"/>
        <pt x="1748" y="534" on="0"/>
        <pt x="1731" y="488" on="1"/>
        <pt x="1065" y="488" on="1"/>
        <pt x="1079" y="385" on="0"/>
        <pt x="1147" y="259" on="0"/>
        <pt x="1240" y="189" on="0"/>
        <pt x="1352" y="165" on="0"/>
        <pt x="1411" y="165" on="1"/>
        <pt x="1490" y="165" on="0"/>
        <pt x="1618" y="207" on="0"/>
        <pt x="1681" y="242" on="1"/>
        <pt x="1681" y="50" on="1"/>
        <pt x="1604" y="10" on="0"/>
        <pt x="1446" y="-23" on="0"/>
        <pt x="1368" y="-23" on="1"/>
        <pt x="1232" y="-23" on="0"/>
        <pt x="1024" y="77" on="0"/>
        <pt x="956" y="174" on="1"/>
        <pt x="893" y="77" on="0"/>
        <pt x="704" y="-23" on="0"/>
        <pt x="586" y="-23" on="1"/>
        <pt x="476" y="-23" on="0"/>
        <pt x="295" y="54" on="0"/>
        <pt x="165" y="203" on="0"/>
        <pt x="93" y="422" on="0"/>
      </contour>
      <contour>
        <pt x="1524" y="651" on="1"/>
        <pt x="1535" y="723" on="0"/>
        <pt x="1520" y="841" on="0"/>
        <pt x="1470" y="925" on="0"/>
        <pt x="1387" y="970" on="0"/>
        <pt x="1330" y="970" on="1"/>
        <pt x="1277" y="970" on="0"/>
        <pt x="1180" y="929" on="0"/>
        <pt x="1105" y="848" on="0"/>
        <pt x="1059" y="729" on="0"/>
        <pt x="1056" y="651" on="1"/>
      </contour>
      <contour>
        <pt x="586" y="165" on="1"/>
        <pt x="640" y="165" on="0"/>
        <pt x="734" y="212" on="0"/>
        <pt x="805" y="311" on="0"/>
        <pt x="845" y="465" on="0"/>
        <pt x="845" y="571" on="1"/>
        <pt x="845" y="677" on="0"/>
        <pt x="805" y="828" on="0"/>
        <pt x="734" y="925" on="0"/>
        <pt x="640" y="970" on="0"/>
        <pt x="586" y="970" on="1"/>
        <pt x="529" y="970" on="0"/>
        <pt x="435" y="923" on="0"/>
        <pt x="366" y="824" on="0"/>
        <pt x="328" y="671" on="0"/>
        <pt x="328" y="565" on="1"/>
        <pt x="328" y="459" on="0"/>
        <pt x="366" y="308" on="0"/>
        <pt x="435" y="211" on="0"/>
        <pt x="529" y="165" on="0"/>
      </contour>
    </TTGlyph>
    <TTGlyph name="ograve" xMin="94" yMin="-23" xMax="1097" yMax="1723">
      <component glyphName="o" x="0" y="0" flags="0x204"/>
      <component glyphName="grave" x="523" y="0" flags="0x4"/>
    </TTGlyph>
    <TTGlyph name="one" xMin="122" yMin="0" xMax="634" yMax="1571">
      <contour>
        <pt x="394" y="1294" on="1"/>
        <pt x="122" y="1170" on="1"/>
        <pt x="122" y="1404" on="1"/>
        <pt x="455" y="1571" on="1"/>
        <pt x="634" y="1571" on="1"/>
        <pt x="634" y="0" on="1"/>
        <pt x="394" y="0" on="1"/>
      </contour>
    </TTGlyph>
    <TTGlyph name="onehalf" xMin="187" yMin="-202" xMax="1958" yMax="1754">
      <contour>
        <pt x="1297" y="1754" on="1"/>
        <pt x="1500" y="1754" on="1"/>
        <pt x="661" y="-202" on="1"/>
        <pt x="458" y="-202" on="1"/>
      </contour>
      <contour>
        <pt x="1361" y="158" on="1"/>
        <pt x="1507" y="334" on="1"/>
        <pt x="1569" y="410" on="0"/>
        <pt x="1651" y="523" on="0"/>
        <pt x="1699" y="610" on="0"/>
        <pt x="1719" y="677" on="0"/>
        <pt x="1719" y="707" on="1"/>
        <pt x="1719" y="773" on="0"/>
        <pt x="1641" y="840" on="0"/>
        <pt x="1579" y="840" on="1"/>
        <pt x="1524" y="840" on="0"/>
        <pt x="1412" y="789" on="0"/>
        <pt x="1361" y="735" on="1"/>
        <pt x="1361" y="973" on="1"/>
        <pt x="1417" y="1010" on="0"/>
        <pt x="1531" y="1045" on="0"/>
        <pt x="1598" y="1045" on="1"/>
        <pt x="1677" y="1045" on="0"/>
        <pt x="1806" y="999" on="0"/>
        <pt x="1897" y="916" on="0"/>
        <pt x="1946" y="802" on="0"/>
        <pt x="1946" y="735" on="1"/>
        <pt x="1946" y="693" on="0"/>
        <pt x="1924" y="600" on="0"/>
        <pt x="1867" y="488" on="0"/>
        <pt x="1771" y="354" on="0"/>
        <pt x="1698" y="272" on="1"/>
        <pt x="1638" y="205" on="1"/>
        <pt x="1958" y="205" on="1"/>
        <pt x="1958" y="0" on="1"/>
        <pt x="1361" y="0" on="1"/>
      </contour>
      <contour>
        <pt x="360" y="1514" on="1"/>
        <pt x="187" y="1434" on="1"/>
        <pt x="187" y="1647" on="1"/>
        <pt x="398" y="1754" on="1"/>
        <pt x="580" y="1754" on="1"/>
        <pt x="580" y="733" on="1"/>
        <pt x="360" y="733" on="1"/>
      </contour>
    </TTGlyph>
    <TTGlyph name="onequarter" xMin="187" yMin="-202" xMax="1980" yMax="1754">
      <contour>
        <pt x="1297" y="1754" on="1"/>
        <pt x="1500" y="1754" on="1"/>
        <pt x="661" y="-202" on="1"/>
        <pt x="458" y="-202" on="1"/>
      </contour>
      <contour>
        <pt x="1199" y="399" on="1"/>
        <pt x="1626" y="1021" on="1"/>
        <pt x="1831" y="1021" on="1"/>
        <pt x="1831" y="399" on="1"/>
        <pt x="1980" y="399" on="1"/>
        <pt x="1980" y="220" on="1"/>
        <pt x="1831" y="220" on="1"/>
        <pt x="1831" y="0" on="1"/>
        <pt x="1609" y="0" on="1"/>
        <pt x="1609" y="220" on="1"/>
        <pt x="1199" y="220" on="1"/>
      </contour>
      <contour>
        <pt x="1609" y="399" on="1"/>
        <pt x="1609" y="697" on="1"/>
        <pt x="1412" y="399" on="1"/>
      </contour>
      <contour>
        <pt x="360" y="1514" on="1"/>
        <pt x="187" y="1434" on="1"/>
        <pt x="187" y="1647" on="1"/>
        <pt x="398" y="1754" on="1"/>
        <pt x="580" y="1754" on="1"/>
        <pt x="580" y="733" on="1"/>
        <pt x="360" y="733" on="1"/>
      </contour>
    </TTGlyph>
    <TTGlyph name="onesuperior" xMin="187" yMin="733" xMax="580" yMax="1754">
      <contour>
        <pt x="360" y="1514" on="1"/>
        <pt x="187" y="1434" on="1"/>
        <pt x="187" y="1647" on="1"/>
        <pt x="398" y="1754" on="1"/>
        <pt x="580" y="1754" on="1"/>
        <pt x="580" y="733" on="1"/>
        <pt x="360" y="733" on="1"/>
      </contour>
    </TTGlyph>
    <TTGlyph name="ordfeminine" xMin="165" yMin="701" xMax="970" yMax="1733">
      <contour>
        <pt x="467" y="701" on="1"/>
        <pt x="399" y="701" on="0"/>
        <pt x="287" y="746" on="0"/>
        <pt x="208" y="827" on="0"/>
        <pt x="165" y="937" on="0"/>
        <pt x="165" y="1003" on="1"/>
        <pt x="165" y="1077" on="0"/>
        <pt x="222" y="1196" on="0"/>
        <pt x="333" y="1280" on="0"/>
        <pt x="497" y="1325" on="0"/>
        <pt x="604" y="1325" on="1"/>
        <pt x="709" y="1325" on="1"/>
        <pt x="709" y="1363" on="1"/>
        <pt x="709" y="1457" on="0"/>
        <pt x="623" y="1556" on="0"/>
        <pt x="519" y="1556" on="1"/>
        <pt x="483" y="1556" on="0"/>
        <pt x="416" y="1544" on="0"/>
        <pt x="351" y="1523" on="0"/>
        <pt x="285" y="1494" on="0"/>
        <pt x="250" y="1477" on="1"/>
        <pt x="250" y="1664" on="1"/>
        <pt x="313" y="1698" on="0"/>
        <pt x="459" y="1733" on="0"/>
        <pt x="547" y="1733" on="1"/>
        <pt x="749" y="1733" on="0"/>
        <pt x="944" y="1542" on="0"/>
        <pt x="944" y="1357" on="1"/>
        <pt x="944" y="947" on="1"/>
        <pt x="944" y="915" on="0"/>
        <pt x="945" y="859" on="0"/>
        <pt x="949" y="805" on="0"/>
        <pt x="960" y="750" on="0"/>
        <pt x="970" y="720" on="1"/>
        <pt x="728" y="720" on="1"/>
        <pt x="721" y="740" on="0"/>
        <pt x="714" y="786" on="0"/>
        <pt x="712" y="810" on="1"/>
        <pt x="668" y="759" on="0"/>
        <pt x="546" y="701" on="0"/>
      </contour>
      <contour>
        <pt x="532" y="878" on="1"/>
        <pt x="579" y="878" on="0"/>
        <pt x="671" y="913" on="0"/>
        <pt x="709" y="950" on="1"/>
        <pt x="709" y="1172" on="1"/>
        <pt x="608" y="1172" on="1"/>
        <pt x="546" y="1172" on="0"/>
        <pt x="461" y="1149" on="0"/>
        <pt x="409" y="1108" on="0"/>
        <pt x="386" y="1053" on="0"/>
        <pt x="386" y="1020" on="1"/>
        <pt x="386" y="992" on="0"/>
        <pt x="402" y="941" on="0"/>
        <pt x="437" y="902" on="0"/>
        <pt x="493" y="878" on="0"/>
      </contour>
    </TTGlyph>
    <TTGlyph name="ordmasculine" xMin="165" yMin="701" xMax="1041" yMax="1733">
      <contour>
        <pt x="602" y="701" on="1"/>
        <pt x="506" y="701" on="0"/>
        <pt x="346" y="767" on="0"/>
        <pt x="230" y="897" on="0"/>
        <pt x="165" y="1089" on="0"/>
        <pt x="165" y="1214" on="1"/>
        <pt x="165" y="1339" on="0"/>
        <pt x="229" y="1533" on="0"/>
        <pt x="345" y="1665" on="0"/>
        <pt x="507" y="1733" on="0"/>
        <pt x="604" y="1733" on="1"/>
        <pt x="700" y="1733" on="0"/>
        <pt x="861" y="1667" on="0"/>
        <pt x="976" y="1537" on="0"/>
        <pt x="1041" y="1345" on="0"/>
        <pt x="1041" y="1220" on="1"/>
        <pt x="1041" y="1095" on="0"/>
        <pt x="977" y="901" on="0"/>
        <pt x="861" y="769" on="0"/>
        <pt x="699" y="701" on="0"/>
      </contour>
      <contour>
        <pt x="602" y="878" on="1"/>
        <pt x="649" y="878" on="0"/>
        <pt x="729" y="918" on="0"/>
        <pt x="787" y="1002" on="0"/>
        <pt x="820" y="1131" on="0"/>
        <pt x="820" y="1220" on="1"/>
        <pt x="820" y="1310" on="0"/>
        <pt x="787" y="1438" on="0"/>
        <pt x="728" y="1519" on="0"/>
        <pt x="650" y="1557" on="0"/>
        <pt x="605" y="1557" on="1"/>
        <pt x="558" y="1557" on="0"/>
        <pt x="478" y="1517" on="0"/>
        <pt x="419" y="1433" on="0"/>
        <pt x="386" y="1303" on="0"/>
        <pt x="386" y="1214" on="1"/>
        <pt x="386" y="1124" on="0"/>
        <pt x="419" y="996" on="0"/>
        <pt x="478" y="915" on="0"/>
        <pt x="557" y="878" on="0"/>
      </contour>
    </TTGlyph>
    <TTGlyph name="oslash" xMin="94" yMin="-171" xMax="1097" yMax="1317">
      <contour>
        <pt x="301" y="67" on="1"/>
        <pt x="204" y="139" on="0"/>
        <pt x="94" y="388" on="0"/>
        <pt x="94" y="565" on="1"/>
        <pt x="94" y="708" on="0"/>
        <pt x="168" y="929" on="0"/>
        <pt x="301" y="1079" on="0"/>
        <pt x="485" y="1157" on="0"/>
        <pt x="595" y="1157" on="1"/>
        <pt x="642" y="1157" on="0"/>
        <pt x="728" y="1143" on="0"/>
        <pt x="769" y="1129" on="1"/>
        <pt x="852" y="1317" on="1"/>
        <pt x="996" y="1317" on="1"/>
        <pt x="886" y="1069" on="1"/>
        <pt x="984" y="998" on="0"/>
        <pt x="1097" y="748" on="0"/>
        <pt x="1097" y="571" on="1"/>
        <pt x="1097" y="428" on="0"/>
        <pt x="1022" y="206" on="0"/>
        <pt x="889" y="55" on="0"/>
        <pt x="704" y="-23" on="0"/>
        <pt x="595" y="-23" on="1"/>
        <pt x="499" y="-23" on="0"/>
        <pt x="415" y="6" on="1"/>
        <pt x="337" y="-171" on="1"/>
        <pt x="196" y="-171" on="1"/>
      </contour>
      <contour>
        <pt x="690" y="951" on="1"/>
        <pt x="648" y="970" on="0"/>
        <pt x="595" y="970" on="1"/>
        <pt x="539" y="970" on="0"/>
        <pt x="445" y="923" on="0"/>
        <pt x="378" y="824" on="0"/>
        <pt x="341" y="671" on="0"/>
        <pt x="341" y="565" on="1"/>
        <pt x="341" y="471" on="0"/>
        <pt x="370" y="332" on="0"/>
        <pt x="396" y="284" on="1"/>
      </contour>
      <contour>
        <pt x="495" y="186" on="1"/>
        <pt x="540" y="165" on="0"/>
        <pt x="595" y="165" on="1"/>
        <pt x="652" y="165" on="0"/>
        <pt x="745" y="212" on="0"/>
        <pt x="812" y="311" on="0"/>
        <pt x="849" y="465" on="0"/>
        <pt x="849" y="571" on="1"/>
        <pt x="849" y="667" on="0"/>
        <pt x="819" y="807" on="0"/>
        <pt x="791" y="856" on="1"/>
      </contour>
    </TTGlyph>
    <TTGlyph name="otilde" xMin="94" yMin="-23" xMax="1097" yMax="1709">
      <component glyphName="o" x="0" y="0" flags="0x204"/>
      <component glyphName="tilde" x="545" y="0" flags="0x4"/>
    </TTGlyph>
    <TTGlyph name="p" xMin="141" yMin="-520" xMax="1094" yMax="1157">
      <contour>
        <pt x="383" y="-141" on="1"/>
        <pt x="383" y="-520" on="1"/>
        <pt x="141" y="-520" on="1"/>
        <pt x="141" y="1135" on="1"/>
        <pt x="355" y="1135" on="1"/>
        <pt x="368" y="1046" on="1"/>
        <pt x="414" y="1096" on="0"/>
        <pt x="547" y="1157" on="0"/>
        <pt x="643" y="1157" on="1"/>
        <pt x="741" y="1157" on="0"/>
        <pt x="906" y="1084" on="0"/>
        <pt x="1026" y="940" on="0"/>
        <pt x="1094" y="725" on="0"/>
        <pt x="1094" y="583" on="1"/>
        <pt x="1094" y="426" on="0"/>
        <pt x="1014" y="198" on="0"/>
        <pt x="878" y="49" on="0"/>
        <pt x="700" y="-23" on="0"/>
        <pt x="603" y="-23" on="1"/>
        <pt x="534" y="-23" on="0"/>
        <pt x="424" y="8" on="0"/>
        <pt x="379" y="37" on="1"/>
      </contour>
      <contour>
        <pt x="383" y="211" on="1"/>
        <pt x="422" y="185" on="0"/>
        <pt x="510" y="165" on="0"/>
        <pt x="560" y="165" on="1"/>
        <pt x="621" y="165" on="0"/>
        <pt x="725" y="210" on="0"/>
        <pt x="800" y="307" on="0"/>
        <pt x="842" y="461" on="0"/>
        <pt x="842" y="570" on="1"/>
        <pt x="842" y="674" on="0"/>
        <pt x="804" y="825" on="0"/>
        <pt x="735" y="923" on="0"/>
        <pt x="637" y="970" on="0"/>
        <pt x="576" y="970" on="1"/>
        <pt x="464" y="970" on="0"/>
        <pt x="383" y="897" on="1"/>
      </contour>
    </TTGlyph>
    <TTGlyph name="paragraph" xMin="219" yMin="-290" xMax="1745" yMax="1577">
      <contour>
        <pt x="812" y="583" on="1"/>
        <pt x="672" y="576" on="0"/>
        <pt x="451" y="651" on="0"/>
        <pt x="299" y="790" on="0"/>
        <pt x="219" y="980" on="0"/>
        <pt x="219" y="1089" on="1"/>
        <pt x="219" y="1195" on="0"/>
        <pt x="284" y="1375" on="0"/>
        <pt x="426" y="1504" on="0"/>
        <pt x="650" y="1577" on="0"/>
        <pt x="809" y="1577" on="1"/>
        <pt x="833" y="1577" on="0"/>
        <pt x="905" y="1575" on="0"/>
        <pt x="991" y="1574" on="0"/>
        <pt x="1085" y="1572" on="0"/>
        <pt x="1131" y="1572" on="1"/>
        <pt x="1745" y="1572" on="1"/>
        <pt x="1745" y="1359" on="1"/>
        <pt x="1540" y="1359" on="1"/>
        <pt x="1540" y="-290" on="1"/>
        <pt x="1295" y="-290" on="1"/>
        <pt x="1295" y="1359" on="1"/>
        <pt x="1057" y="1359" on="1"/>
        <pt x="1057" y="-290" on="1"/>
        <pt x="815" y="-290" on="1"/>
      </contour>
    </TTGlyph>
    <TTGlyph name="parenleft" xMin="243" yMin="-228" xMax="871" yMax="1858">
      <contour>
        <pt x="243" y="815" on="1"/>
        <pt x="243" y="962" on="0"/>
        <pt x="295" y="1218" on="0"/>
        <pt x="385" y="1435" on="0"/>
        <pt x="506" y="1611" on="0"/>
        <pt x="646" y="1745" on="0"/>
        <pt x="796" y="1835" on="0"/>
        <pt x="871" y="1858" on="1"/>
        <pt x="871" y="1644" on="1"/>
        <pt x="789" y="1596" on="0"/>
        <pt x="651" y="1443" on="0"/>
        <pt x="550" y="1235" on="0"/>
        <pt x="494" y="973" on="0"/>
        <pt x="494" y="815" on="1"/>
        <pt x="494" y="657" on="0"/>
        <pt x="550" y="395" on="0"/>
        <pt x="651" y="187" on="0"/>
        <pt x="789" y="34" on="0"/>
        <pt x="871" y="-14" on="1"/>
        <pt x="871" y="-228" on="1"/>
        <pt x="797" y="-206" on="0"/>
        <pt x="646" y="-115" on="0"/>
        <pt x="506" y="19" on="0"/>
        <pt x="385" y="195" on="0"/>
        <pt x="295" y="412" on="0"/>
        <pt x="243" y="668" on="0"/>
      </contour>
    </TTGlyph>
    <TTGlyph name="parenright" xMin="243" yMin="-228" xMax="871" yMax="1858">
      <component glyphName="parenleft" x="1114" y="0" scalex="-0.999938964844" scaley="1.0" flags="0x4"/>
    </TTGlyph>
    <TTGlyph name="percent" xMin="147" yMin="-22" xMax="2080" yMax="1694">
      <contour>
        <pt x="527" y="757" on="1"/>
        <pt x="444" y="757" on="0"/>
        <pt x="305" y="814" on="0"/>
        <pt x="204" y="929" on="0"/>
        <pt x="147" y="1105" on="0"/>
        <pt x="147" y="1225" on="1"/>
        <pt x="147" y="1345" on="0"/>
        <pt x="204" y="1522" on="0"/>
        <pt x="305" y="1637" on="0"/>
        <pt x="444" y="1694" on="0"/>
        <pt x="527" y="1694" on="1"/>
        <pt x="610" y="1694" on="0"/>
        <pt x="749" y="1637" on="0"/>
        <pt x="850" y="1522" on="0"/>
        <pt x="907" y="1345" on="0"/>
        <pt x="907" y="1225" on="1"/>
        <pt x="907" y="1105" on="0"/>
        <pt x="850" y="929" on="0"/>
        <pt x="749" y="814" on="0"/>
        <pt x="610" y="757" on="0"/>
      </contour>
      <contour>
        <pt x="1374" y="1687" on="1"/>
        <pt x="1588" y="1687" on="1"/>
        <pt x="870" y="0" on="1"/>
        <pt x="655" y="0" on="1"/>
      </contour>
      <contour>
        <pt x="527" y="940" on="1"/>
        <pt x="563" y="940" on="0"/>
        <pt x="624" y="969" on="0"/>
        <pt x="668" y="1036" on="0"/>
        <pt x="692" y="1144" on="0"/>
        <pt x="692" y="1223" on="1"/>
        <pt x="692" y="1302" on="0"/>
        <pt x="668" y="1410" on="0"/>
        <pt x="624" y="1477" on="0"/>
        <pt x="563" y="1507" on="0"/>
        <pt x="527" y="1507" on="1"/>
        <pt x="491" y="1507" on="0"/>
        <pt x="430" y="1477" on="0"/>
        <pt x="386" y="1410" on="0"/>
        <pt x="361" y="1302" on="0"/>
        <pt x="361" y="1223" on="1"/>
        <pt x="361" y="1144" on="0"/>
        <pt x="386" y="1036" on="0"/>
        <pt x="430" y="969" on="0"/>
        <pt x="491" y="940" on="0"/>
      </contour>
      <contour>
        <pt x="1319" y="447" on="1"/>
        <pt x="1319" y="567" on="0"/>
        <pt x="1376" y="743" on="0"/>
        <pt x="1477" y="858" on="0"/>
        <pt x="1617" y="915" on="0"/>
        <pt x="1700" y="915" on="1"/>
        <pt x="1783" y="915" on="0"/>
        <pt x="1922" y="858" on="0"/>
        <pt x="2023" y="743" on="0"/>
        <pt x="2080" y="567" on="0"/>
        <pt x="2080" y="447" on="1"/>
        <pt x="2080" y="327" on="0"/>
        <pt x="2023" y="151" on="0"/>
        <pt x="1922" y="35" on="0"/>
        <pt x="1783" y="-22" on="0"/>
        <pt x="1700" y="-22" on="1"/>
        <pt x="1617" y="-22" on="0"/>
        <pt x="1477" y="35" on="0"/>
        <pt x="1376" y="151" on="0"/>
        <pt x="1319" y="327" on="0"/>
      </contour>
      <contour>
        <pt x="1533" y="445" on="1"/>
        <pt x="1533" y="366" on="0"/>
        <pt x="1558" y="258" on="0"/>
        <pt x="1602" y="191" on="0"/>
        <pt x="1664" y="162" on="0"/>
        <pt x="1700" y="162" on="1"/>
        <pt x="1736" y="162" on="0"/>
        <pt x="1797" y="191" on="0"/>
        <pt x="1840" y="258" on="0"/>
        <pt x="1864" y="366" on="0"/>
        <pt x="1864" y="445" on="1"/>
        <pt x="1864" y="523" on="0"/>
        <pt x="1840" y="631" on="0"/>
        <pt x="1797" y="698" on="0"/>
        <pt x="1736" y="728" on="0"/>
        <pt x="1700" y="728" on="1"/>
        <pt x="1664" y="728" on="0"/>
        <pt x="1602" y="698" on="0"/>
        <pt x="1558" y="631" on="0"/>
        <pt x="1533" y="523" on="0"/>
      </contour>
    </TTGlyph>
    <TTGlyph name="period" xMin="169" yMin="-19" xMax="555" yMax="343">
      <contour>
        <pt x="169" y="162" on="1"/>
        <pt x="169" y="202" on="0"/>
        <pt x="196" y="269" on="0"/>
        <pt x="246" y="317" on="0"/>
        <pt x="317" y="343" on="0"/>
        <pt x="360" y="343" on="1"/>
        <pt x="405" y="343" on="0"/>
        <pt x="477" y="317" on="0"/>
        <pt x="528" y="269" on="0"/>
        <pt x="555" y="202" on="0"/>
        <pt x="555" y="162" on="1"/>
        <pt x="555" y="121" on="0"/>
        <pt x="528" y="55" on="0"/>
        <pt x="477" y="7" on="0"/>
        <pt x="405" y="-19" on="0"/>
        <pt x="360" y="-19" on="1"/>
        <pt x="317" y="-19" on="0"/>
        <pt x="246" y="7" on="0"/>
        <pt x="196" y="55" on="0"/>
        <pt x="169" y="121" on="0"/>
      </contour>
    </TTGlyph>
    <TTGlyph name="periodcentered" xMin="169" yMin="674" xMax="555" yMax="1036">
      <component glyphName="period" x="0" y="693" flags="0x4"/>
    </TTGlyph>
    <TTGlyph name="perthousand" xMin="147" yMin="-22" xMax="2956" yMax="1694">
      <contour>
        <pt x="2195" y="447" on="1"/>
        <pt x="2195" y="567" on="0"/>
        <pt x="2252" y="743" on="0"/>
        <pt x="2353" y="858" on="0"/>
        <pt x="2493" y="915" on="0"/>
        <pt x="2576" y="915" on="1"/>
        <pt x="2659" y="915" on="0"/>
        <pt x="2798" y="858" on="0"/>
        <pt x="2899" y="743" on="0"/>
        <pt x="2956" y="567" on="0"/>
        <pt x="2956" y="447" on="1"/>
        <pt x="2956" y="327" on="0"/>
        <pt x="2899" y="151" on="0"/>
        <pt x="2798" y="35" on="0"/>
        <pt x="2659" y="-22" on="0"/>
        <pt x="2576" y="-22" on="1"/>
        <pt x="2493" y="-22" on="0"/>
        <pt x="2353" y="35" on="0"/>
        <pt x="2252" y="151" on="0"/>
        <pt x="2195" y="327" on="0"/>
      </contour>
      <contour>
        <pt x="2409" y="445" on="1"/>
        <pt x="2409" y="366" on="0"/>
        <pt x="2434" y="258" on="0"/>
        <pt x="2478" y="191" on="0"/>
        <pt x="2540" y="162" on="0"/>
        <pt x="2576" y="162" on="1"/>
        <pt x="2612" y="162" on="0"/>
        <pt x="2673" y="191" on="0"/>
        <pt x="2716" y="258" on="0"/>
        <pt x="2740" y="366" on="0"/>
        <pt x="2740" y="445" on="1"/>
        <pt x="2740" y="523" on="0"/>
        <pt x="2716" y="631" on="0"/>
        <pt x="2673" y="698" on="0"/>
        <pt x="2612" y="728" on="0"/>
        <pt x="2576" y="728" on="1"/>
        <pt x="2540" y="728" on="0"/>
        <pt x="2478" y="698" on="0"/>
        <pt x="2434" y="631" on="0"/>
        <pt x="2409" y="523" on="0"/>
      </contour>
      <contour>
        <pt x="527" y="757" on="1"/>
        <pt x="444" y="757" on="0"/>
        <pt x="305" y="814" on="0"/>
        <pt x="204" y="929" on="0"/>
        <pt x="147" y="1105" on="0"/>
        <pt x="147" y="1225" on="1"/>
        <pt x="147" y="1345" on="0"/>
        <pt x="204" y="1522" on="0"/>
        <pt x="305" y="1637" on="0"/>
        <pt x="444" y="1694" on="0"/>
        <pt x="527" y="1694" on="1"/>
        <pt x="610" y="1694" on="0"/>
        <pt x="749" y="1637" on="0"/>
        <pt x="850" y="1522" on="0"/>
        <pt x="907" y="1345" on="0"/>
        <pt x="907" y="1225" on="1"/>
        <pt x="907" y="1105" on="0"/>
        <pt x="850" y="929" on="0"/>
        <pt x="749" y="814" on="0"/>
        <pt x="610" y="757" on="0"/>
      </contour>
      <contour>
        <pt x="1374" y="1687" on="1"/>
        <pt x="1588" y="1687" on="1"/>
        <pt x="870" y="0" on="1"/>
        <pt x="655" y="0" on="1"/>
      </contour>
      <contour>
        <pt x="527" y="940" on="1"/>
        <pt x="563" y="940" on="0"/>
        <pt x="624" y="969" on="0"/>
        <pt x="668" y="1036" on="0"/>
        <pt x="692" y="1144" on="0"/>
        <pt x="692" y="1223" on="1"/>
        <pt x="692" y="1302" on="0"/>
        <pt x="668" y="1410" on="0"/>
        <pt x="624" y="1477" on="0"/>
        <pt x="563" y="1507" on="0"/>
        <pt x="527" y="1507" on="1"/>
        <pt x="491" y="1507" on="0"/>
        <pt x="430" y="1477" on="0"/>
        <pt x="386" y="1410" on="0"/>
        <pt x="361" y="1302" on="0"/>
        <pt x="361" y="1223" on="1"/>
        <pt x="361" y="1144" on="0"/>
        <pt x="386" y="1036" on="0"/>
        <pt x="430" y="969" on="0"/>
        <pt x="491" y="940" on="0"/>
      </contour>
      <contour>
        <pt x="1319" y="447" on="1"/>
        <pt x="1319" y="567" on="0"/>
        <pt x="1376" y="743" on="0"/>
        <pt x="1477" y="858" on="0"/>
        <pt x="1617" y="915" on="0"/>
        <pt x="1700" y="915" on="1"/>
        <pt x="1783" y="915" on="0"/>
        <pt x="1922" y="858" on="0"/>
        <pt x="2023" y="743" on="0"/>
        <pt x="2080" y="567" on="0"/>
        <pt x="2080" y="447" on="1"/>
        <pt x="2080" y="327" on="0"/>
        <pt x="2023" y="151" on="0"/>
        <pt x="1922" y="35" on="0"/>
        <pt x="1783" y="-22" on="0"/>
        <pt x="1700" y="-22" on="1"/>
        <pt x="1617" y="-22" on="0"/>
        <pt x="1477" y="35" on="0"/>
        <pt x="1376" y="151" on="0"/>
        <pt x="1319" y="327" on="0"/>
      </contour>
      <contour>
        <pt x="1533" y="445" on="1"/>
        <pt x="1533" y="366" on="0"/>
        <pt x="1558" y="258" on="0"/>
        <pt x="1602" y="191" on="0"/>
        <pt x="1664" y="162" on="0"/>
        <pt x="1700" y="162" on="1"/>
        <pt x="1736" y="162" on="0"/>
        <pt x="1797" y="191" on="0"/>
        <pt x="1840" y="258" on="0"/>
        <pt x="1864" y="366" on="0"/>
        <pt x="1864" y="445" on="1"/>
        <pt x="1864" y="523" on="0"/>
        <pt x="1840" y="631" on="0"/>
        <pt x="1797" y="698" on="0"/>
        <pt x="1736" y="728" on="0"/>
        <pt x="1700" y="728" on="1"/>
        <pt x="1664" y="728" on="0"/>
        <pt x="1602" y="698" on="0"/>
        <pt x="1558" y="631" on="0"/>
        <pt x="1533" y="523" on="0"/>
      </contour>
    </TTGlyph>
    <TTGlyph name="plus" xMin="205" yMin="266" xMax="1139" yMax="1233">
      <contour>
        <pt x="564" y="646" on="1"/>
        <pt x="205" y="646" on="1"/>
        <pt x="205" y="860" on="1"/>
        <pt x="564" y="860" on="1"/>
        <pt x="564" y="1233" on="1"/>
        <pt x="777" y="1233" on="1"/>
        <pt x="777" y="860" on="1"/>
        <pt x="1139" y="860" on="1"/>
        <pt x="1139" y="646" on="1"/>
        <pt x="777" y="646" on="1"/>
        <pt x="777" y="266" on="1"/>
        <pt x="564" y="266" on="1"/>
      </contour>
    </TTGlyph>
    <TTGlyph name="plusminus" xMin="205" yMin="0" xMax="1139" yMax="1336">
      <contour>
        <pt x="564" y="749" on="1"/>
        <pt x="205" y="749" on="1"/>
        <pt x="205" y="962" on="1"/>
        <pt x="564" y="962" on="1"/>
        <pt x="564" y="1336" on="1"/>
        <pt x="777" y="1336" on="1"/>
        <pt x="777" y="962" on="1"/>
        <pt x="1139" y="962" on="1"/>
        <pt x="1139" y="749" on="1"/>
        <pt x="777" y="749" on="1"/>
        <pt x="777" y="368" on="1"/>
        <pt x="564" y="368" on="1"/>
      </contour>
      <contour>
        <pt x="205" y="213" on="1"/>
        <pt x="1139" y="213" on="1"/>
        <pt x="1139" y="0" on="1"/>
        <pt x="205" y="0" on="1"/>
      </contour>
    </TTGlyph>
    <TTGlyph name="q" xMin="85" yMin="-520" xMax="1040" yMax="1157">
      <contour>
        <pt x="538" y="-23" on="1"/>
        <pt x="441" y="-23" on="0"/>
        <pt x="275" y="50" on="0"/>
        <pt x="154" y="196" on="0"/>
        <pt x="85" y="413" on="0"/>
        <pt x="85" y="557" on="1"/>
        <pt x="85" y="699" on="0"/>
        <pt x="155" y="922" on="0"/>
        <pt x="287" y="1076" on="0"/>
        <pt x="479" y="1157" on="0"/>
        <pt x="601" y="1157" on="1"/>
        <pt x="640" y="1157" on="0"/>
        <pt x="706" y="1146" on="0"/>
        <pt x="759" y="1129" on="0"/>
        <pt x="798" y="1109" on="0"/>
        <pt x="811" y="1100" on="1"/>
        <pt x="821" y="1138" on="1"/>
        <pt x="1040" y="1138" on="1"/>
        <pt x="1040" y="-520" on="1"/>
        <pt x="798" y="-520" on="1"/>
        <pt x="798" y="-145" on="1"/>
        <pt x="802" y="78" on="1"/>
        <pt x="757" y="32" on="0"/>
        <pt x="629" y="-23" on="0"/>
      </contour>
      <contour>
        <pt x="604" y="165" on="1"/>
        <pt x="718" y="165" on="0"/>
        <pt x="798" y="237" on="1"/>
        <pt x="798" y="939" on="1"/>
        <pt x="723" y="970" on="0"/>
        <pt x="642" y="970" on="1"/>
        <pt x="569" y="970" on="0"/>
        <pt x="456" y="925" on="0"/>
        <pt x="378" y="827" on="0"/>
        <pt x="338" y="673" on="0"/>
        <pt x="338" y="564" on="1"/>
        <pt x="338" y="460" on="0"/>
        <pt x="377" y="309" on="0"/>
        <pt x="448" y="211" on="0"/>
        <pt x="545" y="165" on="0"/>
      </contour>
    </TTGlyph>
    <TTGlyph name="question" xMin="120" yMin="-19" xMax="913" yMax="1721">
      <contour>
        <pt x="328" y="953" on="1"/>
        <pt x="421" y="988" on="0"/>
        <pt x="552" y="1068" on="0"/>
        <pt x="634" y="1155" on="0"/>
        <pt x="671" y="1248" on="0"/>
        <pt x="671" y="1296" on="1"/>
        <pt x="671" y="1341" on="0"/>
        <pt x="640" y="1420" on="0"/>
        <pt x="577" y="1479" on="0"/>
        <pt x="482" y="1513" on="0"/>
        <pt x="418" y="1513" on="1"/>
        <pt x="377" y="1513" on="0"/>
        <pt x="295" y="1499" on="0"/>
        <pt x="218" y="1474" on="0"/>
        <pt x="148" y="1440" on="0"/>
        <pt x="120" y="1419" on="1"/>
        <pt x="120" y="1652" on="1"/>
        <pt x="197" y="1688" on="0"/>
        <pt x="365" y="1721" on="0"/>
        <pt x="445" y="1721" on="1"/>
        <pt x="563" y="1721" on="0"/>
        <pt x="738" y="1656" on="0"/>
        <pt x="855" y="1544" on="0"/>
        <pt x="913" y="1396" on="0"/>
        <pt x="913" y="1314" on="1"/>
        <pt x="913" y="1164" on="0"/>
        <pt x="727" y="934" on="0"/>
        <pt x="544" y="847" on="1"/>
        <pt x="544" y="617" on="1"/>
        <pt x="331" y="617" on="1"/>
      </contour>
      <contour>
        <pt x="255" y="162" on="1"/>
        <pt x="255" y="202" on="0"/>
        <pt x="283" y="269" on="0"/>
        <pt x="333" y="317" on="0"/>
        <pt x="404" y="343" on="0"/>
        <pt x="447" y="343" on="1"/>
        <pt x="491" y="343" on="0"/>
        <pt x="563" y="317" on="0"/>
        <pt x="614" y="269" on="0"/>
        <pt x="642" y="202" on="0"/>
        <pt x="642" y="162" on="1"/>
        <pt x="642" y="121" on="0"/>
        <pt x="614" y="55" on="0"/>
        <pt x="563" y="7" on="0"/>
        <pt x="491" y="-19" on="0"/>
        <pt x="447" y="-19" on="1"/>
        <pt x="404" y="-19" on="0"/>
        <pt x="333" y="7" on="0"/>
        <pt x="283" y="55" on="0"/>
        <pt x="255" y="121" on="0"/>
      </contour>
    </TTGlyph>
    <TTGlyph name="questiondown" xMin="94" yMin="-352" xMax="887" yMax="1388">
      <component glyphName="question" x="1007" y="1369" scale="-0.999938964844" flags="0x4"/>
    </TTGlyph>
    <TTGlyph name="quotedbl" xMin="165" yMin="959" xMax="870" yMax="1734">
      <component glyphName="quotesingle" x="0" y="0" flags="0x4"/>
      <component glyphName="quotesingle" x="458" y="0" flags="0x4"/>
    </TTGlyph>
    <TTGlyph name="quotedblbase" xMin="180" yMin="-414" xMax="1156" yMax="348">
      <component glyphName="quoteright" x="0" y="-1359" flags="0x4"/>
      <component glyphName="quoteright" x="560" y="-1359" flags="0x4"/>
    </TTGlyph>
    <TTGlyph name="quotedblleft" xMin="183" yMin="966" xMax="1158" yMax="1728">
      <component glyphName="quoteright" x="779" y="2673" scale="-0.999938964844" flags="0x4"/>
      <component glyphName="quoteright" x="1338" y="2673" scale="-0.999938964844" flags="0x4"/>
    </TTGlyph>
    <TTGlyph name="quotedblright" xMin="180" yMin="945" xMax="1156" yMax="1707">
      <component glyphName="quoteright" x="0" y="0" flags="0x4"/>
      <component glyphName="quoteright" x="560" y="0" flags="0x4"/>
    </TTGlyph>
    <TTGlyph name="quoteleft" xMin="183" yMin="966" xMax="599" yMax="1728">
      <component glyphName="quoteright" x="779" y="2673" scale="-0.999938964844" flags="0x4"/>
    </TTGlyph>
    <TTGlyph name="quoteright" xMin="180" yMin="945" xMax="596" yMax="1707">
      <contour>
        <pt x="217" y="1096" on="1"/>
        <pt x="268" y="1111" on="0"/>
        <pt x="333" y="1161" on="0"/>
        <pt x="369" y="1225" on="0"/>
        <pt x="383" y="1300" on="0"/>
        <pt x="383" y="1342" on="1"/>
        <pt x="287" y="1342" on="0"/>
        <pt x="180" y="1442" on="0"/>
        <pt x="180" y="1524" on="1"/>
        <pt x="180" y="1564" on="0"/>
        <pt x="208" y="1631" on="0"/>
        <pt x="260" y="1680" on="0"/>
        <pt x="332" y="1707" on="0"/>
        <pt x="377" y="1707" on="1"/>
        <pt x="425" y="1707" on="0"/>
        <pt x="506" y="1674" on="0"/>
        <pt x="564" y="1605" on="0"/>
        <pt x="596" y="1498" on="0"/>
        <pt x="596" y="1425" on="1"/>
        <pt x="596" y="1343" on="0"/>
        <pt x="552" y="1183" on="0"/>
        <pt x="460" y="1051" on="0"/>
        <pt x="317" y="959" on="0"/>
        <pt x="217" y="945" on="1"/>
      </contour>
    </TTGlyph>
    <TTGlyph name="quotesinglbase" xMin="182" yMin="-402" xMax="608" yMax="373">
      <contour>
        <pt x="182" y="188" on="1"/>
        <pt x="182" y="229" on="0"/>
        <pt x="211" y="297" on="0"/>
        <pt x="264" y="346" on="0"/>
        <pt x="338" y="373" on="0"/>
        <pt x="384" y="373" on="1"/>
        <pt x="433" y="373" on="0"/>
        <pt x="515" y="340" on="0"/>
        <pt x="575" y="270" on="0"/>
        <pt x="608" y="162" on="0"/>
        <pt x="608" y="87" on="1"/>
        <pt x="608" y="3" on="0"/>
        <pt x="563" y="-161" on="0"/>
        <pt x="469" y="-295" on="0"/>
        <pt x="321" y="-389" on="0"/>
        <pt x="219" y="-402" on="1"/>
        <pt x="219" y="-250" on="1"/>
        <pt x="272" y="-235" on="0"/>
        <pt x="339" y="-184" on="0"/>
        <pt x="376" y="-119" on="0"/>
        <pt x="390" y="-41" on="0"/>
        <pt x="390" y="1" on="1"/>
        <pt x="342" y="1" on="0"/>
        <pt x="265" y="28" on="0"/>
        <pt x="211" y="77" on="0"/>
        <pt x="182" y="146" on="0"/>
      </contour>
    </TTGlyph>
    <TTGlyph name="quotesingle" xMin="165" yMin="959" xMax="412" yMax="1734">
      <contour>
        <pt x="165" y="1734" on="1"/>
        <pt x="412" y="1734" on="1"/>
        <pt x="391" y="959" on="1"/>
        <pt x="186" y="959" on="1"/>
      </contour>
    </TTGlyph>
    <TTGlyph name="r" xMin="171" yMin="0" xMax="763" yMax="1157">
      <contour>
        <pt x="171" y="1135" on="1"/>
        <pt x="384" y="1135" on="1"/>
        <pt x="398" y="1004" on="1"/>
        <pt x="453" y="1076" on="0"/>
        <pt x="612" y="1157" on="0"/>
        <pt x="709" y="1157" on="1"/>
        <pt x="748" y="1157" on="0"/>
        <pt x="763" y="1150" on="1"/>
        <pt x="763" y="897" on="1"/>
        <pt x="729" y="914" on="0"/>
        <pt x="639" y="926" on="0"/>
        <pt x="543" y="910" on="0"/>
        <pt x="450" y="861" on="0"/>
        <pt x="413" y="818" on="1"/>
        <pt x="413" y="0" on="1"/>
        <pt x="171" y="0" on="1"/>
      </contour>
    </TTGlyph>
    <TTGlyph name="rcaron" xMin="57" yMin="0" xMax="821" yMax="1720">
      <component glyphName="r" x="0" y="0" flags="0x204"/>
      <component glyphName="caron" x="389" y="0" flags="0x4"/>
    </TTGlyph>
    <TTGlyph name="rcommaaccent" xMin="167" yMin="-520" xMax="763" yMax="1157">
      <component glyphName="r" x="0" y="0" flags="0x204"/>
      <component glyphName="commaaccent" x="281" y="0" flags="0x4"/>
    </TTGlyph>
    <TTGlyph name="registered" xMin="228" yMin="-39" xMax="1956" yMax="1685">
      <contour>
        <pt x="228" y="823" on="1"/>
        <pt x="228" y="947" on="0"/>
        <pt x="286" y="1172" on="0"/>
        <pt x="394" y="1364" on="0"/>
        <pt x="548" y="1518" on="0"/>
        <pt x="740" y="1626" on="0"/>
        <pt x="966" y="1685" on="0"/>
        <pt x="1092" y="1685" on="1"/>
        <pt x="1218" y="1685" on="0"/>
        <pt x="1444" y="1626" on="0"/>
        <pt x="1636" y="1518" on="0"/>
        <pt x="1790" y="1364" on="0"/>
        <pt x="1898" y="1172" on="0"/>
        <pt x="1956" y="947" on="0"/>
        <pt x="1956" y="823" on="1"/>
        <pt x="1956" y="698" on="0"/>
        <pt x="1898" y="474" on="0"/>
        <pt x="1790" y="282" on="0"/>
        <pt x="1636" y="128" on="0"/>
        <pt x="1444" y="20" on="0"/>
        <pt x="1218" y="-39" on="0"/>
        <pt x="1092" y="-39" on="1"/>
        <pt x="966" y="-39" on="0"/>
        <pt x="740" y="20" on="0"/>
        <pt x="548" y="128" on="0"/>
        <pt x="394" y="282" on="0"/>
        <pt x="286" y="474" on="0"/>
        <pt x="228" y="698" on="0"/>
      </contour>
      <contour>
        <pt x="383" y="823" on="1"/>
        <pt x="383" y="671" on="0"/>
        <pt x="486" y="412" on="0"/>
        <pt x="673" y="222" on="0"/>
        <pt x="934" y="114" on="0"/>
        <pt x="1092" y="114" on="1"/>
        <pt x="1249" y="114" on="0"/>
        <pt x="1510" y="222" on="0"/>
        <pt x="1697" y="412" on="0"/>
        <pt x="1800" y="671" on="0"/>
        <pt x="1800" y="823" on="1"/>
        <pt x="1800" y="974" on="0"/>
        <pt x="1697" y="1234" on="0"/>
        <pt x="1510" y="1424" on="0"/>
        <pt x="1249" y="1532" on="0"/>
        <pt x="1092" y="1532" on="1"/>
        <pt x="934" y="1532" on="0"/>
        <pt x="673" y="1424" on="0"/>
        <pt x="486" y="1234" on="0"/>
        <pt x="383" y="974" on="0"/>
      </contour>
      <contour>
        <pt x="800" y="1279" on="1"/>
        <pt x="837" y="1280" on="0"/>
        <pt x="898" y="1281" on="0"/>
        <pt x="956" y="1282" on="0"/>
        <pt x="1014" y="1282" on="0"/>
        <pt x="1048" y="1282" on="1"/>
        <pt x="1150" y="1282" on="0"/>
        <pt x="1296" y="1241" on="0"/>
        <pt x="1389" y="1168" on="0"/>
        <pt x="1433" y="1068" on="0"/>
        <pt x="1433" y="1008" on="1"/>
        <pt x="1433" y="929" on="0"/>
        <pt x="1356" y="797" on="0"/>
        <pt x="1278" y="759" on="1"/>
        <pt x="1461" y="423" on="1"/>
        <pt x="1227" y="423" on="1"/>
        <pt x="1067" y="717" on="1"/>
        <pt x="1055" y="717" on="0"/>
        <pt x="1030" y="718" on="0"/>
        <pt x="1017" y="719" on="1"/>
        <pt x="1016" y="422" on="1"/>
        <pt x="800" y="422" on="1"/>
      </contour>
      <contour>
        <pt x="1017" y="879" on="1"/>
        <pt x="1070" y="873" on="0"/>
        <pt x="1143" y="887" on="0"/>
        <pt x="1188" y="920" on="0"/>
        <pt x="1208" y="970" on="0"/>
        <pt x="1208" y="1000" on="1"/>
        <pt x="1208" y="1069" on="0"/>
        <pt x="1108" y="1128" on="0"/>
        <pt x="1017" y="1123" on="1"/>
      </contour>
    </TTGlyph>
    <TTGlyph name="ring" xMin="-242" yMin="1270" xMax="342" yMax="1822">
      <contour>
        <pt x="50" y="1270" on="1"/>
        <pt x="-14" y="1270" on="0"/>
        <pt x="-121" y="1310" on="0"/>
        <pt x="-199" y="1383" on="0"/>
        <pt x="-242" y="1485" on="0"/>
        <pt x="-242" y="1546" on="1"/>
        <pt x="-242" y="1607" on="0"/>
        <pt x="-199" y="1709" on="0"/>
        <pt x="-121" y="1782" on="0"/>
        <pt x="-14" y="1822" on="0"/>
        <pt x="50" y="1822" on="1"/>
        <pt x="114" y="1822" on="0"/>
        <pt x="221" y="1782" on="0"/>
        <pt x="299" y="1709" on="0"/>
        <pt x="342" y="1607" on="0"/>
        <pt x="342" y="1546" on="1"/>
        <pt x="342" y="1485" on="0"/>
        <pt x="299" y="1383" on="0"/>
        <pt x="221" y="1310" on="0"/>
        <pt x="114" y="1270" on="0"/>
      </contour>
      <contour>
        <pt x="50" y="1412" on="1"/>
        <pt x="98" y="1412" on="0"/>
        <pt x="164" y="1478" on="0"/>
        <pt x="164" y="1546" on="1"/>
        <pt x="164" y="1614" on="0"/>
        <pt x="99" y="1679" on="0"/>
        <pt x="50" y="1679" on="1"/>
        <pt x="3" y="1679" on="0"/>
        <pt x="-63" y="1613" on="0"/>
        <pt x="-63" y="1546" on="1"/>
        <pt x="-63" y="1478" on="0"/>
        <pt x="2" y="1412" on="0"/>
      </contour>
    </TTGlyph>
    <TTGlyph name="ring.cap" xMin="-242" yMin="1464" xMax="342" yMax="2016">
      <contour>
        <pt x="50" y="1464" on="1"/>
        <pt x="-14" y="1464" on="0"/>
        <pt x="-121" y="1504" on="0"/>
        <pt x="-199" y="1577" on="0"/>
        <pt x="-242" y="1679" on="0"/>
        <pt x="-242" y="1740" on="1"/>
        <pt x="-242" y="1801" on="0"/>
        <pt x="-199" y="1903" on="0"/>
        <pt x="-121" y="1976" on="0"/>
        <pt x="-14" y="2016" on="0"/>
        <pt x="50" y="2016" on="1"/>
        <pt x="114" y="2016" on="0"/>
        <pt x="221" y="1976" on="0"/>
        <pt x="299" y="1903" on="0"/>
        <pt x="342" y="1801" on="0"/>
        <pt x="342" y="1740" on="1"/>
        <pt x="342" y="1679" on="0"/>
        <pt x="299" y="1577" on="0"/>
        <pt x="221" y="1504" on="0"/>
        <pt x="114" y="1464" on="0"/>
      </contour>
      <contour>
        <pt x="50" y="1606" on="1"/>
        <pt x="98" y="1606" on="0"/>
        <pt x="164" y="1672" on="0"/>
        <pt x="164" y="1740" on="1"/>
        <pt x="164" y="1808" on="0"/>
        <pt x="99" y="1873" on="0"/>
        <pt x="50" y="1873" on="1"/>
        <pt x="3" y="1873" on="0"/>
        <pt x="-63" y="1807" on="0"/>
        <pt x="-63" y="1740" on="1"/>
        <pt x="-63" y="1672" on="0"/>
        <pt x="2" y="1606" on="0"/>
      </contour>
    </TTGlyph>
    <TTGlyph name="s" xMin="138" yMin="-23" xMax="848" yMax="1157">
      <contour>
        <pt x="145" y="247" on="1"/>
        <pt x="219" y="202" on="0"/>
        <pt x="375" y="163" on="0"/>
        <pt x="434" y="163" on="1"/>
        <pt x="522" y="163" on="0"/>
        <pt x="618" y="230" on="0"/>
        <pt x="618" y="290" on="1"/>
        <pt x="618" y="324" on="0"/>
        <pt x="585" y="373" on="0"/>
        <pt x="525" y="418" on="0"/>
        <pt x="440" y="464" on="0"/>
        <pt x="388" y="496" on="1"/>
        <pt x="340" y="525" on="0"/>
        <pt x="250" y="590" on="0"/>
        <pt x="180" y="672" on="0"/>
        <pt x="138" y="777" on="0"/>
        <pt x="138" y="846" on="1"/>
        <pt x="138" y="914" on="0"/>
        <pt x="189" y="1028" on="0"/>
        <pt x="288" y="1111" on="0"/>
        <pt x="435" y="1157" on="0"/>
        <pt x="530" y="1157" on="1"/>
        <pt x="555" y="1157" on="0"/>
        <pt x="618" y="1152" on="0"/>
        <pt x="683" y="1141" on="0"/>
        <pt x="744" y="1122" on="0"/>
        <pt x="768" y="1109" on="1"/>
        <pt x="768" y="921" on="1"/>
        <pt x="749" y="932" on="0"/>
        <pt x="696" y="953" on="0"/>
        <pt x="637" y="968" on="0"/>
        <pt x="577" y="977" on="0"/>
        <pt x="551" y="977" on="1"/>
        <pt x="505" y="977" on="0"/>
        <pt x="438" y="957" on="0"/>
        <pt x="395" y="924" on="0"/>
        <pt x="374" y="878" on="0"/>
        <pt x="374" y="853" on="1"/>
        <pt x="374" y="821" on="0"/>
        <pt x="403" y="770" on="0"/>
        <pt x="455" y="724" on="0"/>
        <pt x="528" y="679" on="0"/>
        <pt x="573" y="652" on="1"/>
        <pt x="620" y="624" on="0"/>
        <pt x="718" y="560" on="0"/>
        <pt x="797" y="478" on="0"/>
        <pt x="848" y="371" on="0"/>
        <pt x="848" y="301" on="1"/>
        <pt x="848" y="229" on="0"/>
        <pt x="793" y="110" on="0"/>
        <pt x="689" y="24" on="0"/>
        <pt x="538" y="-23" on="0"/>
        <pt x="443" y="-23" on="1"/>
        <pt x="368" y="-23" on="0"/>
        <pt x="211" y="9" on="0"/>
        <pt x="145" y="41" on="1"/>
      </contour>
    </TTGlyph>
    <TTGlyph name="scaron" xMin="91" yMin="-23" xMax="855" yMax="1720">
      <component glyphName="s" x="0" y="0" flags="0x204"/>
      <component glyphName="caron" x="423" y="0" flags="0x4"/>
    </TTGlyph>
    <TTGlyph name="section" xMin="182" yMin="-376" xMax="1113" yMax="1890">
      <contour>
        <pt x="246" y="-56" on="1"/>
        <pt x="333" y="-116" on="0"/>
        <pt x="495" y="-164" on="0"/>
        <pt x="571" y="-164" on="1"/>
        <pt x="640" y="-164" on="0"/>
        <pt x="731" y="-132" on="0"/>
        <pt x="786" y="-82" on="0"/>
        <pt x="809" y="-19" on="0"/>
        <pt x="809" y="13" on="1"/>
        <pt x="809" y="65" on="0"/>
        <pt x="755" y="152" on="0"/>
        <pt x="667" y="229" on="0"/>
        <pt x="554" y="302" on="0"/>
        <pt x="437" y="378" on="0"/>
        <pt x="324" y="463" on="0"/>
        <pt x="236" y="566" on="0"/>
        <pt x="182" y="690" on="0"/>
        <pt x="182" y="767" on="1"/>
        <pt x="182" y="828" on="0"/>
        <pt x="218" y="936" on="0"/>
        <pt x="282" y="1026" on="0"/>
        <pt x="373" y="1099" on="0"/>
        <pt x="429" y="1125" on="1"/>
        <pt x="389" y="1158" on="0"/>
        <pt x="320" y="1232" on="0"/>
        <pt x="269" y="1320" on="0"/>
        <pt x="239" y="1423" on="0"/>
        <pt x="239" y="1485" on="1"/>
        <pt x="239" y="1577" on="0"/>
        <pt x="306" y="1727" on="0"/>
        <pt x="424" y="1833" on="0"/>
        <pt x="587" y="1890" on="0"/>
        <pt x="683" y="1890" on="1"/>
        <pt x="758" y="1890" on="0"/>
        <pt x="909" y="1857" on="0"/>
        <pt x="966" y="1829" on="1"/>
        <pt x="964" y="1593" on="1"/>
        <pt x="892" y="1639" on="0"/>
        <pt x="764" y="1679" on="0"/>
        <pt x="701" y="1679" on="1"/>
        <pt x="645" y="1679" on="0"/>
        <pt x="563" y="1650" on="0"/>
        <pt x="510" y="1600" on="0"/>
        <pt x="484" y="1534" on="0"/>
        <pt x="484" y="1497" on="1"/>
        <pt x="484" y="1440" on="0"/>
        <pt x="538" y="1347" on="0"/>
        <pt x="627" y="1267" on="0"/>
        <pt x="740" y="1194" on="0"/>
        <pt x="857" y="1118" on="0"/>
        <pt x="970" y="1035" on="0"/>
        <pt x="1059" y="934" on="0"/>
        <pt x="1113" y="810" on="0"/>
        <pt x="1113" y="732" on="1"/>
        <pt x="1113" y="613" on="0"/>
        <pt x="984" y="428" on="0"/>
        <pt x="868" y="371" on="1"/>
        <pt x="907" y="341" on="0"/>
        <pt x="976" y="271" on="0"/>
        <pt x="1027" y="189" on="0"/>
        <pt x="1056" y="91" on="0"/>
        <pt x="1056" y="32" on="1"/>
        <pt x="1056" y="-56" on="0"/>
        <pt x="991" y="-205" on="0"/>
        <pt x="869" y="-314" on="0"/>
        <pt x="696" y="-376" on="0"/>
        <pt x="588" y="-376" on="1"/>
        <pt x="544" y="-376" on="0"/>
        <pt x="451" y="-366" on="0"/>
        <pt x="360" y="-346" on="0"/>
        <pt x="278" y="-317" on="0"/>
        <pt x="245" y="-298" on="1"/>
      </contour>
      <contour>
        <pt x="707" y="478" on="1"/>
        <pt x="793" y="518" on="0"/>
        <pt x="866" y="631" on="0"/>
        <pt x="866" y="693" on="1"/>
        <pt x="866" y="748" on="0"/>
        <pt x="817" y="837" on="0"/>
        <pt x="735" y="915" on="0"/>
        <pt x="629" y="986" on="0"/>
        <pt x="573" y="1022" on="1"/>
        <pt x="503" y="992" on="0"/>
        <pt x="427" y="875" on="0"/>
        <pt x="427" y="803" on="1"/>
        <pt x="427" y="746" on="0"/>
        <pt x="474" y="655" on="0"/>
        <pt x="552" y="578" on="0"/>
        <pt x="653" y="511" on="0"/>
      </contour>
    </TTGlyph>
    <TTGlyph name="semicolon" xMin="169" yMin="-384" xMax="584" yMax="1150">
      <component glyphName="period" x="0" y="807" flags="0x4"/>
      <component glyphName="comma" x="0" y="0" flags="0x4"/>
    </TTGlyph>
    <TTGlyph name="seven" xMin="62" yMin="0" xMax="1068" yMax="1571">
      <contour>
        <pt x="746" y="1358" on="1"/>
        <pt x="62" y="1358" on="1"/>
        <pt x="62" y="1571" on="1"/>
        <pt x="1068" y="1571" on="1"/>
        <pt x="508" y="0" on="1"/>
        <pt x="235" y="0" on="1"/>
      </contour>
    </TTGlyph>
    <TTGlyph name="six" xMin="120" yMin="-23" xMax="1186" yMax="1593">
      <contour>
        <pt x="675" y="-23" on="1"/>
        <pt x="553" y="-23" on="0"/>
        <pt x="350" y="69" on="0"/>
        <pt x="202" y="258" on="0"/>
        <pt x="120" y="549" on="0"/>
        <pt x="120" y="748" on="1"/>
        <pt x="120" y="969" on="0"/>
        <pt x="220" y="1289" on="0"/>
        <pt x="391" y="1495" on="0"/>
        <pt x="619" y="1593" on="0"/>
        <pt x="747" y="1593" on="1"/>
        <pt x="784" y="1593" on="0"/>
        <pt x="868" y="1585" on="0"/>
        <pt x="950" y="1569" on="0"/>
        <pt x="1023" y="1545" on="0"/>
        <pt x="1049" y="1529" on="1"/>
        <pt x="1049" y="1296" on="1"/>
        <pt x="1014" y="1322" on="0"/>
        <pt x="938" y="1357" on="0"/>
        <pt x="864" y="1378" on="0"/>
        <pt x="794" y="1386" on="0"/>
        <pt x="766" y="1386" on="1"/>
        <pt x="672" y="1386" on="0"/>
        <pt x="523" y="1306" on="0"/>
        <pt x="420" y="1159" on="0"/>
        <pt x="366" y="952" on="0"/>
        <pt x="366" y="824" on="1"/>
        <pt x="377" y="824" on="1"/>
        <pt x="439" y="919" on="0"/>
        <pt x="615" y="1024" on="0"/>
        <pt x="733" y="1024" on="1"/>
        <pt x="827" y="1024" on="0"/>
        <pt x="992" y="954" on="0"/>
        <pt x="1115" y="823" on="0"/>
        <pt x="1186" y="635" on="0"/>
        <pt x="1186" y="516" on="1"/>
        <pt x="1186" y="399" on="0"/>
        <pt x="1115" y="201" on="0"/>
        <pt x="983" y="58" on="0"/>
        <pt x="793" y="-23" on="0"/>
      </contour>
      <contour>
        <pt x="681" y="184" on="1"/>
        <pt x="738" y="184" on="0"/>
        <pt x="832" y="224" on="0"/>
        <pt x="901" y="303" on="0"/>
        <pt x="939" y="420" on="0"/>
        <pt x="939" y="496" on="1"/>
        <pt x="939" y="571" on="0"/>
        <pt x="901" y="691" on="0"/>
        <pt x="832" y="773" on="0"/>
        <pt x="734" y="817" on="0"/>
        <pt x="674" y="817" on="1"/>
        <pt x="589" y="817" on="0"/>
        <pt x="435" y="731" on="0"/>
        <pt x="375" y="644" on="1"/>
        <pt x="375" y="512" on="0"/>
        <pt x="428" y="335" on="0"/>
        <pt x="515" y="228" on="0"/>
        <pt x="624" y="184" on="0"/>
      </contour>
    </TTGlyph>
    <TTGlyph name="slash" xMin="242" yMin="-285" xMax="1321" yMax="1754">
      <contour>
        <pt x="1107" y="1754" on="1"/>
        <pt x="1321" y="1754" on="1"/>
        <pt x="456" y="-285" on="1"/>
        <pt x="242" y="-285" on="1"/>
      </contour>
    </TTGlyph>
</ttFont>
